{"glyphs":{"0":{"ha":833,"x_min":139,"x_max":849,"o":"m 418 -17 q 279 14 333 -17 q 194 91 225 44 q 151 192 163 138 q 139 292 139 246 q 169 529 139 418 q 256 724 200 640 q 392 855 313 807 q 569 903 471 903 q 708 872 654 903 q 794 795 763 842 q 837 694 825 749 q 849 594 849 640 q 818 357 849 468 q 731 163 788 246 q 595 31 675 79 q 418 -17 515 -17 m 428 69 q 554 106 496 69 q 656 212 613 143 q 724 378 699 281 q 749 596 749 475 q 741 671 749 632 q 713 742 733 710 q 655 796 692 775 q 560 817 618 817 q 433 780 492 817 q 332 674 375 743 q 264 508 289 606 q 239 290 239 411 q 247 215 239 254 q 275 144 254 176 q 333 90 296 111 q 428 69 369 69 z "},"1":{"ha":833,"x_min":181,"x_max":735,"o":"m 426 83 l 543 747 l 325 644 q 303 683 314 660 q 292 722 293 707 l 654 900 l 665 900 l 521 83 l 735 83 q 730 38 735 63 q 721 0 725 14 l 181 0 q 185 45 181 21 q 194 83 190 69 l 426 83 z "},"2":{"ha":833,"x_min":92,"x_max":758,"o":"m 92 17 l 400 307 q 511 416 463 367 q 592 510 560 465 q 640 597 624 554 q 657 685 657 639 q 621 781 657 743 q 493 818 585 818 q 373 799 426 818 q 275 761 319 781 q 265 797 268 775 q 260 842 261 818 q 362 882 299 860 q 504 904 425 904 q 694 847 629 904 q 758 694 758 790 q 740 586 758 638 q 686 485 721 535 q 603 384 651 435 q 496 279 554 333 l 289 86 l 697 86 q 692 40 697 65 q 683 0 688 14 l 96 0 l 92 17 z "},"3":{"ha":833,"x_min":85,"x_max":807,"o":"m 300 426 l 633 801 l 246 801 q 251 849 246 822 q 260 889 256 875 l 803 889 l 807 878 l 468 496 q 580 476 532 494 q 660 426 628 457 q 708 353 692 394 q 724 263 724 311 q 694 108 724 176 q 614 -10 665 39 q 491 -84 563 -58 q 335 -110 419 -110 q 272 -106 307 -110 q 201 -96 236 -103 q 135 -79 167 -89 q 85 -58 104 -69 q 104 -17 92 -39 q 129 22 117 6 q 220 -10 163 3 q 336 -24 278 -24 q 453 -5 400 -24 q 544 49 506 14 q 603 136 582 85 q 624 253 624 188 q 608 333 624 300 q 565 384 592 365 q 502 411 538 403 q 428 419 467 419 q 369 417 399 419 q 308 408 339 415 l 300 426 z "},"4":{"ha":833,"x_min":101,"x_max":811,"o":"m 101 119 l 639 921 q 681 905 658 918 q 715 881 703 892 l 256 193 l 576 193 l 629 489 q 653 491 638 490 q 679 492 669 492 q 702 491 688 492 q 724 489 717 490 l 671 193 l 811 193 q 806 146 811 172 q 797 106 801 119 l 656 106 l 622 -83 q 598 -85 614 -85 q 572 -86 582 -86 q 549 -85 564 -86 q 528 -83 535 -85 l 561 106 l 107 106 l 101 119 z "},"5":{"ha":833,"x_min":104,"x_max":800,"o":"m 268 433 l 365 889 l 800 889 q 795 842 800 868 q 786 801 790 815 l 438 801 l 378 515 q 433 522 406 521 q 471 522 460 522 q 586 503 538 522 q 667 453 635 485 q 714 378 699 421 q 729 285 729 335 q 695 113 729 186 q 605 -10 661 39 q 476 -85 549 -60 q 325 -110 403 -110 q 192 -97 244 -110 q 104 -65 139 -83 q 123 -22 111 -46 q 147 18 135 3 q 222 -10 182 3 q 335 -24 263 -24 q 451 -5 397 -24 q 543 51 504 14 q 604 145 582 89 q 626 275 626 201 q 582 396 626 351 q 442 440 538 440 q 360 435 397 440 q 294 425 322 429 l 276 422 l 268 433 z "},"6":{"ha":833,"x_min":167,"x_max":799,"o":"m 788 1017 q 794 964 794 989 q 794 957 794 961 q 793 933 794 953 q 625 888 703 922 q 485 798 547 853 q 377 669 422 743 q 307 508 332 596 q 415 599 351 567 q 563 632 479 632 q 657 616 614 632 q 731 569 700 600 q 781 492 763 538 q 799 388 799 447 q 767 213 799 288 q 683 86 735 138 q 567 9 632 35 q 439 -17 503 -17 q 312 8 364 -17 q 227 74 260 33 q 181 167 194 115 q 167 275 167 219 q 184 433 167 351 q 235 594 201 515 q 321 744 269 672 q 441 872 372 815 q 597 967 510 929 q 788 1017 683 1006 m 444 65 q 555 92 507 65 q 635 161 603 118 q 685 260 668 204 q 701 372 701 315 q 529 550 701 550 q 440 532 486 550 q 355 476 393 514 q 292 382 317 439 q 267 247 267 325 q 276 181 267 214 q 308 123 286 149 q 363 81 329 97 q 444 65 396 65 z "},"7":{"ha":833,"x_min":207,"x_max":874,"o":"m 722 801 l 239 801 q 244 849 239 822 q 253 889 249 875 l 868 889 l 874 883 l 288 -104 q 207 -61 235 -97 l 722 801 z "},"8":{"ha":833,"x_min":133,"x_max":833,"o":"m 411 529 q 363 558 388 542 q 317 600 338 575 q 282 660 296 625 q 268 742 268 694 q 292 841 268 794 q 359 923 317 888 q 460 978 401 958 q 586 999 518 999 q 676 987 632 999 q 755 951 719 975 q 812 888 790 926 q 833 797 833 850 q 814 703 833 746 q 763 626 794 660 q 691 569 732 593 q 607 529 650 544 q 674 492 642 514 q 731 440 706 469 q 771 372 756 410 q 786 286 786 333 q 756 158 786 214 q 676 63 726 101 q 560 3 626 24 q 422 -17 494 -17 q 308 -4 361 -17 q 217 35 256 8 q 156 107 178 63 q 133 215 133 151 q 156 324 133 275 q 218 413 179 374 q 307 481 257 451 q 411 529 357 510 m 501 485 q 391 442 440 468 q 307 383 342 417 q 253 310 272 350 q 233 225 233 269 q 249 151 233 182 q 290 102 264 121 q 351 74 315 83 q 426 65 386 65 q 537 83 489 65 q 618 130 585 100 q 668 199 651 160 q 685 282 685 239 q 634 405 685 354 q 501 485 583 456 m 518 575 q 681 659 625 606 q 736 789 736 713 q 722 852 736 826 q 685 894 708 878 q 635 917 663 910 q 578 924 607 924 q 485 908 525 924 q 419 865 446 892 q 380 805 393 839 q 367 735 367 771 q 383 669 367 696 q 422 623 399 642 q 472 593 446 604 q 518 575 499 582 z "},"9":{"ha":833,"x_min":188,"x_max":819,"o":"m 193 -51 q 361 -6 283 -42 q 501 84 439 29 q 609 213 564 139 q 679 374 654 286 q 571 283 635 315 q 424 250 507 250 q 329 266 372 250 q 255 313 286 282 q 206 390 224 344 q 188 494 188 435 q 219 669 188 594 q 303 796 251 744 q 419 873 354 847 q 547 899 483 899 q 674 874 622 899 q 759 808 726 849 q 806 715 792 767 q 819 607 819 663 q 802 449 819 531 q 751 288 785 367 q 665 138 717 210 q 545 10 614 67 q 390 -85 476 -47 q 199 -135 303 -124 q 193 -99 196 -119 q 193 -51 190 -78 m 457 332 q 546 350 500 332 q 631 406 592 368 q 694 500 669 443 q 719 635 719 557 q 710 701 719 668 q 678 759 700 733 q 623 801 657 785 q 542 817 589 817 q 431 790 479 817 q 351 721 383 764 q 301 622 318 678 q 285 510 285 567 q 457 332 285 332 z "}," ":{"ha":329,"x_min":0,"x_max":0,"o":""},"!":{"ha":374,"x_min":133,"x_max":415,"o":"m 317 999 q 339 1001 328 1000 q 363 1001 350 1001 q 388 1001 375 1001 q 415 999 401 1000 l 285 285 q 263 283 274 283 q 239 282 251 282 q 216 283 226 282 q 196 285 206 283 l 317 999 m 133 0 q 139 58 133 32 q 145 88 142 74 q 153 118 149 103 q 207 122 178 122 q 260 118 236 122 q 254 60 260 86 q 248 30 251 44 q 240 0 244 15 q 186 -4 213 -4 q 158 -3 172 -4 q 133 0 144 -3 z "},"\"":{"ha":501,"x_min":172,"x_max":599,"o":"m 238 999 q 262 1001 247 1000 q 289 1001 276 1001 q 314 1001 303 1001 q 335 999 325 1000 l 269 625 q 247 623 260 624 q 221 622 235 622 q 195 623 208 622 q 172 625 182 624 l 238 999 m 501 999 q 526 1001 511 1000 q 553 1001 540 1001 q 578 1001 567 1001 q 599 999 589 1000 l 533 625 q 511 623 524 624 q 485 622 499 622 q 459 623 472 622 q 436 625 446 624 l 501 999 z "},"#":{"ha":971,"x_min":117,"x_max":1021,"o":"m 290 296 l 117 296 l 122 335 l 131 376 l 311 376 l 382 651 l 207 651 l 213 690 q 217 711 215 703 q 221 731 218 719 l 403 731 l 463 960 q 488 963 478 963 q 514 963 499 963 q 533 963 521 963 q 554 961 544 963 l 496 731 l 763 731 l 821 960 q 848 963 836 963 q 871 963 860 963 q 892 963 881 963 q 915 961 903 963 l 856 731 l 1021 731 q 1019 713 1019 719 q 1017 694 1019 706 q 1012 673 1014 683 q 1007 651 1010 663 l 836 651 l 765 376 l 929 376 q 928 357 929 365 q 924 338 926 349 q 915 296 921 315 l 744 296 l 679 40 q 653 39 665 39 q 629 39 640 39 q 609 39 622 39 q 589 40 596 39 l 653 296 l 385 296 l 321 40 q 295 39 306 39 q 269 39 285 39 q 248 39 260 39 q 225 40 236 39 l 290 296 m 674 376 l 743 651 l 475 651 l 406 376 l 674 376 z "},"$":{"ha":833,"x_min":128,"x_max":817,"o":"m 365 -17 l 360 -17 q 291 -12 326 -17 q 224 -1 256 -7 q 166 13 192 6 q 128 28 140 21 q 142 72 133 49 q 163 114 150 94 q 257 85 210 97 q 378 72 304 72 q 573 131 506 72 q 640 288 640 189 q 608 392 640 347 q 485 481 575 436 q 401 524 440 501 q 331 575 361 547 q 283 640 300 603 q 265 728 265 678 q 337 911 265 840 q 544 996 408 982 l 564 1118 q 604 1122 585 1122 q 643 1118 624 1122 l 624 1000 q 733 986 685 997 q 817 961 781 975 q 803 915 813 939 q 783 875 794 892 q 701 904 751 892 q 592 917 650 917 q 427 876 486 917 q 368 751 368 835 q 409 649 368 690 q 532 565 450 607 q 630 510 589 536 q 697 453 671 483 q 734 388 722 424 q 746 304 746 351 q 724 187 746 240 q 663 93 703 133 q 568 26 624 53 q 446 -10 513 0 l 419 -164 q 381 -168 400 -168 q 340 -164 358 -168 l 365 -17 z "},"%":{"ha":1349,"x_min":161,"x_max":1342,"o":"m 1114 982 q 1144 984 1125 983 q 1174 985 1163 985 q 1201 984 1188 985 q 1228 982 1214 983 l 386 0 q 358 -3 371 -3 q 333 -3 346 -3 q 301 -3 321 -3 q 271 0 282 -3 l 1114 982 m 374 488 q 454 513 421 488 q 510 576 488 538 q 542 664 532 615 q 553 758 553 713 q 438 921 553 921 q 358 896 392 921 q 303 831 325 871 q 272 743 282 792 q 261 649 261 694 q 374 488 261 488 m 365 410 q 212 474 263 410 q 161 644 161 538 q 178 769 161 707 q 231 883 196 832 q 319 967 265 935 q 444 999 372 999 q 602 935 551 999 q 653 764 653 871 q 635 637 653 700 q 581 523 617 574 q 492 441 546 472 q 365 410 438 410 m 1063 63 q 1143 88 1110 63 q 1199 151 1176 113 q 1231 239 1221 190 q 1242 333 1242 288 q 1126 496 1242 496 q 1047 471 1081 496 q 992 406 1014 446 q 960 318 971 367 q 950 224 950 269 q 1063 63 950 63 m 1054 -15 q 901 49 951 -15 q 850 219 850 113 q 867 344 850 282 q 919 458 885 407 q 1008 542 954 510 q 1133 574 1061 574 q 1291 510 1240 574 q 1342 339 1342 446 q 1324 212 1342 275 q 1270 98 1306 149 q 1181 16 1235 47 q 1054 -15 1126 -15 z "},"&":{"ha":983,"x_min":128,"x_max":1081,"o":"m 822 633 q 835 710 829 669 q 842 804 842 751 l 842 819 q 890 831 864 826 q 932 835 917 835 q 933 808 933 819 q 933 785 933 796 q 928 716 933 758 q 915 633 922 674 l 1081 633 q 1075 592 1078 613 q 1065 549 1072 572 l 900 549 l 857 301 q 726 64 829 144 q 453 -17 624 -17 q 216 52 304 -17 q 128 261 128 121 q 144 366 128 315 q 190 460 160 417 q 265 535 221 503 q 363 588 308 568 q 331 605 350 593 q 294 637 311 617 q 263 688 276 657 q 250 760 250 718 q 275 870 250 822 q 341 951 300 918 q 434 999 382 983 q 540 1015 486 1015 q 638 1009 596 1015 q 718 989 679 1003 q 688 914 708 943 q 624 930 660 922 q 542 938 589 938 q 402 890 454 938 q 350 767 350 842 q 365 702 350 728 q 404 661 381 676 q 456 640 428 646 q 513 633 485 633 l 822 633 m 807 549 l 524 549 q 406 527 458 549 q 317 468 354 506 q 260 378 281 431 q 240 264 240 326 q 292 125 240 178 q 463 72 343 72 q 606 95 550 72 q 695 158 661 118 q 747 253 729 199 q 776 371 765 308 l 807 549 z "},"'":{"ha":238,"x_min":172,"x_max":335,"o":"m 238 999 q 262 1001 247 1000 q 289 1001 276 1001 q 314 1001 303 1001 q 335 999 325 1000 l 269 625 q 247 623 260 624 q 221 622 235 622 q 195 623 208 622 q 172 625 182 624 l 238 999 z "},"(":{"ha":421,"x_min":174,"x_max":567,"o":"m 244 -232 q 194 -64 215 -169 q 174 174 174 42 q 178 294 174 232 q 194 422 183 357 q 245 625 213 526 q 317 809 278 724 q 397 963 356 894 q 475 1078 438 1032 q 494 1080 483 1079 q 519 1081 504 1081 q 544 1080 533 1081 q 567 1078 556 1079 q 508 990 546 1047 q 430 850 471 933 q 350 660 389 767 q 289 422 311 553 q 272 290 276 353 q 267 171 267 228 q 274 29 267 93 q 293 -85 282 -35 q 316 -173 304 -136 q 336 -232 328 -210 q 310 -233 322 -233 q 283 -233 297 -233 q 264 -233 274 -233 q 244 -232 254 -233 z "},")":{"ha":421,"x_min":-15,"x_max":378,"o":"m -15 -232 q 43 -144 6 -201 q 122 -4 81 -87 q 201 186 163 79 q 263 424 239 293 q 280 556 275 493 q 285 675 285 618 q 277 817 285 753 q 258 931 269 881 q 235 1019 247 982 q 215 1078 224 1056 q 242 1079 229 1079 q 268 1079 254 1079 q 288 1079 278 1079 q 307 1078 297 1079 q 357 910 336 1015 q 378 672 378 804 q 373 551 378 614 q 357 424 368 489 q 306 221 338 319 q 235 37 274 122 q 155 -117 196 -49 q 76 -232 114 -186 q 51 -234 61 -233 q 32 -235 42 -235 q 7 -234 18 -235 q -15 -232 -4 -233 z "},"*":{"ha":642,"x_min":188,"x_max":706,"o":"m 451 997 q 488 1001 469 1001 q 522 997 503 1001 l 499 826 q 478 824 488 824 q 457 824 468 824 q 435 824 446 824 q 413 826 424 824 l 451 997 m 188 785 q 201 821 193 804 q 221 853 210 838 l 375 804 q 336 722 363 761 l 188 785 m 344 689 q 376 665 360 678 q 404 638 392 653 l 276 501 q 226 544 246 518 l 344 689 m 439 638 q 475 665 456 651 q 517 692 494 679 l 585 546 q 551 520 567 531 q 518 503 536 510 l 439 638 m 697 853 q 706 804 706 828 q 704 785 706 792 l 535 724 q 524 806 524 761 l 697 853 z "},"+":{"ha":833,"x_min":200,"x_max":785,"o":"m 439 443 l 200 443 q 202 483 200 460 q 213 531 204 506 l 454 531 l 500 789 q 522 791 510 790 q 546 792 533 792 q 569 791 556 792 q 593 789 582 790 l 547 531 l 785 531 q 783 491 785 514 q 772 443 781 468 l 532 443 l 486 185 q 463 182 475 182 q 439 182 450 182 q 415 182 428 182 q 393 185 403 182 l 439 443 z "},",":{"ha":271,"x_min":8,"x_max":224,"o":"m 128 118 q 151 120 139 119 q 176 121 164 121 q 201 120 190 121 q 224 118 213 119 l 106 -157 q 79 -160 92 -160 q 56 -160 67 -160 q 31 -160 42 -160 q 8 -157 19 -160 l 128 118 z "},"-":{"ha":465,"x_min":132,"x_max":501,"o":"m 501 443 q 499 421 501 436 q 494 394 497 406 q 490 369 492 383 q 485 349 488 356 l 132 349 q 149 443 135 397 l 501 443 z "},".":{"ha":271,"x_min":76,"x_max":214,"o":"m 76 0 q 82 58 76 32 q 88 88 85 74 q 96 118 92 103 q 156 122 125 122 q 214 118 186 122 q 208 60 214 86 q 202 30 206 44 q 194 0 199 15 q 135 -4 158 -4 q 104 -3 119 -4 q 76 0 89 -3 z "},"/":{"ha":485,"x_min":40,"x_max":632,"o":"m 536 999 q 581 1003 557 1003 q 606 1002 592 1003 q 632 999 621 1001 l 135 0 q 108 -3 124 -3 q 82 -4 93 -4 q 40 0 58 -4 l 536 999 z "},":":{"ha":271,"x_min":76,"x_max":304,"o":"m 76 0 q 82 58 76 32 q 88 88 85 74 q 96 118 92 103 q 156 122 125 122 q 214 118 186 122 q 208 60 214 86 q 202 30 206 44 q 194 0 199 15 q 135 -4 158 -4 q 104 -3 119 -4 q 76 0 89 -3 m 167 514 q 172 572 167 546 q 178 602 175 588 q 186 632 182 617 q 246 636 215 636 q 304 632 276 636 q 299 574 304 600 q 292 544 296 558 q 285 514 289 529 q 225 510 249 510 q 194 510 210 510 q 167 514 179 511 z "},";":{"ha":271,"x_min":-18,"x_max":319,"o":"m 101 118 q 125 120 113 119 q 150 121 138 121 q 175 120 164 121 q 197 118 186 119 l 79 -157 q 53 -160 65 -160 q 29 -160 40 -160 q 4 -160 15 -160 q -18 -157 -7 -160 l 101 118 m 182 514 q 188 572 182 546 q 194 602 190 588 q 201 632 197 617 q 261 636 231 636 q 319 632 292 636 q 314 574 319 600 q 308 544 311 558 q 300 514 304 529 q 240 510 264 510 q 210 510 225 510 q 182 514 194 511 z "},"<":{"ha":833,"x_min":201,"x_max":819,"o":"m 819 776 q 818 748 819 764 q 813 716 817 732 q 807 688 810 700 q 803 672 804 676 l 308 478 l 735 289 q 729 235 736 265 q 717 190 722 204 l 201 432 q 206 483 201 454 q 219 533 211 513 l 819 776 z "},"=":{"ha":833,"x_min":181,"x_max":808,"o":"m 765 397 q 763 358 765 381 q 753 310 761 335 l 181 310 q 183 349 181 326 q 193 397 185 372 l 765 397 m 808 653 q 806 613 808 636 q 796 565 804 590 l 224 565 q 226 605 224 582 q 236 653 228 628 l 808 653 z "},">":{"ha":833,"x_min":172,"x_max":790,"o":"m 172 196 q 174 224 172 208 q 179 253 176 239 q 185 279 182 268 q 189 294 188 290 l 683 489 l 257 678 l 257 683 q 263 735 257 707 q 275 776 269 764 l 790 535 q 785 483 790 513 q 772 433 781 454 l 172 190 l 172 196 z "},"?":{"ha":640,"x_min":215,"x_max":706,"o":"m 326 500 l 375 515 q 462 552 421 529 q 533 606 503 575 q 580 674 563 636 q 597 760 597 713 q 546 876 597 836 q 407 915 494 915 q 306 906 346 915 q 225 882 265 896 q 220 914 221 896 q 217 953 219 932 l 215 968 q 326 995 278 988 q 435 1003 375 1003 q 553 983 503 1003 q 638 932 604 964 q 689 858 672 900 q 706 771 706 817 q 680 653 706 707 q 613 558 654 600 q 518 485 571 515 q 410 440 465 456 l 383 285 l 289 285 l 326 500 m 250 121 q 308 125 276 125 q 368 121 340 125 q 360 60 365 89 q 344 3 356 31 q 288 -1 317 -1 q 229 3 256 -1 q 235 65 231 35 q 250 121 239 94 z "},"@":{"ha":1342,"x_min":132,"x_max":1369,"o":"m 917 629 q 844 639 882 639 q 728 614 782 639 q 633 544 674 589 q 569 438 593 500 q 546 304 546 376 q 580 190 546 226 q 690 153 614 153 q 755 160 724 153 q 826 189 786 168 l 917 629 m 921 181 q 966 161 940 165 q 1014 157 992 157 q 1125 193 1076 157 q 1208 286 1174 229 q 1259 413 1242 343 q 1276 549 1276 482 q 1167 833 1276 736 q 860 931 1058 931 q 592 876 710 931 q 394 733 475 822 q 272 531 314 644 q 231 299 231 417 q 263 101 231 183 q 353 -35 296 18 q 487 -112 410 -87 q 653 -137 564 -137 q 776 -126 717 -137 q 883 -99 835 -115 q 894 -127 888 -110 q 904 -172 900 -144 q 787 -205 854 -193 q 629 -217 719 -217 q 435 -185 525 -217 q 277 -91 344 -154 q 171 68 210 -28 q 132 293 132 164 q 151 463 132 376 q 210 628 171 549 q 310 778 250 708 q 451 901 369 849 q 638 983 533 953 q 869 1014 742 1014 q 1067 985 975 1014 q 1226 899 1158 957 q 1331 754 1293 842 q 1369 549 1369 667 q 1345 379 1369 463 q 1275 230 1321 296 q 1162 123 1229 164 q 1007 82 1094 82 q 856 119 914 82 q 763 81 815 93 q 657 69 710 69 q 565 86 606 69 q 498 132 525 103 q 457 200 471 161 q 443 283 443 239 q 475 460 443 379 q 562 599 507 540 q 690 690 617 657 q 846 722 764 722 q 939 715 896 722 q 1028 694 982 707 l 921 181 z "},"A":{"ha":796,"x_min":60,"x_max":774,"o":"m 506 999 q 538 1001 517 1000 q 572 1001 560 1001 q 603 1001 588 1001 q 626 999 619 1000 l 774 0 q 751 -2 767 -1 q 721 -3 736 -3 q 694 -2 708 -3 q 669 0 679 -1 l 635 261 l 276 261 l 164 0 q 140 -2 153 -1 q 111 -3 126 -3 q 83 -2 97 -3 q 60 0 68 -1 l 506 999 m 622 350 l 550 894 l 314 350 l 622 350 z "},"B":{"ha":800,"x_min":143,"x_max":804,"o":"m 318 999 q 357 1003 332 1000 q 410 1008 382 1006 q 468 1013 439 1011 q 521 1014 497 1014 q 731 962 658 1014 q 804 807 804 910 q 788 708 804 753 q 743 628 771 663 q 679 570 715 593 q 604 535 643 547 q 670 513 639 529 q 726 471 701 497 q 764 408 750 444 q 778 324 778 371 q 743 167 778 232 q 650 62 708 103 q 516 2 592 21 q 358 -17 440 -17 q 240 -12 301 -17 q 143 0 179 -7 l 318 999 m 463 574 q 639 631 578 574 q 700 785 700 689 q 658 896 700 858 q 515 933 617 933 q 451 931 483 933 q 403 925 419 928 l 340 574 l 463 574 m 253 75 q 299 70 269 72 q 363 68 329 68 q 474 78 418 68 q 574 116 529 89 q 646 190 618 143 q 674 308 674 236 q 657 392 674 358 q 611 446 640 425 q 542 475 582 467 q 457 483 503 483 l 325 483 l 253 75 z "},"C":{"ha":806,"x_min":168,"x_max":910,"o":"m 783 36 q 665 -2 735 13 q 526 -17 596 -17 q 264 83 360 -17 q 168 372 168 183 q 199 606 168 490 q 296 812 231 721 q 461 959 361 903 q 700 1015 561 1015 q 833 1003 779 1015 q 910 982 886 990 q 898 940 904 957 q 878 900 892 924 q 802 921 843 913 q 697 929 761 929 q 506 883 586 929 q 373 761 425 838 q 296 585 321 685 q 271 379 271 486 q 343 149 271 228 q 550 69 415 69 q 665 82 611 69 q 758 115 718 94 q 783 36 779 83 z "},"D":{"ha":947,"x_min":143,"x_max":954,"o":"m 318 999 q 365 1004 338 1001 q 420 1009 392 1007 q 475 1013 449 1011 q 519 1014 501 1014 q 728 983 644 1014 q 862 898 811 953 q 933 768 913 843 q 954 606 954 693 q 924 377 954 489 q 825 178 893 265 q 649 37 757 90 q 388 -17 542 -17 q 316 -15 353 -17 q 247 -12 279 -14 q 187 -6 214 -10 q 143 0 160 -3 l 318 999 m 254 83 q 282 81 264 82 q 321 78 300 79 q 363 76 342 76 q 401 75 385 75 q 596 114 511 75 q 738 222 681 153 q 824 384 794 290 q 854 586 854 478 q 838 730 854 667 q 783 837 822 793 q 679 904 744 881 q 517 928 614 928 q 458 925 490 928 q 401 918 425 922 l 254 83 z "},"E":{"ha":721,"x_min":143,"x_max":832,"o":"m 318 999 l 832 999 q 817 911 832 954 l 400 911 l 340 574 l 675 574 q 672 530 675 553 q 660 486 668 507 l 325 486 l 256 88 l 685 88 q 680 42 683 61 q 668 0 676 22 l 143 0 l 318 999 z "},"F":{"ha":678,"x_min":143,"x_max":789,"o":"m 318 999 l 789 999 q 784 953 788 975 q 774 911 781 931 l 400 911 l 340 574 l 664 574 q 659 528 663 550 q 649 486 656 506 l 325 486 l 240 0 q 217 -2 229 -1 q 190 -3 206 -3 q 163 -2 176 -3 q 143 0 150 -1 l 318 999 z "},"G":{"ha":911,"x_min":168,"x_max":910,"o":"m 789 515 q 813 517 799 517 q 839 518 826 518 q 865 517 853 518 q 886 515 876 517 l 801 39 q 744 17 776 26 q 676 -1 713 7 q 602 -12 640 -8 q 526 -17 564 -17 q 377 10 443 -17 q 265 88 311 38 q 193 211 218 139 q 168 374 168 283 q 198 611 168 496 q 292 816 228 726 q 458 960 357 906 q 703 1015 560 1015 q 831 1003 776 1015 q 910 982 886 990 q 898 940 904 957 q 878 899 892 922 q 802 919 843 911 q 697 928 761 928 q 506 882 586 928 q 373 760 425 836 q 296 585 321 685 q 271 379 271 486 q 343 149 271 228 q 550 69 415 69 q 637 76 594 69 q 715 99 679 83 l 789 515 z "},"H":{"ha":924,"x_min":144,"x_max":956,"o":"m 319 999 q 340 1001 328 1000 q 368 1001 353 1001 q 393 1001 379 1001 q 415 999 407 1000 l 340 574 l 785 574 l 860 999 q 881 1001 868 1000 q 908 1001 893 1001 q 933 1001 919 1001 q 956 999 947 1000 l 781 0 q 758 -2 772 -1 q 731 -3 744 -3 q 703 -2 715 -3 q 685 0 692 -1 l 769 486 l 325 486 l 240 0 q 218 -2 232 -1 q 190 -3 204 -3 q 163 -2 175 -3 q 144 0 151 -1 l 319 999 z "},"I":{"ha":383,"x_min":144,"x_max":415,"o":"m 319 999 q 343 1001 329 1000 q 368 1001 357 1001 q 394 1001 383 1001 q 415 999 406 1000 l 240 0 q 217 -2 229 -1 q 190 -3 206 -3 q 164 -2 176 -3 q 144 0 151 -1 l 319 999 z "},"J":{"ha":524,"x_min":40,"x_max":563,"o":"m 453 914 l 279 914 q 283 958 281 938 q 293 999 286 979 l 563 999 l 422 199 q 388 96 411 138 q 331 29 364 54 q 253 -6 297 4 q 160 -17 210 -17 q 91 -12 118 -17 q 40 3 64 -7 q 50 50 43 29 q 67 89 57 71 q 107 77 82 83 q 160 71 132 71 q 219 76 192 71 q 267 95 246 81 q 304 138 289 110 q 328 211 319 165 l 453 914 z "},"K":{"ha":792,"x_min":144,"x_max":913,"o":"m 319 999 q 343 1001 329 1000 q 368 1001 357 1001 q 394 1001 383 1001 q 415 999 406 1000 l 240 0 q 217 -2 229 -1 q 190 -3 206 -3 q 164 -2 176 -3 q 144 0 151 -1 l 319 999 m 392 511 l 803 999 q 826 1001 814 1000 q 851 1001 838 1001 q 881 1001 865 1001 q 913 999 897 1000 l 504 514 l 781 0 q 751 -2 765 -1 q 721 -3 736 -3 q 694 -2 706 -3 q 671 0 682 -1 l 392 511 z "},"L":{"ha":681,"x_min":143,"x_max":661,"o":"m 318 999 q 340 1001 326 1000 q 368 1001 354 1001 q 394 1001 383 1001 q 415 999 406 1000 l 256 88 l 661 88 q 656 42 660 64 q 644 0 653 21 l 143 0 l 318 999 z "},"M":{"ha":1101,"x_min":115,"x_max":1096,"o":"m 339 999 q 365 1001 347 1000 q 399 1001 383 1001 q 428 1001 414 1001 q 451 999 442 1000 l 604 336 l 981 999 q 1008 1001 989 1000 q 1042 1001 1026 1001 q 1071 1001 1056 1001 q 1096 999 1086 1000 l 971 0 q 948 -2 960 -1 q 922 -3 936 -3 q 894 -2 907 -3 q 874 0 881 -1 l 985 840 l 622 207 q 602 204 611 204 q 583 204 593 204 q 565 204 574 204 q 547 207 556 204 l 396 840 l 211 0 q 190 -2 200 -1 q 164 -3 179 -3 q 136 -2 150 -3 q 115 0 122 -1 l 339 999 z "},"N":{"ha":933,"x_min":143,"x_max":965,"o":"m 318 999 q 344 1001 328 1000 q 372 1001 361 1001 q 397 1001 385 1001 q 418 999 410 1000 l 726 158 l 872 999 q 894 1001 881 1000 q 919 1001 907 1001 q 944 1001 931 1001 q 965 999 957 1000 l 792 0 q 768 -2 783 -1 q 739 -3 753 -3 q 713 -2 728 -3 q 690 0 699 -1 l 382 836 l 238 0 q 215 -2 226 -1 q 189 -3 204 -3 q 162 -2 174 -3 q 143 0 150 -1 l 318 999 z "},"O":{"ha":978,"x_min":168,"x_max":985,"o":"m 485 -17 q 347 10 406 -17 q 248 86 288 38 q 188 201 208 135 q 168 346 168 268 q 204 606 168 483 q 306 819 240 728 q 463 963 371 910 q 667 1015 554 1015 q 807 987 747 1015 q 906 909 867 958 q 965 794 946 860 q 985 653 985 728 q 949 388 985 511 q 847 176 913 265 q 688 35 781 86 q 485 -17 596 -17 m 500 71 q 652 116 582 71 q 774 238 722 161 q 856 419 826 315 q 885 643 885 524 q 872 758 885 706 q 830 847 858 810 q 758 906 801 885 q 651 928 714 928 q 496 883 567 928 q 374 762 425 839 q 296 581 324 685 q 268 356 268 476 q 324 148 268 225 q 500 71 379 71 z "},"P":{"ha":771,"x_min":143,"x_max":826,"o":"m 325 485 q 372 480 351 481 q 419 479 393 479 q 644 545 564 479 q 724 749 724 611 q 668 890 724 850 q 492 931 613 931 q 442 928 468 931 q 401 924 417 926 l 325 485 m 318 999 q 356 1003 332 1000 q 408 1009 381 1007 q 463 1013 436 1011 q 511 1015 490 1015 q 638 1001 579 1015 q 738 958 696 988 q 803 881 779 928 q 826 765 826 833 q 793 596 826 667 q 704 480 760 525 q 576 413 649 435 q 425 392 504 392 q 364 393 394 392 q 310 397 333 394 l 240 0 q 217 -2 229 -1 q 190 -3 206 -3 q 163 -2 176 -3 q 143 0 150 -1 l 318 999 z "},"Q":{"ha":978,"x_min":168,"x_max":985,"o":"m 872 -100 q 861 -144 868 -124 q 840 -186 854 -164 l 550 -126 q 563 -83 554 -103 q 582 -43 571 -64 l 872 -100 m 485 -17 q 347 10 406 -17 q 248 86 288 38 q 188 201 208 135 q 168 346 168 268 q 204 606 168 483 q 306 819 240 728 q 463 963 371 910 q 667 1015 554 1015 q 807 987 747 1015 q 906 909 867 958 q 965 794 946 860 q 985 653 985 728 q 949 388 985 511 q 847 176 913 265 q 688 35 781 86 q 485 -17 596 -17 m 500 71 q 652 116 582 71 q 774 238 722 161 q 856 419 826 315 q 885 643 885 524 q 872 758 885 706 q 830 847 858 810 q 758 906 801 885 q 651 928 714 928 q 496 883 567 928 q 374 762 425 839 q 296 581 324 685 q 268 356 268 476 q 324 148 268 225 q 500 71 379 71 z "},"R":{"ha":785,"x_min":143,"x_max":807,"o":"m 319 1003 q 508 1015 419 1015 q 619 1003 565 1015 q 715 962 674 990 q 782 888 757 933 q 807 776 807 843 q 783 648 807 703 q 720 552 758 593 q 635 483 682 511 q 544 433 589 454 l 751 0 q 722 -3 736 -3 q 694 -3 708 -3 q 666 -3 679 -3 q 642 0 653 -3 l 418 467 l 474 490 q 546 524 506 504 q 621 576 586 544 q 679 651 656 607 q 703 758 703 696 q 506 933 703 933 q 456 932 478 933 q 403 926 435 931 l 240 0 q 215 -2 229 -1 q 189 -3 201 -3 q 163 -2 175 -3 q 143 0 151 -1 l 319 1003 z "},"S":{"ha":739,"x_min":78,"x_max":797,"o":"m 115 111 q 212 83 165 94 q 324 72 258 72 q 533 133 464 72 q 603 293 603 194 q 596 348 603 322 q 572 397 589 374 q 524 442 554 421 q 450 488 494 464 q 363 537 401 513 q 296 592 324 561 q 253 660 268 622 q 239 749 239 697 q 263 856 239 807 q 332 940 288 904 q 439 995 376 975 q 579 1015 501 1015 q 706 1003 653 1015 q 797 976 760 992 q 784 931 793 954 q 764 890 775 907 q 683 919 732 907 q 586 932 635 932 q 406 889 469 932 q 342 763 342 846 q 349 707 342 732 q 375 660 357 682 q 422 617 393 638 q 490 576 450 597 q 585 520 544 547 q 653 463 626 493 q 694 394 681 432 q 708 310 708 357 q 678 169 708 231 q 597 67 649 108 q 474 4 544 25 q 322 -17 403 -17 q 177 -5 235 -17 q 78 22 119 7 q 93 67 83 43 q 115 111 103 92 z "},"T":{"ha":679,"x_min":192,"x_max":814,"o":"m 447 913 l 192 913 q 207 999 192 956 l 814 999 q 799 913 814 956 l 543 913 l 383 0 q 360 -2 374 -1 q 335 -3 347 -3 q 308 -2 321 -3 q 288 0 294 -1 l 447 913 z "},"U":{"ha":917,"x_min":183,"x_max":960,"o":"m 307 999 q 331 1001 317 1000 q 358 1001 346 1001 q 383 1001 372 1001 q 404 999 394 1000 l 299 396 q 288 317 292 354 q 283 249 283 279 q 326 114 283 153 q 471 75 369 75 q 587 97 539 75 q 668 159 635 118 q 722 260 701 200 q 757 396 743 319 l 863 999 q 885 1001 872 1000 q 913 1001 897 1001 q 937 1001 924 1001 q 960 999 950 1000 l 849 368 q 802 203 832 275 q 725 83 772 132 q 611 8 678 33 q 454 -17 544 -17 q 183 250 183 -17 q 188 314 183 281 q 199 383 192 347 l 307 999 z "},"V":{"ha":839,"x_min":232,"x_max":949,"o":"m 232 999 q 254 1001 239 1000 q 285 1001 269 1001 q 312 1001 297 1001 q 336 999 326 1000 l 456 104 l 842 999 q 867 1001 853 1000 q 896 1001 881 1001 q 925 1001 910 1001 q 949 999 940 1000 l 500 0 q 469 -2 489 -1 q 436 -3 449 -3 q 403 -2 421 -3 q 378 0 385 -1 l 232 999 z "},"W":{"ha":1240,"x_min":239,"x_max":1343,"o":"m 239 999 q 261 1001 247 1000 q 289 1001 275 1001 q 317 1001 303 1001 q 340 999 332 1000 l 369 119 l 728 999 q 758 1001 736 1000 q 792 1001 779 1001 q 820 1001 803 1001 q 847 999 838 1000 l 915 119 l 1239 999 q 1263 1001 1250 1000 q 1290 1001 1275 1001 q 1319 1001 1304 1001 q 1343 999 1335 1000 l 956 0 q 925 -2 944 -1 q 893 -3 906 -3 q 859 -2 878 -3 q 832 0 840 -1 l 764 858 l 410 0 q 381 -2 400 -1 q 347 -3 361 -3 q 312 -2 333 -3 q 283 0 290 -1 l 239 999 z "},"X":{"ha":817,"x_min":38,"x_max":925,"o":"m 396 531 l 242 999 q 267 1001 256 1000 q 294 1001 279 1001 q 317 1001 306 1001 q 340 999 329 1000 l 493 522 l 144 0 q 118 -2 133 -1 q 89 -3 103 -3 q 62 -2 76 -3 q 38 0 47 -1 l 396 531 m 506 522 l 824 999 q 849 1001 835 1000 q 874 1001 863 1001 q 901 1001 889 1001 q 925 999 913 1000 l 604 519 l 789 0 q 765 -3 778 -3 q 740 -3 753 -3 q 717 -2 729 -3 q 696 0 704 -1 l 506 522 z "},"Y":{"ha":749,"x_min":201,"x_max":874,"o":"m 397 369 l 201 999 q 225 1001 210 1000 q 254 1001 240 1001 q 282 1001 267 1001 q 307 999 297 1000 l 460 474 l 768 999 q 793 1001 779 1000 q 822 1001 807 1001 q 851 1001 836 1001 q 874 999 865 1000 l 490 364 l 428 0 q 405 -2 417 -1 q 379 -3 393 -3 q 351 -2 364 -3 q 332 0 339 -1 l 397 369 z "},"Z":{"ha":732,"x_min":56,"x_max":836,"o":"m 56 11 l 675 911 l 236 911 q 241 956 238 933 q 251 999 244 979 l 832 999 l 836 989 l 214 88 l 692 88 q 686 42 689 63 q 675 0 683 21 l 61 0 l 56 11 z "},"[":{"ha":467,"x_min":90,"x_max":582,"o":"m 314 1039 l 582 1039 q 577 998 581 1021 q 568 960 574 975 l 394 960 l 199 -156 l 372 -156 q 367 -193 371 -171 q 358 -233 364 -215 l 90 -233 l 314 1039 z "},"\\":{"ha":483,"x_min":203,"x_max":442,"o":"m 203 999 q 251 1003 229 1003 q 293 999 276 1003 l 442 0 q 397 -4 418 -4 q 374 -3 386 -4 q 353 0 361 -3 l 203 999 z "},"]":{"ha":442,"x_min":-1,"x_max":490,"o":"m 186 -154 l 382 961 l 208 961 q 213 999 210 976 q 222 1039 217 1021 l 490 1039 l 267 -233 l -1 -233 q 3 -192 0 -215 q 13 -154 7 -169 l 186 -154 z "},"^":{"ha":726,"x_min":178,"x_max":722,"o":"m 479 999 q 508 1002 493 1001 q 533 1003 522 1003 q 590 999 565 1003 l 722 517 l 629 517 l 521 922 l 271 517 l 178 517 l 479 999 z "},"_":{"ha":668,"x_min":-17,"x_max":660,"o":"m 660 -33 q 647 -110 660 -72 l -14 -110 q -14 -72 -17 -92 q -1 -33 -11 -53 l 660 -33 z "},"`":{"ha":694,"x_min":376,"x_max":635,"o":"m 376 1004 q 408 1006 392 1006 q 442 1007 425 1007 q 473 1007 457 1007 q 504 1004 489 1007 l 635 824 q 588 819 610 819 q 532 824 557 819 l 376 1004 z "},"a":{"ha":753,"x_min":125,"x_max":758,"o":"m 688 297 q 663 163 674 218 q 653 58 653 108 q 653 27 653 39 q 657 0 654 15 q 634 -2 649 -1 q 610 -3 619 -3 q 587 -2 601 -3 q 565 0 572 -1 q 561 69 561 35 q 563 93 561 79 q 567 123 564 107 q 573 154 569 139 q 579 182 576 169 q 542 119 567 153 q 483 54 518 85 q 406 3 449 24 q 311 -17 363 -17 q 172 45 219 -17 q 125 218 125 107 q 155 403 125 313 q 243 566 185 494 q 388 681 301 638 q 589 725 475 725 q 681 717 632 725 q 758 699 729 710 l 688 297 m 657 635 q 561 644 619 644 q 428 613 490 644 q 321 526 367 582 q 249 396 275 471 q 222 233 222 321 q 251 109 222 154 q 336 64 281 64 q 434 97 388 64 q 518 186 481 131 q 583 314 556 242 q 625 464 610 386 l 657 635 z "},"b":{"ha":775,"x_min":124,"x_max":764,"o":"m 226 74 q 271 65 246 68 q 318 63 296 63 q 446 87 383 63 q 558 160 508 111 q 637 281 607 208 q 667 447 667 353 q 626 591 667 540 q 515 642 586 642 q 440 626 478 642 q 370 572 403 610 q 311 474 338 535 q 269 324 285 413 l 226 74 m 249 724 q 272 860 263 803 q 282 967 282 917 q 282 996 282 986 q 281 1021 282 1006 q 305 1023 289 1022 q 331 1024 321 1024 q 353 1024 339 1024 q 374 1022 367 1024 q 375 995 375 1007 q 375 972 375 983 q 372 931 375 956 q 366 878 369 906 q 358 822 363 850 q 349 771 353 793 l 318 596 q 412 688 357 651 q 553 725 467 725 q 705 658 646 725 q 764 471 764 590 q 731 274 764 364 q 636 120 697 185 q 488 19 575 56 q 294 -17 401 -17 q 247 -15 272 -17 q 199 -8 222 -12 q 156 1 175 -4 q 124 10 136 6 l 249 724 z "},"c":{"ha":636,"x_min":135,"x_max":696,"o":"m 588 90 q 599 53 594 75 q 603 15 603 32 q 559 1 583 7 q 510 -8 535 -4 q 463 -15 485 -12 q 425 -17 440 -17 q 205 58 275 -17 q 135 264 135 132 q 163 432 135 349 q 243 580 190 515 q 373 685 296 644 q 550 725 450 725 q 633 716 594 725 q 696 699 672 707 q 687 656 694 679 q 669 618 679 632 q 609 636 644 628 q 536 644 574 644 q 401 610 458 644 q 307 522 344 575 q 251 403 269 468 q 232 275 232 338 q 284 115 232 167 q 436 64 336 64 q 515 72 475 64 q 588 90 554 79 z "},"d":{"ha":746,"x_min":128,"x_max":799,"o":"m 689 297 q 665 163 675 218 q 654 58 654 108 q 655 27 654 39 q 658 0 656 15 q 635 -2 650 -1 q 611 -3 621 -3 q 588 -2 603 -3 q 567 0 574 -1 q 563 22 564 11 q 563 53 563 33 q 564 78 563 63 q 568 113 565 94 q 574 149 571 131 q 582 182 578 167 q 545 119 569 153 q 486 54 521 85 q 408 3 451 24 q 314 -17 365 -17 q 175 45 222 -17 q 128 218 128 107 q 158 403 128 313 q 246 566 188 494 q 391 681 304 638 q 592 725 478 725 q 632 723 610 725 q 671 718 654 721 q 695 857 685 797 q 706 967 706 917 q 706 996 706 986 q 704 1021 706 1006 q 728 1023 713 1022 q 754 1024 744 1024 q 776 1024 763 1024 q 797 1022 790 1024 q 799 995 799 1007 q 799 972 799 983 q 797 931 799 956 q 790 878 794 906 q 782 824 786 851 q 774 774 778 796 l 689 297 m 660 635 q 564 644 622 644 q 431 613 493 644 q 324 526 369 582 q 251 396 278 471 q 225 233 225 321 q 254 109 225 154 q 339 64 283 64 q 437 97 390 64 q 521 186 483 131 q 585 314 558 242 q 628 464 613 386 l 660 635 z "},"e":{"ha":681,"x_min":132,"x_max":713,"o":"m 229 278 q 278 121 229 178 q 432 64 326 64 q 488 68 458 64 q 543 78 517 72 q 593 92 569 85 q 633 104 617 99 q 644 67 640 89 q 647 29 647 46 q 599 13 628 21 q 539 -2 571 4 q 474 -12 507 -8 q 411 -17 440 -17 q 278 6 332 -17 q 192 66 225 28 q 146 155 160 104 q 132 263 132 206 q 161 430 132 347 q 242 578 190 513 q 367 684 294 643 q 528 725 440 725 q 666 680 619 725 q 713 571 713 635 q 683 468 713 511 q 603 395 654 425 q 481 346 551 365 q 331 314 411 326 l 229 297 l 229 278 m 319 388 q 538 450 460 410 q 617 563 617 490 q 590 623 617 600 q 513 646 564 646 q 419 623 463 646 q 341 563 376 600 q 280 476 306 525 q 242 375 254 426 l 319 388 z "},"f":{"ha":443,"x_min":-122,"x_max":644,"o":"m 265 631 l 150 631 q 152 669 150 650 q 163 708 154 688 l 278 708 l 289 771 q 374 967 313 901 q 551 1032 435 1032 q 606 1028 582 1032 q 644 1017 629 1024 q 631 974 638 989 q 615 939 624 958 q 585 949 601 944 q 547 953 569 953 q 488 944 514 953 q 441 915 461 936 q 406 858 421 894 q 381 767 390 822 l 369 708 l 554 708 q 552 670 554 689 q 542 631 550 651 l 357 631 l 233 -78 q 149 -278 210 -217 q -29 -339 88 -339 q -83 -335 -60 -339 q -122 -324 -107 -331 q -109 -281 -115 -296 q -94 -246 -103 -265 q -64 -255 -81 -251 q -25 -258 -47 -258 q 35 -251 8 -258 q 83 -225 63 -244 q 117 -169 103 -206 q 142 -74 132 -132 l 265 631 z "},"g":{"ha":743,"x_min":57,"x_max":758,"o":"m 579 182 q 542 119 567 153 q 483 54 518 85 q 406 3 449 24 q 311 -17 363 -17 q 172 45 219 -17 q 125 218 125 107 q 155 403 125 313 q 243 566 185 494 q 388 681 301 638 q 589 725 475 725 q 681 717 632 725 q 758 699 729 710 l 633 0 q 588 -147 618 -83 q 506 -253 557 -210 q 384 -317 456 -296 q 217 -339 313 -339 q 138 -331 185 -339 q 57 -308 92 -324 q 65 -267 57 -289 q 81 -231 72 -244 q 148 -248 111 -240 q 229 -256 185 -256 q 363 -238 308 -256 q 453 -187 417 -221 q 510 -103 489 -153 q 544 14 531 -53 l 579 182 m 657 635 q 561 644 619 644 q 428 613 490 644 q 321 526 367 582 q 249 396 275 471 q 222 233 222 321 q 252 109 222 154 q 336 64 282 64 q 434 97 388 64 q 518 186 481 131 q 583 314 556 242 q 625 464 610 386 l 657 635 z "},"h":{"ha":771,"x_min":122,"x_max":750,"o":"m 249 724 q 272 860 263 803 q 282 967 282 917 q 282 996 282 986 q 281 1021 282 1006 q 305 1023 289 1022 q 331 1024 321 1024 q 353 1024 339 1024 q 374 1022 367 1024 q 375 995 375 1007 q 375 972 375 983 q 372 931 375 956 q 366 878 369 906 q 358 822 363 850 q 349 771 353 793 l 315 589 q 360 640 335 615 q 418 684 386 665 q 487 714 450 703 q 567 725 524 725 q 701 679 653 725 q 750 544 750 633 q 747 497 750 524 q 740 447 744 471 l 663 0 q 640 -2 654 -1 q 615 -3 625 -3 q 592 -2 607 -3 q 571 0 578 -1 l 644 419 q 651 470 649 444 q 654 515 654 496 q 621 610 654 581 q 529 640 588 640 q 448 624 488 640 q 374 571 408 607 q 313 476 339 535 q 272 333 286 417 l 214 0 q 191 -2 206 -1 q 167 -3 176 -3 q 144 -2 158 -3 q 122 0 129 -1 l 249 724 z "},"i":{"ha":368,"x_min":153,"x_max":399,"o":"m 264 631 l 178 631 q 181 669 178 650 q 190 708 185 689 l 368 708 l 244 0 q 221 -2 236 -1 q 196 -3 206 -3 q 174 -2 188 -3 q 153 0 160 -1 l 264 631 m 261 882 q 265 913 263 894 q 269 943 267 931 q 276 971 272 954 q 282 999 279 988 q 313 1001 294 1000 q 343 1001 331 1001 q 371 1001 354 1001 q 399 999 388 1000 q 396 971 397 988 q 392 943 394 954 q 385 913 389 931 q 378 882 381 894 q 350 880 367 881 q 322 879 333 879 q 292 880 310 879 q 261 882 274 881 z "},"j":{"ha":365,"x_min":-119,"x_max":399,"o":"m 264 631 l 178 631 q 181 669 178 650 q 190 708 185 689 l 368 708 l 225 -103 q 152 -278 204 -218 q -6 -339 100 -339 q -119 -321 -76 -339 q -109 -282 -117 -306 q -93 -244 -101 -258 q -51 -255 -76 -251 q -7 -258 -26 -258 q 83 -226 46 -258 q 133 -115 119 -194 l 264 631 m 261 882 q 265 913 263 894 q 269 943 267 931 q 276 971 272 954 q 282 999 279 988 q 313 1001 294 1000 q 343 1001 331 1001 q 371 1001 354 1001 q 399 999 388 1000 q 396 971 397 988 q 392 943 394 954 q 385 913 389 931 q 378 882 381 894 q 350 880 367 881 q 322 879 333 879 q 292 880 310 879 q 261 882 274 881 z "},"k":{"ha":661,"x_min":122,"x_max":700,"o":"m 340 365 l 558 625 q 585 667 575 646 q 600 708 596 689 q 647 713 625 713 q 700 708 675 713 q 679 656 694 681 q 638 600 664 632 l 442 371 l 638 0 q 588 -4 610 -4 q 533 0 560 -4 l 340 365 m 250 724 q 274 860 264 803 q 283 967 283 917 q 283 996 283 986 q 282 1021 283 1006 q 306 1023 290 1022 q 332 1024 322 1024 q 354 1024 340 1024 q 375 1022 368 1024 q 376 995 376 1007 q 376 972 376 983 q 374 931 376 956 q 367 878 371 906 q 359 822 364 850 q 350 771 354 793 l 214 0 q 190 -2 206 -1 q 167 -3 175 -3 q 143 -2 157 -3 q 122 0 129 -1 l 250 724 z "},"l":{"ha":385,"x_min":143,"x_max":376,"o":"m 250 724 q 274 860 264 803 q 283 967 283 917 q 283 996 283 986 q 282 1021 283 1006 q 306 1023 290 1022 q 332 1024 322 1024 q 354 1024 340 1024 q 375 1022 368 1024 q 376 995 376 1007 q 376 972 376 983 q 374 931 376 956 q 367 878 371 906 q 359 822 364 850 q 350 771 354 793 l 242 164 q 238 128 238 143 q 244 93 238 106 q 260 74 250 81 q 281 67 269 68 q 303 65 292 65 q 337 68 319 65 q 364 74 354 71 q 372 38 369 58 q 372 1 374 18 q 324 -9 351 -6 q 275 -12 296 -12 q 226 -8 250 -12 q 184 10 203 -3 q 154 44 165 22 q 143 100 143 67 q 147 143 143 118 l 250 724 z "},"m":{"ha":1150,"x_min":122,"x_max":1129,"o":"m 194 414 q 219 548 208 493 q 229 653 229 603 q 228 684 229 672 q 225 711 228 696 q 248 713 233 713 q 272 714 263 714 q 295 713 281 714 q 317 711 310 713 q 320 689 319 700 q 321 658 321 678 q 319 622 321 639 q 315 589 318 604 q 417 685 356 644 q 556 725 478 725 q 669 685 631 725 q 715 578 708 644 q 827 685 764 646 q 968 725 890 725 q 1129 544 1129 725 q 1126 497 1129 524 q 1119 447 1124 471 l 1042 0 q 1019 -2 1033 -1 q 994 -3 1004 -3 q 972 -2 986 -3 q 950 0 957 -1 l 1024 419 q 1031 470 1028 444 q 1033 515 1033 496 q 1008 610 1033 581 q 928 640 983 640 q 853 624 890 640 q 785 570 817 607 q 726 475 753 533 q 686 333 700 417 l 628 0 q 605 -2 619 -1 q 581 -3 590 -3 q 558 -2 572 -3 q 536 0 543 -1 l 610 419 q 617 470 614 444 q 619 515 619 496 q 594 610 619 581 q 514 640 569 640 q 440 624 476 640 q 371 570 403 607 q 313 475 339 533 q 272 333 286 417 l 214 0 q 191 -2 206 -1 q 167 -3 176 -3 q 144 -2 158 -3 q 122 0 129 -1 l 194 414 z "},"n":{"ha":789,"x_min":140,"x_max":768,"o":"m 213 414 q 237 548 226 493 q 247 653 247 603 q 247 684 247 672 q 243 711 246 696 q 266 713 251 713 q 290 714 281 714 q 313 713 299 714 q 335 711 328 713 q 338 687 338 700 q 339 654 339 674 q 333 585 339 618 q 321 526 328 551 q 358 590 333 556 q 418 654 383 624 q 497 705 453 685 q 592 725 540 725 q 722 679 675 725 q 768 544 768 633 q 765 497 768 524 q 758 447 763 471 l 681 0 q 658 -2 672 -1 q 633 -3 643 -3 q 610 -2 625 -3 q 589 0 596 -1 l 663 419 q 669 471 667 444 q 672 517 672 497 q 640 612 672 583 q 558 640 608 640 q 463 608 508 640 q 381 520 418 575 q 316 394 343 465 q 275 244 289 322 l 232 0 q 209 -2 224 -1 q 185 -3 194 -3 q 162 -2 176 -3 q 140 0 147 -1 l 213 414 z "},"o":{"ha":774,"x_min":135,"x_max":774,"o":"m 392 64 q 520 101 467 64 q 608 196 574 139 q 660 322 643 253 q 676 454 676 392 q 634 595 676 546 q 517 644 592 644 q 388 607 442 644 q 300 513 335 569 q 249 386 265 456 q 232 254 232 317 q 274 113 232 163 q 392 64 317 64 m 382 -17 q 199 52 264 -17 q 135 253 135 121 q 158 408 135 325 q 228 561 181 490 q 351 678 276 632 q 526 725 425 725 q 709 656 644 725 q 774 456 774 588 q 751 301 774 383 q 680 147 728 218 q 558 30 632 76 q 382 -17 483 -17 z "},"p":{"ha":775,"x_min":63,"x_max":764,"o":"m 226 74 q 271 65 246 68 q 318 63 296 63 q 446 87 383 63 q 558 160 508 111 q 637 281 607 208 q 667 447 667 353 q 626 591 667 540 q 515 642 585 642 q 440 626 478 642 q 370 572 403 610 q 311 474 338 535 q 269 324 285 413 l 226 74 m 194 414 q 219 548 210 493 q 229 653 229 603 q 228 684 229 672 q 225 711 228 696 q 248 713 233 713 q 272 714 263 714 q 295 713 281 714 q 317 711 310 713 q 320 689 319 700 q 321 658 321 678 q 315 593 321 621 q 411 687 356 649 q 553 725 467 725 q 705 658 646 725 q 764 471 764 590 q 731 274 764 364 q 636 120 697 185 q 488 19 575 56 q 294 -17 401 -17 q 253 -15 275 -17 q 210 -10 232 -12 l 156 -328 q 133 -330 149 -329 q 110 -331 117 -331 q 85 -330 100 -331 q 63 -328 71 -329 l 194 414 z "},"q":{"ha":749,"x_min":128,"x_max":763,"o":"m 581 181 q 544 117 568 151 q 485 53 519 83 q 408 3 451 24 q 314 -17 365 -17 q 175 45 222 -17 q 128 218 128 107 q 158 403 128 313 q 246 566 188 494 q 391 681 304 638 q 592 725 478 725 q 683 717 635 725 q 763 700 732 710 l 582 -328 q 559 -330 575 -329 q 536 -331 543 -331 q 512 -330 526 -331 q 489 -328 497 -329 l 581 181 m 660 635 q 564 644 626 644 q 431 613 493 644 q 324 526 369 582 q 251 396 278 471 q 225 233 225 321 q 254 109 225 154 q 339 64 283 64 q 437 97 390 64 q 521 186 483 131 q 585 314 558 242 q 628 464 613 386 l 660 635 z "},"r":{"ha":478,"x_min":122,"x_max":582,"o":"m 194 414 q 219 548 208 493 q 229 653 229 603 q 228 684 229 672 q 225 711 228 696 q 248 713 233 713 q 272 714 263 714 q 295 713 281 714 q 317 711 310 713 q 320 689 319 700 q 321 658 321 678 q 319 622 321 639 q 315 590 318 606 q 359 637 336 615 q 409 675 382 658 q 468 701 436 692 q 540 711 500 711 q 563 710 550 711 q 582 707 575 710 q 578 665 582 688 q 560 619 574 643 q 544 623 557 621 q 521 625 532 625 q 445 610 483 625 q 374 563 407 596 q 315 478 340 531 q 275 350 289 425 l 214 0 q 191 -2 206 -1 q 167 -3 176 -3 q 144 -2 158 -3 q 122 0 129 -1 l 194 414 z "},"s":{"ha":590,"x_min":67,"x_max":618,"o":"m 304 347 q 259 367 283 356 q 214 399 235 379 q 179 449 193 419 q 165 521 165 478 q 238 669 165 614 q 438 725 310 725 q 551 710 503 725 q 618 685 599 696 q 603 646 611 664 q 583 608 594 628 q 522 631 564 618 q 426 644 479 644 q 263 531 263 644 q 287 465 263 489 q 374 415 311 440 l 388 410 q 446 385 415 399 q 502 351 476 372 q 544 301 528 331 q 561 226 561 271 q 538 115 561 161 q 474 40 514 69 q 380 -3 433 11 q 265 -17 326 -17 q 148 -6 201 -17 q 67 18 94 4 q 94 100 74 65 q 130 87 108 93 q 176 76 151 81 q 224 69 200 72 q 268 67 247 67 q 410 97 360 67 q 461 204 461 128 q 431 285 461 260 q 347 331 401 310 l 304 347 z "},"t":{"ha":454,"x_min":139,"x_max":540,"o":"m 254 631 l 139 631 q 141 669 139 650 q 151 708 143 688 l 267 708 q 278 785 274 744 q 283 879 283 826 l 283 894 q 332 906 306 901 q 374 910 358 910 q 375 883 375 894 q 375 860 375 871 q 369 791 375 833 q 357 708 364 749 l 540 708 q 538 670 540 689 q 528 631 536 651 l 346 631 l 264 169 q 261 151 261 160 q 261 135 261 142 q 286 77 261 89 q 342 65 311 65 q 428 79 388 65 q 431 42 431 61 q 431 0 432 24 q 311 -15 378 -15 q 206 15 246 -15 q 167 117 167 46 q 171 165 167 138 l 254 631 z "},"u":{"ha":771,"x_min":149,"x_max":776,"o":"m 236 708 q 259 710 244 710 q 283 711 274 711 q 306 710 292 711 q 328 708 321 710 l 254 289 q 247 238 250 264 q 244 192 244 211 q 276 97 244 125 q 358 68 308 68 q 453 101 408 68 q 536 188 499 133 q 601 315 574 243 q 642 464 628 386 l 685 708 q 708 710 693 710 q 732 711 722 711 q 755 710 740 711 q 776 708 769 710 l 704 294 q 680 160 690 215 q 669 56 669 106 q 670 24 669 36 q 674 -3 671 13 q 651 -5 665 -4 q 626 -6 636 -6 q 603 -5 618 -6 q 582 -3 589 -4 q 578 54 578 19 q 583 124 578 90 q 596 182 589 157 q 558 119 583 153 q 499 54 533 85 q 420 3 464 24 q 325 -17 376 -17 q 195 29 242 -17 q 149 164 149 75 q 151 211 149 185 q 158 261 154 238 l 236 708 z "},"v":{"ha":663,"x_min":147,"x_max":738,"o":"m 147 708 q 196 713 172 713 q 222 712 211 713 q 244 708 232 711 l 346 103 l 607 606 q 628 663 622 633 q 635 703 635 692 l 635 708 q 683 713 660 713 q 738 708 713 713 l 738 703 q 731 658 738 681 q 701 596 724 636 l 372 0 q 326 -4 349 -4 q 301 -3 315 -4 q 278 0 288 -3 l 147 708 z "},"w":{"ha":1017,"x_min":161,"x_max":1078,"o":"m 161 708 q 208 713 186 713 q 261 708 236 713 l 342 114 l 576 708 q 599 712 586 711 q 622 713 613 713 q 664 708 644 713 l 754 114 l 958 617 q 975 669 971 647 q 979 703 979 692 l 979 708 q 1001 712 992 711 q 1024 713 1011 713 q 1078 708 1053 713 l 1078 703 q 1069 660 1078 683 q 1043 597 1061 638 l 783 0 q 735 -4 760 -4 q 710 -3 724 -4 q 688 0 697 -3 l 596 554 l 374 0 q 324 -4 350 -4 q 299 -3 313 -4 q 276 0 286 -3 l 161 708 z "},"x":{"ha":635,"x_min":51,"x_max":704,"o":"m 51 6 q 63 59 53 33 q 101 122 72 85 l 300 372 l 185 708 q 233 713 211 713 q 257 712 247 713 q 281 708 267 711 l 393 369 l 189 100 q 158 51 169 74 q 146 6 147 29 l 146 0 q 96 -4 121 -4 q 72 -3 81 -4 q 51 0 64 -3 l 51 6 m 404 371 l 569 600 q 601 658 590 629 q 613 703 613 686 l 613 708 q 635 712 625 711 q 658 713 646 713 q 683 712 674 713 q 704 708 692 711 l 704 703 q 651 571 703 642 l 501 376 l 632 0 q 578 -4 603 -4 q 533 0 554 -4 l 404 371 z "},"y":{"ha":651,"x_min":26,"x_max":721,"o":"m 319 -3 q 288 -2 304 -3 q 265 0 272 -1 l 150 708 q 172 712 163 711 q 194 713 182 713 q 249 708 224 713 l 346 54 l 594 606 q 615 663 608 635 q 622 703 622 692 l 622 708 q 669 713 647 713 q 721 708 696 713 l 721 703 q 714 658 721 681 q 688 596 707 636 l 343 -149 q 288 -246 315 -208 q 233 -305 261 -283 q 175 -335 204 -326 q 113 -343 146 -343 q 26 -331 68 -343 q 33 -286 26 -307 q 50 -253 39 -265 q 81 -260 64 -257 q 118 -262 99 -262 q 158 -256 139 -262 q 197 -230 176 -250 q 238 -173 217 -210 q 288 -75 260 -136 l 319 -3 z "},"z":{"ha":604,"x_min":58,"x_max":685,"o":"m 58 22 l 531 631 l 193 631 q 195 669 193 650 q 206 708 197 688 l 682 708 l 685 690 l 213 78 l 569 78 q 567 40 569 58 q 557 0 565 21 l 60 0 l 58 22 z "},"{":{"ha":522,"x_min":133,"x_max":639,"o":"m 228 151 q 236 233 236 199 q 211 331 236 293 q 133 406 186 369 q 206 449 176 428 q 258 499 236 471 q 292 565 279 526 q 315 657 306 603 l 336 779 q 367 895 347 846 q 419 978 386 944 q 498 1027 451 1011 q 610 1043 544 1043 q 624 1042 617 1043 q 639 1042 632 1042 q 635 1001 639 1024 q 625 964 632 979 q 539 953 572 964 q 485 916 506 942 q 451 848 464 890 q 428 743 439 806 l 417 683 q 391 569 404 614 q 360 493 378 524 q 316 442 342 463 q 253 404 290 422 q 313 345 293 376 q 333 256 333 314 q 329 197 333 229 q 318 122 325 165 l 308 65 q 298 1 301 29 q 294 -51 294 -28 q 324 -133 294 -110 q 428 -156 353 -156 q 424 -193 428 -171 q 414 -233 421 -215 q 249 -190 300 -233 q 199 -54 199 -147 q 201 -10 199 -33 q 208 39 204 13 l 228 151 z "},"|":{"ha":454,"x_min":144,"x_max":469,"o":"m 375 1078 q 399 1080 386 1079 q 425 1081 413 1081 q 450 1080 438 1081 q 469 1078 463 1079 l 239 -233 q 218 -235 231 -235 q 193 -236 206 -236 q 165 -235 178 -236 q 144 -233 153 -235 l 375 1078 z "},"}":{"ha":522,"x_min":22,"x_max":528,"o":"m 244 124 q 270 238 257 193 q 301 314 283 283 q 345 364 319 344 q 408 403 371 383 q 348 462 368 431 q 328 551 328 493 q 332 610 328 578 q 343 685 336 642 l 353 742 q 363 806 360 778 q 367 858 367 835 q 338 940 367 917 q 233 963 308 963 q 237 1000 233 978 q 247 1040 240 1022 q 412 997 361 1040 q 463 861 463 954 q 460 817 463 840 q 453 768 457 794 l 433 656 q 425 574 425 607 q 450 476 425 514 q 528 401 475 438 q 455 358 485 379 q 403 308 425 336 q 369 242 382 281 q 346 150 356 204 l 325 28 q 294 -88 314 -39 q 242 -171 275 -137 q 163 -220 210 -204 q 51 -236 117 -236 q 37 -235 44 -236 q 22 -235 29 -235 q 26 -194 22 -217 q 36 -157 29 -172 q 122 -146 89 -157 q 176 -109 156 -135 q 210 -41 197 -83 q 233 64 222 1 l 244 124 z "},"~":{"ha":631,"x_min":126,"x_max":700,"o":"m 126 553 q 165 584 142 569 q 213 610 188 599 q 263 628 238 622 q 313 635 289 635 q 372 626 344 635 q 429 607 400 618 q 485 588 457 596 q 542 579 513 579 q 598 590 568 579 q 667 635 628 601 q 700 561 696 600 q 619 511 660 529 q 528 493 579 493 q 468 501 497 493 q 411 521 439 510 q 356 540 383 532 q 301 549 328 549 q 236 535 271 549 q 164 489 201 522 q 140 517 149 501 q 126 553 131 533 z "},"¡":{"ha":374,"x_min":82,"x_max":364,"o":"m 213 436 q 235 438 224 438 q 258 439 246 439 q 281 438 271 439 q 301 436 292 438 l 181 -278 q 158 -280 169 -279 q 135 -281 147 -281 q 109 -280 122 -281 q 82 -278 96 -279 l 213 436 m 238 603 q 243 661 238 635 q 249 691 246 676 q 257 721 253 706 q 311 725 283 725 q 339 724 325 725 q 364 721 353 724 q 358 663 364 689 q 352 633 356 647 q 344 603 349 618 q 290 599 319 599 q 238 603 260 599 z "},"¢":{"ha":833,"x_min":228,"x_max":789,"o":"m 443 -11 q 280 78 332 7 q 228 264 228 150 q 250 416 228 340 q 316 554 272 492 q 424 660 360 617 q 569 718 488 704 l 600 886 q 679 886 639 894 l 650 725 q 730 715 693 724 q 789 699 767 706 q 780 656 788 679 q 763 618 772 632 q 702 636 738 628 q 629 644 667 644 q 494 610 551 644 q 400 522 438 575 q 344 403 363 468 q 325 275 325 338 q 377 115 325 167 q 529 64 429 64 q 608 72 568 64 q 681 90 647 79 q 692 53 688 75 q 696 15 696 32 q 654 3 678 8 q 606 -7 631 -3 q 559 -14 582 -11 q 521 -17 536 -17 l 496 -164 q 456 -169 475 -169 q 417 -164 436 -168 l 443 -11 z "},"£":{"ha":833,"x_min":153,"x_max":869,"o":"m 153 14 l 190 46 q 301 191 261 107 q 342 379 342 275 q 341 408 342 393 q 339 440 340 424 l 218 440 q 222 479 218 460 q 232 518 225 499 l 331 518 q 326 580 328 549 q 324 640 324 611 q 342 778 324 713 q 402 892 361 843 q 506 971 443 942 q 657 1000 569 1000 q 790 985 736 1000 q 869 958 844 969 q 855 917 863 933 q 833 878 847 901 q 751 906 797 894 q 657 917 704 917 q 546 895 590 917 q 474 836 501 874 q 434 747 446 799 q 422 635 422 696 q 425 580 422 610 q 431 518 428 550 l 722 518 q 719 479 722 499 q 708 440 715 460 l 439 440 q 440 419 439 429 q 440 400 440 410 q 419 241 440 321 q 328 88 399 161 l 749 88 q 743 43 746 65 q 733 0 740 21 l 156 0 l 153 14 z "},"¤":{"ha":833,"x_min":143,"x_max":849,"o":"m 256 315 q 215 396 229 351 q 200 489 200 440 q 216 584 200 539 q 260 667 232 629 l 143 783 q 172 822 154 807 q 207 844 189 838 l 322 728 q 402 767 358 753 q 494 782 446 782 q 588 767 543 782 q 668 726 632 753 l 786 844 q 822 818 806 833 q 849 786 838 803 l 731 667 q 774 584 758 629 q 790 489 790 539 q 775 396 790 440 q 732 315 760 351 l 846 201 q 819 166 835 182 q 789 139 804 150 l 671 254 q 590 212 635 226 q 494 197 544 197 q 399 212 444 197 q 318 254 354 226 l 204 142 q 165 169 181 153 q 143 204 150 186 l 256 315 m 494 278 q 576 294 539 278 q 642 340 614 311 q 685 406 669 368 q 700 489 700 444 q 685 572 700 533 q 642 640 669 611 q 576 685 614 668 q 494 701 539 701 q 413 685 450 701 q 348 640 375 668 q 306 572 321 611 q 290 489 290 533 q 306 406 290 444 q 348 340 321 368 q 413 294 375 311 q 494 278 450 278 z "},"¥":{"ha":833,"x_min":129,"x_max":901,"o":"m 401 240 l 133 240 q 147 321 129 276 l 417 321 l 438 439 l 168 439 q 182 519 164 475 l 411 519 l 229 999 q 253 1001 238 1000 q 282 1001 268 1001 q 310 1001 294 1001 q 336 999 326 1000 l 499 544 l 793 999 q 819 1001 804 1000 q 850 1001 835 1001 q 878 1001 864 1001 q 901 999 893 1000 l 582 519 l 822 519 q 820 479 825 500 q 808 439 815 458 l 532 439 l 511 321 l 788 321 q 785 281 790 301 q 774 240 781 260 l 497 240 l 456 0 q 433 -2 444 -1 q 407 -3 421 -3 q 379 -2 392 -3 q 360 0 367 -1 l 401 240 z "},"¦":{"ha":218,"x_min":21,"x_max":343,"o":"m 250 1078 q 273 1080 260 1079 q 297 1081 286 1081 q 322 1080 310 1081 q 343 1078 333 1079 l 263 617 q 241 615 253 615 q 217 614 229 614 q 190 615 203 614 q 169 617 178 615 l 250 1078 m 101 228 q 124 230 111 229 q 149 231 138 231 q 173 230 161 231 q 194 228 185 229 l 114 -233 q 92 -235 104 -235 q 68 -236 81 -236 q 42 -235 54 -236 q 21 -233 29 -235 l 101 228 z "},"§":{"ha":732,"x_min":136,"x_max":753,"o":"m 286 363 q 201 410 233 382 q 169 493 169 438 q 199 596 169 550 q 269 682 229 642 q 246 722 256 699 q 236 772 236 744 q 261 875 236 832 q 327 946 286 918 q 422 986 368 974 q 533 999 475 999 q 655 988 596 999 q 753 960 714 976 q 738 920 746 936 q 717 886 729 904 q 632 912 683 900 q 531 924 581 924 q 461 918 497 924 q 396 898 425 913 q 348 859 367 883 q 329 799 329 835 q 338 754 329 772 q 363 724 347 736 q 399 703 379 711 q 439 686 418 694 l 585 632 q 631 612 608 624 q 669 585 653 600 q 697 549 686 569 q 707 501 707 528 q 681 404 707 450 q 618 319 654 358 q 672 204 672 274 q 646 104 672 146 q 577 35 619 63 q 481 -5 535 8 q 372 -18 426 -18 q 306 -15 340 -18 q 240 -6 272 -11 q 180 6 207 -1 q 136 21 153 13 q 149 61 142 44 q 169 96 157 78 q 261 69 204 82 q 369 57 318 57 q 436 62 400 57 q 503 81 472 67 q 556 121 535 96 q 578 188 578 146 q 569 227 578 210 q 547 258 561 244 q 513 281 532 271 q 474 297 494 290 l 286 363 m 550 357 q 593 411 574 381 q 613 478 613 442 q 589 529 613 513 q 526 561 565 546 l 372 618 q 348 628 361 622 q 328 638 335 633 q 283 584 304 615 q 263 517 263 553 q 285 465 263 481 q 349 433 308 449 l 550 357 z "},"¨":{"ha":694,"x_min":304,"x_max":703,"o":"m 304 851 q 310 911 306 882 q 325 969 314 940 q 381 974 351 974 q 438 969 410 974 q 432 910 436 939 q 417 851 428 881 q 361 847 389 847 q 304 851 331 847 m 569 851 q 575 911 571 882 q 590 969 579 940 q 646 974 617 974 q 703 969 675 974 q 697 910 701 939 q 682 851 693 881 q 626 847 654 847 q 569 851 596 847 z "},"©":{"ha":1200,"x_min":164,"x_max":1194,"o":"m 817 306 q 833 272 828 286 q 846 236 839 257 q 778 213 818 222 q 699 203 739 203 q 585 224 636 203 q 499 283 535 244 q 445 376 464 322 q 426 494 426 429 q 446 617 426 561 q 501 713 465 672 q 586 775 536 753 q 697 797 636 797 q 778 792 749 797 q 835 778 807 786 q 828 739 832 754 q 815 704 825 724 q 760 716 786 713 q 701 719 733 719 q 561 658 607 719 q 515 494 515 597 q 565 335 515 390 q 706 279 615 279 q 764 286 735 279 q 817 306 793 293 m 679 64 q 856 98 778 64 q 988 191 933 132 q 1071 329 1042 250 q 1100 499 1100 408 q 1071 668 1100 589 q 988 806 1042 747 q 856 899 933 865 q 679 933 778 933 q 503 899 581 933 q 371 806 425 865 q 288 668 317 747 q 258 499 258 589 q 288 329 258 408 q 371 191 317 250 q 503 98 425 132 q 679 64 581 64 m 679 -18 q 469 22 564 -18 q 306 130 374 61 q 201 293 239 199 q 164 499 164 388 q 201 703 164 608 q 306 867 239 799 q 469 976 374 936 q 679 1015 564 1015 q 890 976 794 1015 q 1052 868 985 938 q 1157 704 1119 799 q 1194 499 1194 610 q 1157 293 1194 388 q 1052 130 1119 199 q 890 22 985 61 q 679 -18 794 -18 z "},"ª":{"ha":694,"x_min":199,"x_max":713,"o":"m 644 589 q 634 525 638 553 q 631 469 631 497 q 631 445 631 457 q 633 419 632 433 q 609 417 624 418 q 588 417 594 417 q 567 417 581 417 q 546 419 553 418 q 542 478 542 449 q 543 504 542 486 q 550 544 544 522 q 515 494 535 519 q 472 449 496 469 q 417 417 447 429 q 353 406 388 406 q 238 453 278 406 q 199 590 199 501 q 223 738 199 665 q 294 867 247 810 q 410 960 340 925 q 571 994 479 994 q 647 988 607 994 q 713 971 688 982 l 644 589 m 617 917 q 550 922 593 922 q 449 899 496 922 q 367 833 401 875 q 312 733 332 790 q 292 607 292 675 q 311 513 292 547 q 372 478 331 478 q 446 503 411 478 q 509 572 481 529 q 559 669 538 614 q 592 785 581 725 l 617 917 z "},"«":{"ha":746,"x_min":118,"x_max":824,"o":"m 118 378 l 408 678 q 439 681 421 681 q 471 682 457 682 q 525 678 497 682 l 235 372 l 418 64 q 365 60 390 60 q 313 64 338 60 l 118 378 m 417 378 l 707 678 q 738 681 719 681 q 769 682 756 682 q 824 678 796 682 l 533 372 l 717 64 q 664 60 689 60 q 611 64 636 60 l 417 378 z "},"¬":{"ha":833,"x_min":194,"x_max":767,"o":"m 767 506 l 767 128 q 746 126 760 126 q 721 125 732 125 q 694 126 710 125 q 672 128 679 126 l 672 411 l 197 411 q 195 432 196 418 q 194 457 194 446 q 195 483 194 468 q 197 506 196 499 l 767 506 z "},"­":{"ha":490,"x_min":132,"x_max":501,"o":"m 501 443 q 499 421 501 436 q 494 394 497 406 q 490 369 492 383 q 485 349 488 356 l 132 349 q 149 443 135 397 l 501 443 z "},"®":{"ha":1200,"x_min":164,"x_max":1194,"o":"m 519 775 q 584 781 551 779 q 656 783 617 783 q 731 776 693 783 q 799 749 768 768 q 850 699 831 731 q 869 619 869 668 q 859 563 869 588 q 833 518 849 538 q 799 485 818 499 q 761 463 779 471 l 924 240 q 893 238 904 238 q 872 238 882 238 q 850 238 860 238 q 831 239 840 238 l 647 489 l 679 501 q 715 518 696 508 q 750 542 733 528 q 777 574 767 556 q 788 615 788 592 q 751 686 788 663 q 663 710 714 710 q 601 706 632 710 l 601 239 q 585 237 594 238 q 560 236 575 236 q 535 237 544 236 q 519 239 526 238 l 519 775 m 679 64 q 856 98 778 64 q 988 191 933 132 q 1071 329 1042 250 q 1100 499 1100 408 q 1071 668 1100 589 q 988 806 1042 747 q 856 899 933 865 q 679 933 778 933 q 503 899 581 933 q 371 806 425 865 q 288 668 317 747 q 258 499 258 589 q 288 329 258 408 q 371 191 317 250 q 503 98 425 132 q 679 64 581 64 m 679 -18 q 469 22 564 -18 q 306 130 374 61 q 201 293 239 199 q 164 499 164 388 q 201 703 164 608 q 306 867 239 799 q 469 976 374 936 q 679 1015 564 1015 q 890 976 794 1015 q 1052 868 985 938 q 1157 704 1119 799 q 1194 499 1194 610 q 1157 293 1194 388 q 1052 130 1119 199 q 890 22 985 61 q 679 -18 794 -18 z "},"¯":{"ha":694,"x_min":278,"x_max":671,"o":"m 671 951 q 668 908 671 932 q 658 867 665 885 l 278 867 q 281 909 278 886 q 290 951 283 932 l 671 951 z "},"°":{"ha":506,"x_min":164,"x_max":561,"o":"m 164 811 q 180 889 164 853 q 223 951 196 925 q 286 993 250 978 q 363 1008 322 1008 q 439 993 403 1008 q 502 951 475 978 q 545 889 529 925 q 561 811 561 853 q 545 733 561 769 q 502 671 529 697 q 439 629 475 644 q 363 614 403 614 q 286 629 322 614 q 223 671 250 644 q 180 733 196 697 q 164 811 164 769 m 363 689 q 447 724 414 689 q 479 811 479 758 q 447 899 479 864 q 363 933 414 933 q 278 899 311 933 q 246 811 246 864 q 278 724 246 758 q 363 689 311 689 z "},"±":{"ha":833,"x_min":146,"x_max":785,"o":"m 439 443 l 200 443 q 202 483 200 460 q 213 531 204 506 l 454 531 l 500 789 q 522 791 510 790 q 546 792 533 792 q 569 791 556 792 q 593 789 582 790 l 547 531 l 785 531 q 783 491 785 514 q 772 443 781 468 l 532 443 l 486 185 q 463 182 475 182 q 439 182 450 182 q 415 182 428 182 q 393 185 403 182 l 439 443 m 753 96 q 738 1 753 50 l 146 1 q 161 96 146 47 l 753 96 z "},"²":{"ha":625,"x_min":149,"x_max":585,"o":"m 149 436 l 376 644 q 421 686 400 667 q 458 726 442 706 q 483 771 474 747 q 492 822 492 794 q 401 907 492 907 q 331 897 369 907 q 269 875 293 886 q 257 909 263 892 q 250 944 251 926 q 330 972 290 961 q 421 982 369 982 q 539 944 493 982 q 585 833 585 906 q 573 765 585 796 q 541 706 561 733 q 493 651 521 678 q 433 594 465 624 l 331 503 l 564 503 q 561 463 565 482 q 550 426 557 444 l 151 426 l 149 436 z "},"³":{"ha":625,"x_min":165,"x_max":607,"o":"m 304 711 l 471 910 l 261 910 q 274 982 261 944 l 603 982 l 607 968 l 435 763 q 494 744 469 758 q 535 711 519 731 q 558 669 550 692 q 565 625 565 646 q 546 532 565 572 q 494 465 526 492 q 420 424 463 438 q 331 410 378 410 q 235 419 278 410 q 165 439 192 428 q 174 473 168 456 q 194 510 181 490 q 261 492 226 499 q 326 485 296 485 q 381 490 354 485 q 427 510 407 496 q 460 549 447 525 q 472 610 472 572 q 444 680 472 654 q 364 706 417 706 q 335 705 350 706 q 308 703 319 704 l 304 711 z "},"´":{"ha":694,"x_min":386,"x_max":644,"o":"m 517 1004 q 548 1007 532 1007 q 579 1007 564 1007 q 613 1006 596 1007 q 644 1004 629 1006 l 489 824 q 433 819 464 819 q 386 824 411 819 l 517 1004 z "},"µ":{"ha":803,"x_min":53,"x_max":801,"o":"m 225 708 q 249 710 233 710 q 272 711 264 711 q 295 710 281 711 q 318 708 310 710 l 256 336 q 247 236 247 282 q 281 110 247 154 q 396 65 314 65 q 465 79 426 65 q 538 122 503 93 q 602 193 574 150 q 640 296 631 236 l 708 708 q 732 710 717 710 q 754 711 747 711 q 778 710 764 711 q 801 708 793 710 l 683 0 q 662 -2 675 -1 q 640 -3 649 -3 q 619 -3 632 -3 q 599 0 606 -3 q 601 44 599 19 q 606 89 603 68 q 516 15 569 47 q 383 -17 463 -17 q 278 8 325 -17 q 211 74 231 33 l 146 -328 q 122 -330 138 -329 q 99 -331 107 -331 q 75 -330 90 -331 q 53 -328 60 -329 l 225 708 z "},"¶":{"ha":756,"x_min":146,"x_max":804,"o":"m 415 435 q 312 456 361 439 q 226 503 263 472 q 167 580 189 533 q 146 689 146 626 q 245 928 146 849 q 535 1008 344 1008 q 567 1008 550 1008 q 601 1007 585 1008 l 425 -8 q 378 -6 403 -8 q 338 0 354 -4 l 415 435 m 718 1007 q 768 1005 749 1007 q 804 999 788 1003 l 629 0 q 591 -6 610 -4 q 542 -8 572 -8 l 718 1007 z "},"·":{"ha":285,"x_min":139,"x_max":276,"o":"m 139 325 q 144 383 139 357 q 151 413 147 399 q 158 443 154 428 q 218 447 188 447 q 276 443 249 447 q 271 385 276 411 q 265 355 268 369 q 257 325 261 340 q 197 321 221 321 q 167 322 182 321 q 139 325 151 322 z "},"¸":{"ha":694,"x_min":185,"x_max":483,"o":"m 236 -147 l 329 31 l 404 31 l 342 -85 q 365 -83 349 -83 q 453 -115 424 -83 q 483 -189 483 -147 q 468 -258 483 -231 q 428 -303 453 -286 q 371 -327 403 -319 q 304 -335 339 -335 q 231 -326 261 -335 q 185 -308 200 -317 q 194 -273 188 -293 q 210 -240 200 -253 q 253 -254 226 -247 q 300 -261 279 -261 q 332 -260 315 -261 q 363 -252 349 -258 q 385 -233 376 -246 q 394 -199 394 -221 q 372 -158 394 -171 q 310 -144 350 -144 q 274 -147 292 -144 q 240 -153 257 -150 l 236 -147 z "},"¹":{"ha":625,"x_min":193,"x_max":569,"o":"m 343 501 l 407 871 l 256 810 q 240 842 244 824 q 235 878 236 861 l 499 988 l 519 988 l 435 501 l 569 501 q 556 426 567 464 l 193 426 q 196 464 193 446 q 208 501 199 482 l 343 501 z "},"º":{"ha":694,"x_min":194,"x_max":713,"o":"m 404 478 q 502 506 461 478 q 569 579 543 535 q 608 677 596 624 q 621 779 621 731 q 589 888 621 850 q 503 925 557 925 q 405 897 446 925 q 338 824 364 868 q 300 726 313 779 q 288 624 288 672 q 319 514 288 550 q 404 478 350 478 m 400 406 q 249 461 303 406 q 194 622 194 517 q 212 744 194 679 q 267 866 229 810 q 365 960 306 922 q 511 997 425 997 q 660 942 608 997 q 713 781 713 886 q 695 658 713 724 q 640 537 678 593 q 543 443 603 481 q 400 406 483 406 z "},"»":{"ha":788,"x_min":75,"x_max":781,"o":"m 368 374 l 182 678 q 235 682 208 682 q 288 678 263 682 l 482 364 l 188 64 q 159 60 175 61 q 129 60 143 60 q 75 64 101 60 l 368 374 m 667 374 l 481 678 q 533 682 507 682 q 586 678 561 682 l 781 364 l 486 64 q 458 60 474 61 q 428 60 442 60 q 374 64 400 60 l 667 374 z "},"¼":{"ha":1458,"x_min":193,"x_max":1304,"o":"m 343 501 l 407 871 l 256 810 q 240 842 244 824 q 235 878 236 861 l 499 988 l 519 988 l 435 501 l 569 501 q 556 426 567 464 l 193 426 q 196 464 193 446 q 208 501 199 482 l 343 501 m 1172 982 q 1202 984 1183 983 q 1232 985 1221 985 q 1259 984 1246 985 q 1286 982 1272 983 l 444 0 q 417 -3 429 -3 q 392 -3 404 -3 q 360 -3 379 -3 q 329 0 340 -3 l 1172 982 m 854 126 l 1153 576 q 1194 565 1175 572 q 1226 551 1213 558 l 993 193 l 1151 193 l 1174 313 q 1215 317 1194 317 q 1235 316 1228 317 q 1254 313 1243 315 l 1233 193 l 1301 193 q 1300 153 1304 176 q 1288 115 1296 131 l 1219 115 l 1199 -1 l 1165 -1 q 1144 -1 1156 -1 q 1119 1 1133 0 l 1139 115 l 860 115 l 854 126 z "},"½":{"ha":1458,"x_min":193,"x_max":1319,"o":"m 343 501 l 407 871 l 256 810 q 240 842 244 824 q 235 878 236 861 l 499 988 l 519 988 l 435 501 l 569 501 q 556 426 567 464 l 193 426 q 196 464 193 446 q 208 501 199 482 l 343 501 m 1161 982 q 1191 984 1172 983 q 1221 985 1210 985 q 1248 984 1235 985 q 1275 982 1261 983 l 433 0 q 406 -3 418 -3 q 381 -3 393 -3 q 349 -3 368 -3 q 318 0 329 -3 l 1161 982 m 883 11 l 1111 219 q 1156 261 1135 242 q 1192 301 1176 281 q 1217 346 1208 322 q 1226 397 1226 369 q 1136 482 1226 482 q 1066 472 1104 482 q 1004 450 1028 461 q 992 484 997 467 q 985 519 986 501 q 1065 547 1025 536 q 1156 557 1104 557 q 1274 519 1228 557 q 1319 408 1319 481 q 1308 340 1319 371 q 1276 281 1296 308 q 1228 226 1256 253 q 1168 169 1200 199 l 1065 78 l 1299 78 q 1296 38 1300 57 q 1285 1 1292 19 l 886 1 l 883 11 z "},"¾":{"ha":1458,"x_min":185,"x_max":1294,"o":"m 324 711 l 490 910 l 281 910 q 293 982 281 944 l 622 982 l 626 968 l 454 763 q 514 744 489 758 q 554 711 539 731 q 577 669 569 692 q 585 625 585 646 q 565 532 585 572 q 514 465 546 492 q 440 424 482 438 q 350 410 397 410 q 254 419 297 410 q 185 439 211 428 q 194 473 188 456 q 214 510 200 490 q 281 492 246 499 q 346 485 315 485 q 400 490 374 485 q 447 510 426 496 q 479 549 467 525 q 492 610 492 572 q 464 680 492 654 q 383 706 436 706 q 354 705 369 706 q 328 703 339 704 l 324 711 m 1161 982 q 1191 984 1172 983 q 1221 985 1210 985 q 1248 984 1235 985 q 1275 982 1261 983 l 433 0 q 406 -3 418 -3 q 381 -3 393 -3 q 349 -3 368 -3 q 318 0 329 -3 l 1161 982 m 844 126 l 1143 576 q 1184 565 1165 572 q 1217 551 1203 558 l 983 193 l 1142 193 l 1164 313 q 1206 317 1185 317 q 1226 316 1218 317 q 1244 313 1233 315 l 1224 193 l 1292 193 q 1290 153 1294 176 q 1278 115 1286 131 l 1210 115 l 1189 -1 l 1156 -1 q 1135 -1 1146 -1 q 1110 1 1124 0 l 1129 115 l 850 115 l 844 126 z "},"¿":{"ha":640,"x_min":132,"x_max":622,"o":"m 622 -244 q 511 -272 560 -264 q 403 -279 463 -279 q 284 -260 335 -279 q 199 -208 233 -240 q 149 -135 165 -176 q 132 -47 132 -93 q 158 70 132 17 q 225 166 183 124 q 319 238 267 208 q 428 283 372 268 l 454 439 l 549 439 l 511 224 l 463 208 q 376 171 417 193 q 305 118 335 149 q 258 49 275 88 q 240 -36 240 11 q 292 -152 240 -112 q 431 -192 343 -192 q 532 -182 492 -192 q 613 -158 572 -172 q 617 -190 617 -172 q 621 -229 618 -208 l 622 -244 m 469 603 q 477 664 472 635 q 493 721 482 693 q 550 725 519 725 q 608 721 581 725 q 603 659 607 689 q 588 603 599 629 q 529 599 560 599 q 499 599 514 599 q 469 603 483 600 z "},"À":{"ha":796,"x_min":60,"x_max":774,"o":"m 506 999 q 538 1001 517 1000 q 572 1001 560 1001 q 603 1001 588 1001 q 626 999 619 1000 l 774 0 q 751 -2 767 -1 q 721 -3 736 -3 q 694 -2 708 -3 q 669 0 679 -1 l 635 261 l 276 261 l 164 0 q 140 -2 153 -1 q 111 -3 126 -3 q 83 -2 97 -3 q 60 0 68 -1 l 506 999 m 622 350 l 550 894 l 314 350 l 622 350 m 376 1235 q 446 1239 410 1239 q 510 1235 481 1239 l 638 1081 q 613 1077 624 1078 q 588 1076 601 1076 q 529 1081 551 1076 l 376 1235 z "},"Á":{"ha":796,"x_min":60,"x_max":797,"o":"m 506 999 q 538 1001 517 1000 q 572 1001 560 1001 q 603 1001 588 1001 q 626 999 619 1000 l 774 0 q 751 -2 767 -1 q 721 -3 736 -3 q 694 -2 708 -3 q 669 0 679 -1 l 635 261 l 276 261 l 164 0 q 140 -2 153 -1 q 111 -3 126 -3 q 83 -2 97 -3 q 60 0 68 -1 l 506 999 m 622 350 l 550 894 l 314 350 l 622 350 m 658 1235 q 725 1239 692 1239 q 763 1238 743 1239 q 797 1235 782 1238 l 592 1081 q 525 1076 564 1076 q 478 1081 500 1076 l 658 1235 z "},"Â":{"ha":796,"x_min":60,"x_max":774,"o":"m 506 999 q 538 1001 517 1000 q 572 1001 560 1001 q 603 1001 588 1001 q 626 999 619 1000 l 774 0 q 751 -2 767 -1 q 721 -3 736 -3 q 694 -2 708 -3 q 669 0 679 -1 l 635 261 l 276 261 l 164 0 q 140 -2 153 -1 q 111 -3 126 -3 q 83 -2 97 -3 q 60 0 68 -1 l 506 999 m 622 350 l 550 894 l 314 350 l 622 350 m 538 1235 q 566 1238 550 1238 q 594 1239 582 1239 q 646 1235 621 1239 l 765 1081 q 714 1076 740 1076 q 664 1081 693 1076 l 588 1175 l 471 1079 q 438 1076 454 1076 q 410 1076 421 1076 q 381 1077 399 1076 q 353 1081 364 1078 l 538 1235 z "},"Ã":{"ha":796,"x_min":60,"x_max":789,"o":"m 506 999 q 538 1001 517 1000 q 572 1001 560 1001 q 603 1001 588 1001 q 626 999 619 1000 l 774 0 q 751 -2 767 -1 q 721 -3 736 -3 q 694 -2 708 -3 q 669 0 679 -1 l 635 261 l 276 261 l 164 0 q 140 -2 153 -1 q 111 -3 126 -3 q 83 -2 97 -3 q 60 0 68 -1 l 506 999 m 622 350 l 550 894 l 314 350 l 622 350 m 383 1119 q 363 1146 372 1131 q 350 1176 354 1161 q 405 1219 374 1200 q 476 1239 436 1239 q 531 1231 507 1239 q 578 1214 556 1224 q 623 1197 600 1204 q 674 1189 646 1189 q 714 1197 697 1189 q 757 1226 731 1204 q 775 1200 764 1217 q 789 1168 786 1183 q 733 1126 765 1146 q 661 1107 701 1107 q 607 1115 631 1107 q 561 1132 583 1122 q 517 1149 539 1142 q 468 1157 494 1157 q 425 1147 443 1157 q 383 1119 407 1138 z "},"Ä":{"ha":796,"x_min":60,"x_max":796,"o":"m 506 999 q 538 1001 517 1000 q 572 1001 560 1001 q 603 1001 588 1001 q 626 999 619 1000 l 774 0 q 751 -2 767 -1 q 721 -3 736 -3 q 694 -2 708 -3 q 669 0 679 -1 l 635 261 l 276 261 l 164 0 q 140 -2 153 -1 q 111 -3 126 -3 q 83 -2 97 -3 q 60 0 68 -1 l 506 999 m 622 350 l 550 894 l 314 350 l 622 350 m 364 1081 q 369 1144 364 1113 q 385 1204 375 1176 q 446 1208 418 1208 q 506 1204 481 1208 q 485 1081 506 1139 q 424 1076 456 1076 q 364 1081 393 1076 m 654 1081 q 660 1144 654 1113 q 675 1204 667 1175 q 736 1208 704 1208 q 796 1204 767 1208 q 790 1140 796 1172 q 775 1081 785 1108 q 714 1076 742 1076 q 654 1081 679 1076 z "},"Å":{"ha":796,"x_min":60,"x_max":774,"o":"m 504 996 q 445 1045 465 1011 q 425 1124 425 1079 q 439 1193 425 1161 q 476 1249 453 1225 q 533 1287 500 1274 q 606 1300 567 1300 q 711 1259 675 1300 q 747 1160 747 1218 q 715 1058 747 1103 q 626 996 682 1014 l 774 0 q 751 -2 767 -1 q 721 -3 736 -3 q 694 -2 708 -3 q 669 0 679 -1 l 635 261 l 276 261 l 164 0 q 140 -2 153 -1 q 111 -3 126 -3 q 83 -2 97 -3 q 60 0 68 -1 l 504 996 m 622 350 l 550 894 l 314 350 l 622 350 m 576 1050 q 644 1081 619 1050 q 669 1153 669 1111 q 652 1213 669 1189 q 596 1236 635 1236 q 526 1207 551 1236 q 501 1133 501 1178 q 519 1074 501 1097 q 576 1050 538 1050 z "},"Æ":{"ha":1179,"x_min":0,"x_max":1290,"o":"m 708 999 l 1290 999 q 1290 978 1290 992 q 1286 954 1289 965 l 1275 911 l 858 911 l 799 574 l 1133 574 q 1133 553 1133 565 q 1129 531 1132 542 q 1124 508 1126 521 q 1118 486 1121 494 l 783 486 l 714 88 l 1142 88 q 1140 67 1140 79 q 1136 44 1139 56 q 1132 22 1135 35 q 1126 0 1129 8 l 601 0 l 646 256 l 293 256 l 111 0 q 53 -4 82 -4 q 0 0 25 -4 l 708 999 m 661 343 l 763 918 l 756 918 l 357 343 l 661 343 z "},"Ç":{"ha":806,"x_min":168,"x_max":910,"o":"m 467 -12 q 247 102 326 4 q 168 372 168 200 q 199 606 168 490 q 296 812 231 721 q 461 959 361 903 q 700 1015 561 1015 q 833 1003 779 1015 q 910 982 886 990 q 898 940 904 957 q 878 900 892 924 q 802 921 843 913 q 697 929 761 929 q 506 883 586 929 q 373 761 425 838 q 296 585 321 685 q 271 379 271 486 q 343 149 271 228 q 550 69 415 69 q 665 82 611 69 q 758 115 718 94 q 783 36 779 83 q 674 -1 738 13 q 543 -17 610 -14 l 504 -85 q 516 -83 511 -83 q 529 -83 521 -83 q 621 -115 590 -83 q 651 -189 651 -147 q 636 -258 651 -231 q 594 -303 621 -286 q 535 -327 568 -319 q 465 -335 501 -335 q 388 -326 421 -335 q 339 -308 356 -317 q 349 -273 342 -293 q 365 -240 356 -253 q 411 -254 383 -247 q 461 -261 439 -261 q 495 -260 478 -261 q 527 -252 513 -258 q 551 -233 542 -246 q 560 -199 560 -221 q 536 -158 560 -171 q 471 -144 513 -144 q 433 -147 451 -144 q 399 -153 415 -150 l 393 -147 l 467 -12 z "},"È":{"ha":721,"x_min":143,"x_max":832,"o":"m 318 999 l 832 999 q 817 911 832 954 l 400 911 l 340 574 l 675 574 q 672 530 675 553 q 660 486 668 507 l 325 486 l 256 88 l 685 88 q 680 42 683 61 q 668 0 676 22 l 143 0 l 318 999 m 415 1235 q 485 1239 449 1239 q 549 1235 519 1239 l 676 1081 q 651 1077 663 1078 q 626 1076 640 1076 q 568 1081 590 1076 l 415 1235 z "},"É":{"ha":721,"x_min":143,"x_max":832,"o":"m 318 999 l 832 999 q 817 911 832 954 l 400 911 l 340 574 l 675 574 q 672 530 675 553 q 660 486 668 507 l 325 486 l 256 88 l 685 88 q 680 42 683 61 q 668 0 676 22 l 143 0 l 318 999 m 690 1235 q 757 1239 724 1239 q 794 1238 775 1239 q 829 1235 814 1238 l 624 1081 q 557 1076 596 1076 q 510 1081 532 1076 l 690 1235 z "},"Ê":{"ha":721,"x_min":143,"x_max":832,"o":"m 318 999 l 832 999 q 817 911 832 954 l 400 911 l 340 574 l 675 574 q 672 530 675 553 q 660 486 668 507 l 325 486 l 256 88 l 685 88 q 680 42 683 61 q 668 0 676 22 l 143 0 l 318 999 m 551 1235 q 580 1238 564 1238 q 608 1239 596 1239 q 660 1235 635 1239 l 779 1081 q 728 1076 754 1076 q 678 1081 707 1076 l 601 1175 l 485 1079 q 451 1076 468 1076 q 424 1076 435 1076 q 395 1077 413 1076 q 367 1081 378 1078 l 551 1235 z "},"Ë":{"ha":721,"x_min":143,"x_max":832,"o":"m 318 999 l 832 999 q 817 911 832 954 l 400 911 l 340 574 l 675 574 q 672 530 675 553 q 660 486 668 507 l 325 486 l 256 88 l 685 88 q 680 42 683 61 q 668 0 676 22 l 143 0 l 318 999 m 381 1081 q 386 1144 381 1113 q 401 1204 392 1176 q 463 1208 435 1208 q 522 1204 497 1208 q 501 1081 522 1139 q 440 1076 472 1076 q 381 1081 410 1076 m 671 1081 q 677 1144 671 1113 q 692 1204 683 1175 q 753 1208 721 1208 q 813 1204 783 1208 q 807 1140 813 1172 q 792 1081 801 1108 q 731 1076 758 1076 q 671 1081 696 1076 z "},"Ì":{"ha":383,"x_min":144,"x_max":453,"o":"m 319 999 q 343 1001 329 1000 q 368 1001 357 1001 q 394 1001 383 1001 q 415 999 406 1000 l 240 0 q 217 -2 229 -1 q 190 -3 206 -3 q 164 -2 176 -3 q 144 0 151 -1 l 319 999 m 192 1235 q 261 1239 225 1239 q 325 1235 296 1239 l 453 1081 q 428 1077 439 1078 q 403 1076 417 1076 q 344 1081 367 1076 l 192 1235 z "},"Í":{"ha":383,"x_min":144,"x_max":582,"o":"m 319 999 q 343 1001 329 1000 q 368 1001 357 1001 q 394 1001 383 1001 q 415 999 406 1000 l 240 0 q 217 -2 229 -1 q 190 -3 206 -3 q 164 -2 176 -3 q 144 0 151 -1 l 319 999 m 443 1235 q 510 1239 476 1239 q 547 1238 528 1239 q 582 1235 567 1238 l 376 1081 q 310 1076 349 1076 q 263 1081 285 1076 l 443 1235 z "},"Î":{"ha":383,"x_min":144,"x_max":576,"o":"m 319 999 q 343 1001 329 1000 q 368 1001 357 1001 q 394 1001 383 1001 q 415 999 406 1000 l 240 0 q 217 -2 229 -1 q 190 -3 206 -3 q 164 -2 176 -3 q 144 0 151 -1 l 319 999 m 349 1235 q 377 1238 361 1238 q 406 1239 393 1239 q 457 1235 432 1239 l 576 1081 q 525 1076 551 1076 q 475 1081 504 1076 l 399 1175 l 282 1079 q 249 1076 265 1076 q 221 1076 232 1076 q 192 1077 210 1076 q 164 1081 175 1078 l 349 1235 z "},"Ï":{"ha":383,"x_min":144,"x_max":594,"o":"m 319 999 q 343 1001 329 1000 q 368 1001 357 1001 q 394 1001 383 1001 q 415 999 406 1000 l 240 0 q 217 -2 229 -1 q 190 -3 206 -3 q 164 -2 176 -3 q 144 0 151 -1 l 319 999 m 163 1081 q 168 1144 163 1113 q 183 1204 174 1176 q 244 1208 217 1208 q 304 1204 279 1208 q 283 1081 304 1139 q 222 1076 254 1076 q 163 1081 192 1076 m 453 1081 q 459 1144 453 1113 q 474 1204 465 1175 q 535 1208 503 1208 q 594 1204 565 1208 q 589 1140 594 1172 q 574 1081 583 1108 q 513 1076 540 1076 q 453 1081 478 1076 z "},"Ð":{"ha":964,"x_min":140,"x_max":974,"o":"m 249 490 l 140 490 q 153 567 140 529 l 261 567 l 338 999 q 384 1004 357 1001 q 440 1009 411 1007 q 494 1013 468 1011 q 539 1014 521 1014 q 747 983 664 1014 q 881 898 831 953 q 953 768 932 843 q 974 606 974 693 q 941 377 974 489 q 840 178 908 265 q 664 37 771 90 q 407 -17 557 -17 q 335 -15 372 -17 q 266 -12 299 -14 q 206 -6 233 -10 q 163 0 179 -3 l 249 490 m 274 83 q 301 81 283 82 q 340 78 319 79 q 383 76 361 76 q 421 75 404 75 q 615 114 531 75 q 757 222 700 153 q 844 384 814 290 q 874 586 874 478 q 858 730 874 667 q 806 837 843 793 q 703 904 768 881 q 542 928 639 928 q 480 925 515 928 q 421 918 444 922 l 358 567 l 638 567 q 635 528 638 547 q 625 490 632 508 l 344 490 l 274 83 z "},"Ñ":{"ha":933,"x_min":143,"x_max":965,"o":"m 318 999 q 344 1001 328 1000 q 372 1001 361 1001 q 397 1001 385 1001 q 418 999 410 1000 l 726 158 l 872 999 q 894 1001 881 1000 q 919 1001 907 1001 q 944 1001 931 1001 q 965 999 957 1000 l 792 0 q 768 -2 783 -1 q 739 -3 753 -3 q 713 -2 728 -3 q 690 0 699 -1 l 382 836 l 238 0 q 215 -2 226 -1 q 189 -3 204 -3 q 162 -2 174 -3 q 143 0 150 -1 l 318 999 m 472 1119 q 452 1146 461 1131 q 439 1176 443 1161 q 494 1219 463 1200 q 565 1239 525 1239 q 620 1231 596 1239 q 667 1214 644 1224 q 712 1197 689 1204 q 763 1189 735 1189 q 803 1197 786 1189 q 846 1226 819 1204 q 864 1200 853 1217 q 878 1168 875 1183 q 822 1126 854 1146 q 750 1107 790 1107 q 696 1115 719 1107 q 650 1132 672 1122 q 606 1149 628 1142 q 557 1157 583 1157 q 514 1147 532 1157 q 472 1119 496 1138 z "},"Ò":{"ha":978,"x_min":168,"x_max":985,"o":"m 485 -17 q 347 10 406 -17 q 248 86 288 38 q 188 201 208 135 q 168 346 168 268 q 204 606 168 483 q 306 819 240 728 q 463 963 371 910 q 667 1015 554 1015 q 807 987 747 1015 q 906 909 867 958 q 965 794 946 860 q 985 653 985 728 q 949 388 985 511 q 847 176 913 265 q 688 35 781 86 q 485 -17 596 -17 m 500 71 q 652 116 582 71 q 774 238 722 161 q 856 419 826 315 q 885 643 885 524 q 872 758 885 706 q 830 847 858 810 q 758 906 801 885 q 651 928 714 928 q 496 883 567 928 q 374 762 425 839 q 296 581 324 685 q 268 356 268 476 q 324 148 268 225 q 500 71 379 71 m 532 1235 q 601 1239 565 1239 q 665 1235 636 1239 l 793 1081 q 768 1077 779 1078 q 743 1076 757 1076 q 685 1081 707 1076 l 532 1235 z "},"Ó":{"ha":978,"x_min":168,"x_max":985,"o":"m 485 -17 q 347 10 406 -17 q 248 86 288 38 q 188 201 208 135 q 168 346 168 268 q 204 606 168 483 q 306 819 240 728 q 463 963 371 910 q 667 1015 554 1015 q 807 987 747 1015 q 906 909 867 958 q 965 794 946 860 q 985 653 985 728 q 949 388 985 511 q 847 176 913 265 q 688 35 781 86 q 485 -17 596 -17 m 500 71 q 652 116 582 71 q 774 238 722 161 q 856 419 826 315 q 885 643 885 524 q 872 758 885 706 q 830 847 858 810 q 758 906 801 885 q 651 928 714 928 q 496 883 567 928 q 374 762 425 839 q 296 581 324 685 q 268 356 268 476 q 324 148 268 225 q 500 71 379 71 m 743 1235 q 810 1239 776 1239 q 847 1238 828 1239 q 882 1235 867 1238 l 676 1081 q 610 1076 649 1076 q 563 1081 585 1076 l 743 1235 z "},"Ô":{"ha":978,"x_min":168,"x_max":985,"o":"m 485 -17 q 347 10 406 -17 q 248 86 288 38 q 188 201 208 135 q 168 346 168 268 q 204 606 168 483 q 306 819 240 728 q 463 963 371 910 q 667 1015 554 1015 q 807 987 747 1015 q 906 909 867 958 q 965 794 946 860 q 985 653 985 728 q 949 388 985 511 q 847 176 913 265 q 688 35 781 86 q 485 -17 596 -17 m 500 71 q 652 116 582 71 q 774 238 722 161 q 856 419 826 315 q 885 643 885 524 q 872 758 885 706 q 830 847 858 810 q 758 906 801 885 q 651 928 714 928 q 496 883 567 928 q 374 762 425 839 q 296 581 324 685 q 268 356 268 476 q 324 148 268 225 q 500 71 379 71 m 633 1235 q 662 1238 646 1238 q 690 1239 678 1239 q 742 1235 717 1239 l 861 1081 q 810 1076 836 1076 q 760 1081 789 1076 l 683 1175 l 567 1079 q 533 1076 550 1076 q 506 1076 517 1076 q 477 1077 494 1076 q 449 1081 460 1078 l 633 1235 z "},"Õ":{"ha":978,"x_min":168,"x_max":985,"o":"m 485 -17 q 347 10 406 -17 q 248 86 288 38 q 188 201 208 135 q 168 346 168 268 q 204 606 168 483 q 306 819 240 728 q 463 963 371 910 q 667 1015 554 1015 q 807 987 747 1015 q 906 909 867 958 q 965 794 946 860 q 985 653 985 728 q 949 388 985 511 q 847 176 913 265 q 688 35 781 86 q 485 -17 596 -17 m 500 71 q 652 116 582 71 q 774 238 722 161 q 856 419 826 315 q 885 643 885 524 q 872 758 885 706 q 830 847 858 810 q 758 906 801 885 q 651 928 714 928 q 496 883 567 928 q 374 762 425 839 q 296 581 324 685 q 268 356 268 476 q 324 148 268 225 q 500 71 379 71 m 506 1119 q 485 1146 494 1131 q 472 1176 476 1161 q 527 1219 496 1200 q 599 1239 558 1239 q 653 1231 629 1239 q 700 1214 678 1224 q 745 1197 722 1204 q 796 1189 768 1189 q 836 1197 819 1189 q 879 1226 853 1204 q 897 1200 886 1217 q 911 1168 908 1183 q 856 1126 888 1146 q 783 1107 824 1107 q 729 1115 753 1107 q 683 1132 706 1122 q 639 1149 661 1142 q 590 1157 617 1157 q 547 1147 565 1157 q 506 1119 529 1138 z "},"Ö":{"ha":978,"x_min":168,"x_max":985,"o":"m 485 -17 q 347 10 406 -17 q 248 86 288 38 q 188 201 208 135 q 168 346 168 268 q 204 606 168 483 q 306 819 240 728 q 463 963 371 910 q 667 1015 554 1015 q 807 987 747 1015 q 906 909 867 958 q 965 794 946 860 q 985 653 985 728 q 949 388 985 511 q 847 176 913 265 q 688 35 781 86 q 485 -17 596 -17 m 500 71 q 652 116 582 71 q 774 238 722 161 q 856 419 826 315 q 885 643 885 524 q 872 758 885 706 q 830 847 858 810 q 758 906 801 885 q 651 928 714 928 q 496 883 567 928 q 374 762 425 839 q 296 581 324 685 q 268 356 268 476 q 324 148 268 225 q 500 71 379 71 m 469 1081 q 475 1144 469 1113 q 490 1204 481 1176 q 551 1208 524 1208 q 611 1204 586 1208 q 590 1081 611 1139 q 529 1076 561 1076 q 469 1081 499 1076 m 760 1081 q 766 1144 760 1113 q 781 1204 772 1175 q 842 1208 810 1208 q 901 1204 872 1208 q 896 1140 901 1172 q 881 1081 890 1108 q 819 1076 847 1076 q 760 1081 785 1076 z "},"×":{"ha":833,"x_min":207,"x_max":763,"o":"m 418 507 l 275 681 q 350 744 307 714 l 493 571 l 703 749 q 735 713 718 733 q 763 675 751 693 l 554 497 l 697 324 q 622 260 664 286 l 478 433 l 267 254 q 235 288 251 268 q 207 328 218 308 l 418 507 z "},"Ø":{"ha":978,"x_min":125,"x_max":1028,"o":"m 228 113 q 168 346 168 206 q 204 606 168 483 q 306 819 240 728 q 463 963 371 910 q 667 1015 554 1015 q 784 996 733 1015 q 874 942 835 976 l 925 1008 q 978 1013 950 1013 q 1028 1008 1004 1013 l 926 879 q 970 774 956 832 q 985 653 985 717 q 949 388 985 511 q 847 176 913 265 q 688 35 781 86 q 485 -17 596 -17 q 370 1 421 -17 q 282 51 319 19 l 226 -19 q 175 -24 201 -24 q 125 -19 147 -24 l 228 113 m 814 865 q 746 911 786 894 q 651 928 706 928 q 496 883 567 928 q 374 762 425 839 q 296 581 324 685 q 268 356 268 476 q 294 199 268 261 l 814 865 m 340 128 q 500 71 397 71 q 652 116 582 71 q 774 238 722 161 q 856 419 826 315 q 885 643 885 524 q 860 793 885 728 l 340 128 z "},"Ù":{"ha":917,"x_min":183,"x_max":960,"o":"m 307 999 q 331 1001 317 1000 q 358 1001 346 1001 q 383 1001 372 1001 q 404 999 394 1000 l 299 396 q 288 317 292 354 q 283 249 283 279 q 326 114 283 153 q 471 75 369 75 q 587 97 539 75 q 668 159 635 118 q 722 260 701 200 q 757 396 743 319 l 863 999 q 885 1001 872 1000 q 913 1001 897 1001 q 937 1001 924 1001 q 960 999 950 1000 l 849 368 q 802 203 832 275 q 725 83 772 132 q 611 8 678 33 q 454 -17 544 -17 q 183 250 183 -17 q 188 314 183 281 q 199 383 192 347 l 307 999 m 472 1235 q 542 1239 506 1239 q 606 1235 576 1239 l 733 1081 q 708 1077 719 1078 q 683 1076 697 1076 q 625 1081 647 1076 l 472 1235 z "},"Ú":{"ha":917,"x_min":183,"x_max":960,"o":"m 307 999 q 331 1001 317 1000 q 358 1001 346 1001 q 383 1001 372 1001 q 404 999 394 1000 l 299 396 q 288 317 292 354 q 283 249 283 279 q 326 114 283 153 q 471 75 369 75 q 587 97 539 75 q 668 159 635 118 q 722 260 701 200 q 757 396 743 319 l 863 999 q 885 1001 872 1000 q 913 1001 897 1001 q 937 1001 924 1001 q 960 999 950 1000 l 849 368 q 802 203 832 275 q 725 83 772 132 q 611 8 678 33 q 454 -17 544 -17 q 183 250 183 -17 q 188 314 183 281 q 199 383 192 347 l 307 999 m 718 1235 q 785 1239 751 1239 q 822 1238 803 1239 q 857 1235 842 1238 l 651 1081 q 585 1076 624 1076 q 538 1081 560 1076 l 718 1235 z "},"Û":{"ha":917,"x_min":183,"x_max":960,"o":"m 307 999 q 331 1001 317 1000 q 358 1001 346 1001 q 383 1001 372 1001 q 404 999 394 1000 l 299 396 q 288 317 292 354 q 283 249 283 279 q 326 114 283 153 q 471 75 369 75 q 587 97 539 75 q 668 159 635 118 q 722 260 701 200 q 757 396 743 319 l 863 999 q 885 1001 872 1000 q 913 1001 897 1001 q 937 1001 924 1001 q 960 999 950 1000 l 849 368 q 802 203 832 275 q 725 83 772 132 q 611 8 678 33 q 454 -17 544 -17 q 183 250 183 -17 q 188 314 183 281 q 199 383 192 347 l 307 999 m 614 1235 q 642 1238 626 1238 q 671 1239 658 1239 q 722 1235 697 1239 l 842 1081 q 790 1076 817 1076 q 740 1081 769 1076 l 664 1175 l 547 1079 q 514 1076 531 1076 q 486 1076 497 1076 q 458 1077 475 1076 q 429 1081 440 1078 l 614 1235 z "},"Ü":{"ha":917,"x_min":183,"x_max":960,"o":"m 307 999 q 331 1001 317 1000 q 358 1001 346 1001 q 383 1001 372 1001 q 404 999 394 1000 l 299 396 q 288 317 292 354 q 283 249 283 279 q 326 114 283 153 q 471 75 369 75 q 587 97 539 75 q 668 159 635 118 q 722 260 701 200 q 757 396 743 319 l 863 999 q 885 1001 872 1000 q 913 1001 897 1001 q 937 1001 924 1001 q 960 999 950 1000 l 849 368 q 802 203 832 275 q 725 83 772 132 q 611 8 678 33 q 454 -17 544 -17 q 183 250 183 -17 q 188 314 183 281 q 199 383 192 347 l 307 999 m 443 1081 q 449 1144 443 1113 q 464 1204 454 1176 q 525 1208 497 1208 q 585 1204 560 1208 q 564 1081 585 1139 q 503 1076 535 1076 q 443 1081 472 1076 m 733 1081 q 740 1144 733 1113 q 754 1204 746 1175 q 815 1208 783 1208 q 875 1204 846 1208 q 869 1140 875 1172 q 854 1081 864 1108 q 793 1076 821 1076 q 733 1081 758 1076 z "},"Ý":{"ha":749,"x_min":201,"x_max":874,"o":"m 397 369 l 201 999 q 225 1001 210 1000 q 254 1001 240 1001 q 282 1001 267 1001 q 307 999 297 1000 l 460 474 l 768 999 q 793 1001 779 1000 q 822 1001 807 1001 q 851 1001 836 1001 q 874 999 865 1000 l 490 364 l 428 0 q 405 -2 417 -1 q 379 -3 393 -3 q 351 -2 364 -3 q 332 0 339 -1 l 397 369 m 642 1235 q 708 1239 675 1239 q 746 1238 726 1239 q 781 1235 765 1238 l 575 1081 q 508 1076 547 1076 q 461 1081 483 1076 l 642 1235 z "},"Þ":{"ha":782,"x_min":144,"x_max":796,"o":"m 318 999 q 341 1001 328 1000 q 367 1001 354 1001 q 393 1001 381 1001 q 414 999 406 1000 l 388 838 q 442 842 418 840 q 497 843 465 843 q 617 827 563 843 q 712 779 672 811 q 774 699 751 747 q 796 585 796 650 q 765 422 796 490 q 679 308 733 353 q 551 241 625 263 q 389 219 476 219 q 334 221 357 219 q 281 225 311 222 l 240 0 q 217 -2 231 -1 q 192 -3 204 -3 q 165 -2 178 -3 q 144 0 153 -1 l 318 999 m 294 311 q 319 309 308 310 q 340 308 329 308 q 363 306 350 307 q 397 306 376 306 q 619 375 544 306 q 693 581 693 444 q 676 669 693 635 q 628 722 658 703 q 559 749 599 742 q 475 757 519 757 q 442 756 456 757 q 419 755 429 756 q 397 753 408 754 q 371 750 386 751 l 294 311 z "},"ß":{"ha":775,"x_min":-158,"x_max":765,"o":"m 243 732 q 278 867 257 811 q 335 960 300 924 q 422 1014 371 997 q 543 1031 472 1031 q 707 981 649 1031 q 765 843 765 931 q 751 761 765 797 q 717 695 738 725 q 671 640 696 665 q 625 591 646 615 q 590 542 604 567 q 576 489 576 518 q 603 426 576 453 q 663 368 631 399 q 723 299 696 338 q 750 200 750 260 q 733 113 750 153 q 683 44 715 74 q 605 -1 650 15 q 506 -17 560 -17 q 404 -8 450 -17 q 328 15 358 1 q 340 53 332 32 q 358 93 347 74 q 424 74 386 83 q 503 65 463 65 q 561 73 533 65 q 610 96 589 81 q 643 134 631 111 q 656 188 656 157 q 642 245 656 221 q 610 289 629 269 q 569 326 592 308 q 527 364 546 343 q 495 412 508 385 q 482 478 482 439 q 512 573 482 532 q 578 653 542 614 q 644 735 614 692 q 674 838 674 778 q 633 923 674 894 q 529 951 592 951 q 450 939 482 951 q 395 898 418 926 q 358 823 372 869 q 332 710 343 776 l 197 -78 q 112 -278 174 -217 q -65 -339 50 -339 q -119 -335 -96 -339 q -158 -324 -143 -331 q -145 -281 -151 -296 q -131 -246 -139 -265 q -100 -255 -117 -251 q -61 -258 -83 -258 q -1 -251 -28 -258 q 47 -225 26 -244 q 81 -169 67 -206 q 106 -74 96 -132 l 243 732 z "},"à":{"ha":753,"x_min":125,"x_max":758,"o":"m 688 297 q 663 163 674 218 q 653 58 653 108 q 653 27 653 39 q 657 0 654 15 q 634 -2 649 -1 q 610 -3 619 -3 q 587 -2 601 -3 q 565 0 572 -1 q 561 69 561 35 q 563 93 561 79 q 567 123 564 107 q 573 154 569 139 q 579 182 576 169 q 542 119 567 153 q 483 54 518 85 q 406 3 449 24 q 311 -17 363 -17 q 172 45 219 -17 q 125 218 125 107 q 155 403 125 313 q 243 566 185 494 q 388 681 301 638 q 589 725 475 725 q 681 717 632 725 q 758 699 729 710 l 688 297 m 657 635 q 561 644 619 644 q 428 613 490 644 q 321 526 367 582 q 249 396 275 471 q 222 233 222 321 q 251 109 222 154 q 336 64 281 64 q 434 97 388 64 q 518 186 481 131 q 583 314 556 242 q 625 464 610 386 l 657 635 m 406 1004 q 438 1006 421 1006 q 471 1007 454 1007 q 502 1007 486 1007 q 533 1004 518 1007 l 664 824 q 617 819 639 819 q 561 824 586 819 l 406 1004 z "},"á":{"ha":753,"x_min":125,"x_max":763,"o":"m 688 297 q 663 163 674 218 q 653 58 653 108 q 653 27 653 39 q 657 0 654 15 q 634 -2 649 -1 q 610 -3 619 -3 q 587 -2 601 -3 q 565 0 572 -1 q 561 69 561 35 q 563 93 561 79 q 567 123 564 107 q 573 154 569 139 q 579 182 576 169 q 542 119 567 153 q 483 54 518 85 q 406 3 449 24 q 311 -17 363 -17 q 172 45 219 -17 q 125 218 125 107 q 155 403 125 313 q 243 566 185 494 q 388 681 301 638 q 589 725 475 725 q 681 717 632 725 q 758 699 729 710 l 688 297 m 657 635 q 561 644 619 644 q 428 613 490 644 q 321 526 367 582 q 249 396 275 471 q 222 233 222 321 q 251 109 222 154 q 336 64 281 64 q 434 97 388 64 q 518 186 481 131 q 583 314 556 242 q 625 464 610 386 l 657 635 m 635 1004 q 666 1007 650 1007 q 697 1007 682 1007 q 731 1006 714 1007 q 763 1004 747 1006 l 607 824 q 551 819 582 819 q 504 824 529 819 l 635 1004 z "},"â":{"ha":753,"x_min":125,"x_max":758,"o":"m 688 297 q 663 163 674 218 q 653 58 653 108 q 653 27 653 39 q 657 0 654 15 q 634 -2 649 -1 q 610 -3 619 -3 q 587 -2 601 -3 q 565 0 572 -1 q 561 69 561 35 q 563 93 561 79 q 567 123 564 107 q 573 154 569 139 q 579 182 576 169 q 542 119 567 153 q 483 54 518 85 q 406 3 449 24 q 311 -17 363 -17 q 172 45 219 -17 q 125 218 125 107 q 155 403 125 313 q 243 566 185 494 q 388 681 301 638 q 589 725 475 725 q 681 717 632 725 q 758 699 729 710 l 688 297 m 657 635 q 561 644 619 644 q 428 613 490 644 q 321 526 367 582 q 249 396 275 471 q 222 233 222 321 q 251 109 222 154 q 336 64 281 64 q 434 97 388 64 q 518 186 481 131 q 583 314 556 242 q 625 464 610 386 l 657 635 m 533 1003 q 561 1006 546 1006 q 590 1007 576 1007 q 623 1006 603 1007 q 656 1003 643 1006 l 757 824 q 711 819 736 819 q 660 824 685 819 l 590 947 l 474 824 q 442 820 458 821 q 414 819 425 819 q 385 820 403 819 q 357 824 368 821 l 533 1003 z "},"ã":{"ha":753,"x_min":125,"x_max":783,"o":"m 688 297 q 663 163 674 218 q 653 58 653 108 q 653 27 653 39 q 657 0 654 15 q 634 -2 649 -1 q 610 -3 619 -3 q 587 -2 601 -3 q 565 0 572 -1 q 561 69 561 35 q 563 93 561 79 q 567 123 564 107 q 573 154 569 139 q 579 182 576 169 q 542 119 567 153 q 483 54 518 85 q 406 3 449 24 q 311 -17 363 -17 q 172 45 219 -17 q 125 218 125 107 q 155 403 125 313 q 243 566 185 494 q 388 681 301 638 q 589 725 475 725 q 681 717 632 725 q 758 699 729 710 l 688 297 m 657 635 q 561 644 619 644 q 428 613 490 644 q 321 526 367 582 q 249 396 275 471 q 222 233 222 321 q 251 109 222 154 q 336 64 281 64 q 434 97 388 64 q 518 186 481 131 q 583 314 556 242 q 625 464 610 386 l 657 635 m 378 851 q 358 878 367 863 q 344 908 349 893 q 399 951 368 932 q 471 971 431 971 q 526 963 501 971 q 572 946 550 956 q 617 928 594 936 q 668 921 640 921 q 708 928 692 921 q 751 958 725 936 q 769 932 758 949 q 783 900 781 915 q 728 858 760 878 q 656 839 696 839 q 601 847 625 839 q 556 864 578 854 q 511 881 533 874 q 463 889 489 889 q 419 879 438 889 q 378 851 401 869 z "},"ä":{"ha":753,"x_min":125,"x_max":768,"o":"m 688 297 q 663 163 674 218 q 653 58 653 108 q 653 27 653 39 q 657 0 654 15 q 634 -2 649 -1 q 610 -3 619 -3 q 587 -2 601 -3 q 565 0 572 -1 q 561 69 561 35 q 563 93 561 79 q 567 123 564 107 q 573 154 569 139 q 579 182 576 169 q 542 119 567 153 q 483 54 518 85 q 406 3 449 24 q 311 -17 363 -17 q 172 45 219 -17 q 125 218 125 107 q 155 403 125 313 q 243 566 185 494 q 388 681 301 638 q 589 725 475 725 q 681 717 632 725 q 758 699 729 710 l 688 297 m 657 635 q 561 644 619 644 q 428 613 490 644 q 321 526 367 582 q 249 396 275 471 q 222 233 222 321 q 251 109 222 154 q 336 64 281 64 q 434 97 388 64 q 518 186 481 131 q 583 314 556 242 q 625 464 610 386 l 657 635 m 369 851 q 375 911 371 882 q 390 969 379 940 q 446 974 417 974 q 503 969 475 974 q 497 910 501 939 q 482 851 493 881 q 426 847 454 847 q 369 851 396 847 m 635 851 q 640 911 636 882 q 656 969 644 940 q 711 974 682 974 q 768 969 740 974 q 763 910 767 939 q 747 851 758 881 q 692 847 719 847 q 635 851 661 847 z "},"å":{"ha":753,"x_min":125,"x_max":758,"o":"m 688 297 q 663 163 674 218 q 653 58 653 108 q 653 27 653 39 q 657 0 654 15 q 634 -2 649 -1 q 610 -3 619 -3 q 587 -2 601 -3 q 565 0 572 -1 q 561 69 561 35 q 563 93 561 79 q 567 123 564 107 q 573 154 569 139 q 579 182 576 169 q 542 119 567 153 q 483 54 518 85 q 406 3 449 24 q 311 -17 363 -17 q 172 45 219 -17 q 125 218 125 107 q 155 403 125 313 q 243 566 185 494 q 388 681 301 638 q 589 725 475 725 q 681 717 632 725 q 758 699 729 710 l 688 297 m 657 635 q 561 644 619 644 q 428 613 490 644 q 321 526 367 582 q 249 396 275 471 q 222 233 222 321 q 251 109 222 154 q 336 64 281 64 q 434 97 388 64 q 518 186 481 131 q 583 314 556 242 q 625 464 610 386 l 657 635 m 593 881 q 647 906 628 881 q 665 971 665 932 q 653 1022 665 1000 q 608 1043 640 1043 q 553 1017 572 1043 q 533 953 533 990 q 547 901 533 921 q 593 881 561 881 m 461 944 q 503 1058 461 1013 q 611 1104 546 1104 q 706 1067 674 1104 q 739 976 739 1029 q 697 865 739 910 q 588 819 654 819 q 493 856 525 819 q 461 944 461 892 z "},"æ":{"ha":1135,"x_min":125,"x_max":1167,"o":"m 683 278 q 729 122 683 179 q 886 64 775 64 q 942 68 913 64 q 997 78 971 72 q 1047 92 1024 85 q 1088 104 1071 99 q 1098 67 1094 89 q 1101 29 1101 46 q 1053 13 1082 21 q 993 -2 1025 4 q 928 -12 961 -8 q 865 -17 894 -17 q 750 -1 797 -17 q 672 42 703 15 q 624 106 640 69 q 603 183 607 143 q 551 105 581 142 q 488 41 522 68 q 412 -1 453 14 q 325 -17 371 -17 q 174 45 224 -17 q 125 218 125 107 q 155 403 125 313 q 243 566 185 494 q 388 681 301 638 q 589 725 475 725 q 681 717 632 725 q 758 699 729 710 l 743 611 q 852 694 792 664 q 988 725 913 725 q 1121 680 1075 725 q 1167 571 1167 635 q 1138 468 1167 511 q 1057 395 1108 425 q 935 346 1006 365 q 785 314 865 326 l 683 297 l 683 278 m 657 635 q 561 644 619 644 q 428 613 490 644 q 321 526 367 582 q 249 396 275 471 q 222 233 222 321 q 251 109 222 154 q 336 64 281 64 q 434 97 388 64 q 518 186 481 131 q 583 314 556 242 q 625 464 610 386 l 657 635 m 775 382 q 993 444 915 404 q 1071 557 1071 485 q 1044 620 1071 594 q 967 646 1018 646 q 872 622 917 646 q 792 560 828 599 q 731 472 757 522 q 693 368 706 422 l 775 382 z "},"ç":{"ha":636,"x_min":135,"x_max":696,"o":"m 354 -11 q 188 77 242 6 q 135 264 135 149 q 163 432 135 349 q 243 580 190 515 q 373 685 296 644 q 550 725 450 725 q 633 716 594 725 q 696 699 672 707 q 687 656 694 679 q 669 618 679 632 q 609 636 644 628 q 536 644 574 644 q 401 610 458 644 q 307 522 344 575 q 251 403 269 468 q 232 275 232 338 q 284 115 232 167 q 436 64 336 64 q 515 72 475 64 q 588 90 554 79 q 599 53 594 75 q 603 15 603 32 q 561 3 585 8 q 514 -7 538 -3 q 468 -14 490 -11 q 429 -17 446 -17 l 390 -85 q 402 -83 397 -83 q 415 -83 407 -83 q 507 -115 476 -83 q 538 -189 538 -147 q 522 -258 538 -231 q 481 -303 507 -286 q 421 -327 454 -319 q 351 -335 388 -335 q 274 -326 307 -335 q 225 -308 242 -317 q 235 -273 228 -293 q 251 -240 242 -253 q 297 -254 269 -247 q 347 -261 325 -261 q 381 -260 364 -261 q 413 -252 399 -258 q 437 -233 428 -246 q 446 -199 446 -221 q 422 -158 446 -171 q 357 -144 399 -144 q 319 -147 338 -144 q 285 -153 301 -150 l 279 -147 l 354 -11 z "},"è":{"ha":681,"x_min":132,"x_max":713,"o":"m 229 278 q 278 121 229 178 q 432 64 326 64 q 488 68 458 64 q 543 78 517 72 q 593 92 569 85 q 633 104 617 99 q 644 67 640 89 q 647 29 647 46 q 599 13 628 21 q 539 -2 571 4 q 474 -12 507 -8 q 411 -17 440 -17 q 278 6 332 -17 q 192 66 225 28 q 146 155 160 104 q 132 263 132 206 q 161 430 132 347 q 242 578 190 513 q 367 684 294 643 q 528 725 440 725 q 666 680 619 725 q 713 571 713 635 q 683 468 713 511 q 603 395 654 425 q 481 346 551 365 q 331 314 411 326 l 229 297 l 229 278 m 319 388 q 538 450 460 410 q 617 563 617 490 q 590 623 617 600 q 513 646 564 646 q 419 623 463 646 q 341 563 376 600 q 280 476 306 525 q 242 375 254 426 l 319 388 m 353 1004 q 385 1006 368 1006 q 418 1007 401 1007 q 449 1007 433 1007 q 481 1004 465 1007 l 611 824 q 564 819 586 819 q 508 824 533 819 l 353 1004 z "},"é":{"ha":681,"x_min":132,"x_max":713,"o":"m 229 278 q 278 121 229 178 q 432 64 326 64 q 488 68 458 64 q 543 78 517 72 q 593 92 569 85 q 633 104 617 99 q 644 67 640 89 q 647 29 647 46 q 599 13 628 21 q 539 -2 571 4 q 474 -12 507 -8 q 411 -17 440 -17 q 278 6 332 -17 q 192 66 225 28 q 146 155 160 104 q 132 263 132 206 q 161 430 132 347 q 242 578 190 513 q 367 684 294 643 q 528 725 440 725 q 666 680 619 725 q 713 571 713 635 q 683 468 713 511 q 603 395 654 425 q 481 346 551 365 q 331 314 411 326 l 229 297 l 229 278 m 319 388 q 538 450 460 410 q 617 563 617 490 q 590 623 617 600 q 513 646 564 646 q 419 623 463 646 q 341 563 376 600 q 280 476 306 525 q 242 375 254 426 l 319 388 m 576 1004 q 608 1007 592 1007 q 639 1007 624 1007 q 672 1006 656 1007 q 704 1004 689 1006 l 549 824 q 493 819 524 819 q 446 824 471 819 l 576 1004 z "},"ê":{"ha":681,"x_min":132,"x_max":713,"o":"m 229 278 q 278 121 229 178 q 432 64 326 64 q 488 68 458 64 q 543 78 517 72 q 593 92 569 85 q 633 104 617 99 q 644 67 640 89 q 647 29 647 46 q 599 13 628 21 q 539 -2 571 4 q 474 -12 507 -8 q 411 -17 440 -17 q 278 6 332 -17 q 192 66 225 28 q 146 155 160 104 q 132 263 132 206 q 161 430 132 347 q 242 578 190 513 q 367 684 294 643 q 528 725 440 725 q 666 680 619 725 q 713 571 713 635 q 683 468 713 511 q 603 395 654 425 q 481 346 551 365 q 331 314 411 326 l 229 297 l 229 278 m 319 388 q 538 450 460 410 q 617 563 617 490 q 590 623 617 600 q 513 646 564 646 q 419 623 463 646 q 341 563 376 600 q 280 476 306 525 q 242 375 254 426 l 319 388 m 483 1003 q 511 1006 496 1006 q 540 1007 526 1007 q 573 1006 553 1007 q 606 1003 593 1006 l 707 824 q 661 819 686 819 q 610 824 635 819 l 540 947 l 424 824 q 392 820 408 821 q 364 819 375 819 q 335 820 353 819 q 307 824 318 821 l 483 1003 z "},"ë":{"ha":681,"x_min":132,"x_max":714,"o":"m 229 278 q 278 121 229 178 q 432 64 326 64 q 488 68 458 64 q 543 78 517 72 q 593 92 569 85 q 633 104 617 99 q 644 67 640 89 q 647 29 647 46 q 599 13 628 21 q 539 -2 571 4 q 474 -12 507 -8 q 411 -17 440 -17 q 278 6 332 -17 q 192 66 225 28 q 146 155 160 104 q 132 263 132 206 q 161 430 132 347 q 242 578 190 513 q 367 684 294 643 q 528 725 440 725 q 666 680 619 725 q 713 571 713 635 q 683 468 713 511 q 603 395 654 425 q 481 346 551 365 q 331 314 411 326 l 229 297 l 229 278 m 319 388 q 538 450 460 410 q 617 563 617 490 q 590 623 617 600 q 513 646 564 646 q 419 623 463 646 q 341 563 376 600 q 280 476 306 525 q 242 375 254 426 l 319 388 m 315 851 q 321 911 317 882 q 336 969 325 940 q 392 974 363 974 q 449 969 421 974 q 443 910 447 939 q 428 851 439 881 q 372 847 400 847 q 315 851 342 847 m 581 851 q 586 911 582 882 q 601 969 590 940 q 657 974 628 974 q 714 969 686 974 q 708 910 713 939 q 693 851 704 881 q 638 847 665 847 q 581 851 607 847 z "},"ì":{"ha":368,"x_min":153,"x_max":413,"o":"m 264 631 l 178 631 q 181 669 178 650 q 190 708 185 689 l 368 708 l 244 0 q 221 -2 236 -1 q 196 -3 206 -3 q 174 -2 188 -3 q 153 0 160 -1 l 264 631 m 154 1004 q 186 1006 169 1006 q 219 1007 203 1007 q 251 1007 235 1007 q 282 1004 267 1007 l 413 824 q 365 819 388 819 q 310 824 335 819 l 154 1004 z "},"í":{"ha":368,"x_min":153,"x_max":479,"o":"m 264 631 l 178 631 q 181 669 178 650 q 190 708 185 689 l 368 708 l 244 0 q 221 -2 236 -1 q 196 -3 206 -3 q 174 -2 188 -3 q 153 0 160 -1 l 264 631 m 351 1004 q 383 1007 367 1007 q 414 1007 399 1007 q 447 1006 431 1007 q 479 1004 464 1006 l 324 824 q 268 819 299 819 q 221 824 246 819 l 351 1004 z "},"î":{"ha":368,"x_min":97,"x_max":497,"o":"m 264 631 l 178 631 q 181 669 178 650 q 190 708 185 689 l 368 708 l 244 0 q 221 -2 236 -1 q 196 -3 206 -3 q 174 -2 188 -3 q 153 0 160 -1 l 264 631 m 274 1003 q 301 1006 286 1006 q 331 1007 317 1007 q 363 1006 343 1007 q 396 1003 383 1006 l 497 824 q 451 819 476 819 q 400 824 425 819 l 331 947 l 214 824 q 182 820 199 821 q 154 819 165 819 q 126 820 143 819 q 97 824 108 821 l 274 1003 z "},"ï":{"ha":368,"x_min":115,"x_max":514,"o":"m 264 631 l 178 631 q 181 669 178 650 q 190 708 185 689 l 368 708 l 244 0 q 221 -2 236 -1 q 196 -3 206 -3 q 174 -2 188 -3 q 153 0 160 -1 l 264 631 m 115 851 q 121 911 117 882 q 136 969 125 940 q 192 974 163 974 q 249 969 221 974 q 243 910 247 939 q 228 851 239 881 q 172 847 200 847 q 115 851 142 847 m 381 851 q 386 911 382 882 q 401 969 390 940 q 457 974 428 974 q 514 969 486 974 q 508 910 513 939 q 493 851 504 881 q 438 847 465 847 q 381 851 407 847 z "},"ð":{"ha":778,"x_min":131,"x_max":831,"o":"m 554 896 q 399 946 490 938 q 399 958 399 951 q 403 976 400 964 q 413 1001 407 986 q 425 1024 418 1015 q 644 944 561 1008 l 796 1025 q 818 992 808 1014 q 831 954 828 969 l 703 886 q 793 560 793 769 q 773 360 793 463 q 705 174 753 258 q 579 37 657 90 q 386 -17 501 -17 q 268 6 317 -17 q 189 66 219 28 q 144 154 158 104 q 131 260 131 204 q 152 405 131 331 q 216 540 174 479 q 324 639 258 600 q 476 678 389 678 q 608 644 551 678 q 692 561 664 610 q 617 840 700 740 l 458 756 q 436 791 444 771 q 428 828 428 811 l 554 896 m 397 65 q 510 94 460 65 q 595 170 560 124 q 649 274 631 217 q 668 385 668 331 q 617 543 668 488 q 475 599 567 599 q 363 567 410 599 q 287 485 317 535 q 242 377 257 436 q 228 264 228 318 q 236 184 228 221 q 265 121 244 147 q 317 80 285 94 q 397 65 349 65 z "},"ñ":{"ha":789,"x_min":140,"x_max":768,"o":"m 213 414 q 237 548 226 493 q 247 653 247 603 q 247 684 247 672 q 243 711 246 696 q 266 713 251 713 q 290 714 281 714 q 313 713 299 714 q 335 711 328 713 q 338 687 338 700 q 339 654 339 674 q 333 585 339 618 q 321 526 328 551 q 358 590 333 556 q 418 654 383 624 q 497 705 453 685 q 592 725 540 725 q 722 679 675 725 q 768 544 768 633 q 765 497 768 524 q 758 447 763 471 l 681 0 q 658 -2 672 -1 q 633 -3 643 -3 q 610 -2 625 -3 q 589 0 596 -1 l 663 419 q 669 471 667 444 q 672 517 672 497 q 640 612 672 583 q 558 640 608 640 q 463 608 508 640 q 381 520 418 575 q 316 394 343 465 q 275 244 289 322 l 232 0 q 209 -2 224 -1 q 185 -3 194 -3 q 162 -2 176 -3 q 140 0 147 -1 l 213 414 m 351 851 q 331 878 340 863 q 318 908 322 893 q 373 951 342 932 q 444 971 404 971 q 499 963 475 971 q 546 946 524 956 q 591 928 568 936 q 642 921 614 921 q 682 928 665 921 q 725 958 699 936 q 743 932 732 949 q 757 900 754 915 q 701 858 733 878 q 629 839 669 839 q 575 847 599 839 q 529 864 551 854 q 485 881 507 874 q 436 889 463 889 q 393 879 411 889 q 351 851 375 869 z "},"ò":{"ha":774,"x_min":135,"x_max":774,"o":"m 392 64 q 520 101 467 64 q 608 196 574 139 q 660 322 643 253 q 676 454 676 392 q 634 595 676 546 q 517 644 592 644 q 388 607 442 644 q 300 513 335 569 q 249 386 265 456 q 232 254 232 317 q 274 113 232 163 q 392 64 317 64 m 382 -17 q 199 52 264 -17 q 135 253 135 121 q 158 408 135 325 q 228 561 181 490 q 351 678 276 632 q 526 725 425 725 q 709 656 644 725 q 774 456 774 588 q 751 301 774 383 q 680 147 728 218 q 558 30 632 76 q 382 -17 483 -17 m 418 1004 q 450 1006 433 1006 q 483 1007 467 1007 q 515 1007 499 1007 q 546 1004 531 1007 l 676 824 q 629 819 651 819 q 574 824 599 819 l 418 1004 z "},"ó":{"ha":774,"x_min":135,"x_max":774,"o":"m 392 64 q 520 101 467 64 q 608 196 574 139 q 660 322 643 253 q 676 454 676 392 q 634 595 676 546 q 517 644 592 644 q 388 607 442 644 q 300 513 335 569 q 249 386 265 456 q 232 254 232 317 q 274 113 232 163 q 392 64 317 64 m 382 -17 q 199 52 264 -17 q 135 253 135 121 q 158 408 135 325 q 228 561 181 490 q 351 678 276 632 q 526 725 425 725 q 709 656 644 725 q 774 456 774 588 q 751 301 774 383 q 680 147 728 218 q 558 30 632 76 q 382 -17 483 -17 m 579 1004 q 610 1007 594 1007 q 642 1007 626 1007 q 675 1006 658 1007 q 707 1004 692 1006 l 551 824 q 496 819 526 819 q 449 824 474 819 l 579 1004 z "},"ô":{"ha":774,"x_min":135,"x_max":774,"o":"m 392 64 q 520 101 467 64 q 608 196 574 139 q 660 322 643 253 q 676 454 676 392 q 634 595 676 546 q 517 644 592 644 q 388 607 442 644 q 300 513 335 569 q 249 386 265 456 q 232 254 232 317 q 274 113 232 163 q 392 64 317 64 m 382 -17 q 199 52 264 -17 q 135 253 135 121 q 158 408 135 325 q 228 561 181 490 q 351 678 276 632 q 526 725 425 725 q 709 656 644 725 q 774 456 774 588 q 751 301 774 383 q 680 147 728 218 q 558 30 632 76 q 382 -17 483 -17 m 508 1003 q 536 1006 521 1006 q 565 1007 551 1007 q 598 1006 578 1007 q 631 1003 618 1006 l 732 824 q 686 819 711 819 q 635 824 660 819 l 565 947 l 449 824 q 417 820 433 821 q 389 819 400 819 q 360 820 378 819 q 332 824 343 821 l 508 1003 z "},"õ":{"ha":774,"x_min":135,"x_max":774,"o":"m 392 64 q 520 101 467 64 q 608 196 574 139 q 660 322 643 253 q 676 454 676 392 q 634 595 676 546 q 517 644 592 644 q 388 607 442 644 q 300 513 335 569 q 249 386 265 456 q 232 254 232 317 q 274 113 232 163 q 392 64 317 64 m 382 -17 q 199 52 264 -17 q 135 253 135 121 q 158 408 135 325 q 228 561 181 490 q 351 678 276 632 q 526 725 425 725 q 709 656 644 725 q 774 456 774 588 q 751 301 774 383 q 680 147 728 218 q 558 30 632 76 q 382 -17 483 -17 m 349 851 q 328 878 338 863 q 315 908 319 893 q 370 951 339 932 q 442 971 401 971 q 497 963 472 971 q 543 946 521 956 q 588 928 565 936 q 639 921 611 921 q 679 928 663 921 q 722 958 696 936 q 740 932 729 949 q 754 900 751 915 q 699 858 731 878 q 626 839 667 839 q 572 847 596 839 q 526 864 549 854 q 482 881 504 874 q 433 889 460 889 q 390 879 408 889 q 349 851 372 869 z "},"ö":{"ha":774,"x_min":135,"x_max":774,"o":"m 392 64 q 520 101 467 64 q 608 196 574 139 q 660 322 643 253 q 676 454 676 392 q 634 595 676 546 q 517 644 592 644 q 388 607 442 644 q 300 513 335 569 q 249 386 265 456 q 232 254 232 317 q 274 113 232 163 q 392 64 317 64 m 382 -17 q 199 52 264 -17 q 135 253 135 121 q 158 408 135 325 q 228 561 181 490 q 351 678 276 632 q 526 725 425 725 q 709 656 644 725 q 774 456 774 588 q 751 301 774 383 q 680 147 728 218 q 558 30 632 76 q 382 -17 483 -17 m 346 851 q 351 911 347 882 q 367 969 356 940 q 422 974 393 974 q 479 969 451 974 q 474 910 478 939 q 458 851 469 881 q 403 847 431 847 q 346 851 372 847 m 611 851 q 617 911 613 882 q 632 969 621 940 q 688 974 658 974 q 744 969 717 974 q 739 910 743 939 q 724 851 735 881 q 668 847 696 847 q 611 851 638 847 z "},"÷":{"ha":833,"x_min":213,"x_max":821,"o":"m 394 254 q 422 319 394 294 q 485 344 449 344 q 540 326 519 344 q 560 271 560 307 q 535 210 560 239 q 468 182 511 182 q 414 204 433 182 q 394 254 394 226 m 468 710 q 495 775 468 750 q 558 800 522 800 q 613 781 593 800 q 633 726 633 763 q 609 666 633 694 q 542 638 585 638 q 488 660 507 638 q 468 710 468 682 m 821 536 q 819 514 821 529 q 815 488 818 499 q 810 463 813 476 q 804 442 807 449 l 213 442 q 214 463 213 449 q 218 488 215 476 q 224 515 221 500 q 229 536 226 529 l 821 536 z "},"ø":{"ha":774,"x_min":88,"x_max":807,"o":"m 175 83 q 135 253 135 149 q 158 408 135 325 q 228 561 181 490 q 351 678 276 632 q 526 725 425 725 q 678 683 617 725 l 714 726 q 735 730 722 729 q 760 731 747 731 q 807 726 786 731 l 728 632 q 774 456 774 563 q 751 301 774 383 q 680 147 728 218 q 558 30 632 76 q 382 -17 483 -17 q 294 -5 333 -17 q 224 29 254 7 l 181 -22 q 135 -26 161 -26 q 110 -26 122 -26 q 88 -22 97 -25 l 175 83 m 285 103 q 392 64 328 64 q 520 101 467 64 q 608 196 574 139 q 660 322 643 253 q 676 454 676 392 q 672 506 676 482 q 660 550 667 531 l 285 103 m 617 611 q 517 644 576 644 q 388 607 442 644 q 300 513 335 569 q 249 386 265 456 q 232 254 232 317 q 244 165 232 203 l 617 611 z "},"ù":{"ha":771,"x_min":149,"x_max":776,"o":"m 236 708 q 259 710 244 710 q 283 711 274 711 q 306 710 292 711 q 328 708 321 710 l 254 289 q 247 238 250 264 q 244 192 244 211 q 276 97 244 125 q 358 68 308 68 q 453 101 408 68 q 536 188 499 133 q 601 315 574 243 q 642 464 628 386 l 685 708 q 708 710 693 710 q 732 711 722 711 q 755 710 740 711 q 776 708 769 710 l 704 294 q 680 160 690 215 q 669 56 669 106 q 670 24 669 36 q 674 -3 671 13 q 651 -5 665 -4 q 626 -6 636 -6 q 603 -5 618 -6 q 582 -3 589 -4 q 578 54 578 19 q 583 124 578 90 q 596 182 589 157 q 558 119 583 153 q 499 54 533 85 q 420 3 464 24 q 325 -17 376 -17 q 195 29 242 -17 q 149 164 149 75 q 151 211 149 185 q 158 261 154 238 l 236 708 m 354 1004 q 386 1006 369 1006 q 419 1007 403 1007 q 451 1007 435 1007 q 482 1004 467 1007 l 613 824 q 565 819 588 819 q 510 824 535 819 l 354 1004 z "},"ú":{"ha":771,"x_min":149,"x_max":776,"o":"m 236 708 q 259 710 244 710 q 283 711 274 711 q 306 710 292 711 q 328 708 321 710 l 254 289 q 247 238 250 264 q 244 192 244 211 q 276 97 244 125 q 358 68 308 68 q 453 101 408 68 q 536 188 499 133 q 601 315 574 243 q 642 464 628 386 l 685 708 q 708 710 693 710 q 732 711 722 711 q 755 710 740 711 q 776 708 769 710 l 704 294 q 680 160 690 215 q 669 56 669 106 q 670 24 669 36 q 674 -3 671 13 q 651 -5 665 -4 q 626 -6 636 -6 q 603 -5 618 -6 q 582 -3 589 -4 q 578 54 578 19 q 583 124 578 90 q 596 182 589 157 q 558 119 583 153 q 499 54 533 85 q 420 3 464 24 q 325 -17 376 -17 q 195 29 242 -17 q 149 164 149 75 q 151 211 149 185 q 158 261 154 238 l 236 708 m 597 1004 q 628 1007 613 1007 q 660 1007 644 1007 q 693 1006 676 1007 q 725 1004 710 1006 l 569 824 q 514 819 544 819 q 467 824 492 819 l 597 1004 z "},"û":{"ha":771,"x_min":149,"x_max":776,"o":"m 236 708 q 259 710 244 710 q 283 711 274 711 q 306 710 292 711 q 328 708 321 710 l 254 289 q 247 238 250 264 q 244 192 244 211 q 276 97 244 125 q 358 68 308 68 q 453 101 408 68 q 536 188 499 133 q 601 315 574 243 q 642 464 628 386 l 685 708 q 708 710 693 710 q 732 711 722 711 q 755 710 740 711 q 776 708 769 710 l 704 294 q 680 160 690 215 q 669 56 669 106 q 670 24 669 36 q 674 -3 671 13 q 651 -5 665 -4 q 626 -6 636 -6 q 603 -5 618 -6 q 582 -3 589 -4 q 578 54 578 19 q 583 124 578 90 q 596 182 589 157 q 558 119 583 153 q 499 54 533 85 q 420 3 464 24 q 325 -17 376 -17 q 195 29 242 -17 q 149 164 149 75 q 151 211 149 185 q 158 261 154 238 l 236 708 m 497 1003 q 525 1006 510 1006 q 554 1007 540 1007 q 587 1006 567 1007 q 619 1003 607 1006 l 721 824 q 675 819 700 819 q 624 824 649 819 l 554 947 l 438 824 q 406 820 422 821 q 378 819 389 819 q 349 820 367 819 q 321 824 332 821 l 497 1003 z "},"ü":{"ha":771,"x_min":149,"x_max":776,"o":"m 236 708 q 259 710 244 710 q 283 711 274 711 q 306 710 292 711 q 328 708 321 710 l 254 289 q 247 238 250 264 q 244 192 244 211 q 276 97 244 125 q 358 68 308 68 q 453 101 408 68 q 536 188 499 133 q 601 315 574 243 q 642 464 628 386 l 685 708 q 708 710 693 710 q 732 711 722 711 q 755 710 740 711 q 776 708 769 710 l 704 294 q 680 160 690 215 q 669 56 669 106 q 670 24 669 36 q 674 -3 671 13 q 651 -5 665 -4 q 626 -6 636 -6 q 603 -5 618 -6 q 582 -3 589 -4 q 578 54 578 19 q 583 124 578 90 q 596 182 589 157 q 558 119 583 153 q 499 54 533 85 q 420 3 464 24 q 325 -17 376 -17 q 195 29 242 -17 q 149 164 149 75 q 151 211 149 185 q 158 261 154 238 l 236 708 m 339 851 q 344 911 340 882 q 360 969 349 940 q 415 974 386 974 q 472 969 444 974 q 467 910 471 939 q 451 851 463 881 q 396 847 424 847 q 339 851 365 847 m 604 851 q 610 911 606 882 q 625 969 614 940 q 681 974 651 974 q 738 969 710 974 q 732 910 736 939 q 717 851 728 881 q 661 847 689 847 q 604 851 631 847 z "},"ý":{"ha":651,"x_min":26,"x_max":721,"o":"m 319 -3 q 288 -2 304 -3 q 265 0 272 -1 l 150 708 q 172 712 163 711 q 194 713 182 713 q 249 708 224 713 l 346 54 l 594 606 q 615 663 608 635 q 622 703 622 692 l 622 708 q 669 713 647 713 q 721 708 696 713 l 721 703 q 714 658 721 681 q 688 596 707 636 l 343 -149 q 288 -246 315 -208 q 233 -305 261 -283 q 175 -335 204 -326 q 113 -343 146 -343 q 26 -331 68 -343 q 33 -286 26 -307 q 50 -253 39 -265 q 81 -260 64 -257 q 118 -262 99 -262 q 158 -256 139 -262 q 197 -230 176 -250 q 238 -173 217 -210 q 288 -75 260 -136 l 319 -3 m 506 1004 q 537 1007 521 1007 q 568 1007 553 1007 q 601 1006 585 1007 q 633 1004 618 1006 l 478 824 q 422 819 453 819 q 375 824 400 819 l 506 1004 z "},"þ":{"ha":764,"x_min":57,"x_max":758,"o":"m 221 74 q 265 65 240 68 q 313 63 290 63 q 440 87 378 63 q 552 160 503 111 q 631 281 601 208 q 661 447 661 353 q 620 591 661 540 q 510 642 579 642 q 435 626 472 642 q 365 572 397 610 q 306 474 332 535 q 264 324 279 413 l 221 74 m 244 724 q 269 858 260 803 q 279 963 279 913 q 278 994 279 982 q 275 1021 278 1006 q 298 1023 283 1022 q 322 1024 313 1024 q 345 1023 331 1024 q 367 1021 360 1022 q 370 999 369 1010 q 371 968 371 988 q 367 916 371 960 q 353 817 364 872 l 314 594 q 408 688 354 650 q 547 725 461 725 q 699 658 640 725 q 758 471 758 590 q 725 274 758 364 q 631 120 692 185 q 483 19 569 56 q 289 -17 396 -17 q 248 -15 269 -17 q 204 -10 226 -12 l 150 -328 q 127 -330 143 -329 q 104 -331 111 -331 q 80 -330 94 -331 q 57 -328 65 -329 l 244 724 z "},"ÿ":{"ha":651,"x_min":26,"x_max":721,"o":"m 319 -3 q 288 -2 304 -3 q 265 0 272 -1 l 150 708 q 172 712 163 711 q 194 713 182 713 q 249 708 224 713 l 346 54 l 594 606 q 615 663 608 635 q 622 703 622 692 l 622 708 q 669 713 647 713 q 721 708 696 713 l 721 703 q 714 658 721 681 q 688 596 707 636 l 343 -149 q 288 -246 315 -208 q 233 -305 261 -283 q 175 -335 204 -326 q 113 -343 146 -343 q 26 -331 68 -343 q 33 -286 26 -307 q 50 -253 39 -265 q 81 -260 64 -257 q 118 -262 99 -262 q 158 -256 139 -262 q 197 -230 176 -250 q 238 -173 217 -210 q 288 -75 260 -136 l 319 -3 m 261 851 q 267 911 263 882 q 282 969 271 940 q 338 974 308 974 q 394 969 367 974 q 389 910 393 939 q 374 851 385 881 q 318 847 346 847 q 261 851 288 847 m 526 851 q 532 911 528 882 q 547 969 536 940 q 603 974 574 974 q 660 969 632 974 q 654 910 658 939 q 639 851 650 881 q 583 847 611 847 q 526 851 553 847 z "},"Ā":{"ha":796,"x_min":60,"x_max":789,"o":"m 506 999 q 538 1001 517 1000 q 572 1001 560 1001 q 603 1001 588 1001 q 626 999 619 1000 l 774 0 q 751 -2 767 -1 q 721 -3 736 -3 q 694 -2 708 -3 q 669 0 679 -1 l 635 261 l 276 261 l 164 0 q 140 -2 153 -1 q 111 -3 126 -3 q 83 -2 97 -3 q 60 0 68 -1 l 506 999 m 622 350 l 550 894 l 314 350 l 622 350 m 789 1186 q 786 1143 789 1167 q 776 1101 783 1119 l 363 1101 q 365 1144 363 1121 q 375 1186 368 1167 l 789 1186 z "},"ā":{"ha":753,"x_min":125,"x_max":772,"o":"m 688 297 q 663 163 674 218 q 653 58 653 108 q 653 27 653 39 q 657 0 654 15 q 634 -2 649 -1 q 610 -3 619 -3 q 587 -2 601 -3 q 565 0 572 -1 q 561 69 561 35 q 563 93 561 79 q 567 123 564 107 q 573 154 569 139 q 579 182 576 169 q 542 119 567 153 q 483 54 518 85 q 406 3 449 24 q 311 -17 363 -17 q 172 45 219 -17 q 125 218 125 107 q 155 403 125 313 q 243 566 185 494 q 388 681 301 638 q 589 725 475 725 q 681 717 632 725 q 758 699 729 710 l 688 297 m 657 635 q 561 644 619 644 q 428 613 490 644 q 321 526 367 582 q 249 396 275 471 q 222 233 222 321 q 251 109 222 154 q 336 64 281 64 q 434 97 388 64 q 518 186 481 131 q 583 314 556 242 q 625 464 610 386 l 657 635 m 772 951 q 769 908 772 932 q 760 867 767 885 l 379 867 q 382 909 379 886 q 392 951 385 932 l 772 951 z "},"Ă":{"ha":796,"x_min":60,"x_max":797,"o":"m 506 999 q 538 1001 517 1000 q 572 1001 560 1001 q 603 1001 588 1001 q 626 999 619 1000 l 774 0 q 751 -2 767 -1 q 721 -3 736 -3 q 694 -2 708 -3 q 669 0 679 -1 l 635 261 l 276 261 l 164 0 q 140 -2 153 -1 q 111 -3 126 -3 q 83 -2 97 -3 q 60 0 68 -1 l 506 999 m 622 350 l 550 894 l 314 350 l 622 350 m 393 1235 q 436 1239 415 1239 q 476 1235 456 1239 q 483 1201 478 1217 q 500 1174 489 1185 q 531 1156 511 1163 q 581 1149 550 1149 q 632 1154 611 1149 q 667 1170 653 1160 q 692 1197 682 1181 q 710 1235 701 1213 q 756 1239 732 1239 q 797 1235 776 1239 q 761 1153 785 1185 q 707 1105 738 1122 q 643 1081 676 1088 q 579 1075 610 1075 q 514 1082 547 1075 q 453 1106 481 1089 q 410 1155 426 1124 q 393 1235 393 1186 z "},"ă":{"ha":753,"x_min":125,"x_max":793,"o":"m 688 297 q 663 163 674 218 q 653 58 653 108 q 653 27 653 39 q 657 0 654 15 q 634 -2 649 -1 q 610 -3 619 -3 q 587 -2 601 -3 q 565 0 572 -1 q 561 69 561 35 q 563 93 561 79 q 567 123 564 107 q 573 154 569 139 q 579 182 576 169 q 542 119 567 153 q 483 54 518 85 q 406 3 449 24 q 311 -17 363 -17 q 172 45 219 -17 q 125 218 125 107 q 155 403 125 313 q 243 566 185 494 q 388 681 301 638 q 589 725 475 725 q 681 717 632 725 q 758 699 729 710 l 688 297 m 657 635 q 561 644 619 644 q 428 613 490 644 q 321 526 367 582 q 249 396 275 471 q 222 233 222 321 q 251 109 222 154 q 336 64 281 64 q 434 97 388 64 q 518 186 481 131 q 583 314 556 242 q 625 464 610 386 l 657 635 m 389 1003 q 435 1007 407 1007 q 453 1006 446 1007 q 472 1003 461 1006 q 477 963 472 982 q 494 928 482 943 q 525 903 506 913 q 575 894 544 894 q 628 903 607 894 q 665 928 650 913 q 688 963 679 943 q 703 1003 696 982 q 746 1007 724 1007 q 793 1003 774 1007 q 757 913 781 949 q 703 857 733 878 q 638 828 674 836 q 567 819 603 819 q 503 827 535 819 q 444 856 471 835 q 403 912 418 876 q 389 1003 388 947 z "},"Ą":{"ha":796,"x_min":60,"x_max":793,"o":"m 506 999 q 538 1001 517 1000 q 572 1001 560 1001 q 603 1001 588 1001 q 626 999 619 1000 l 774 0 q 731 -38 756 -15 q 685 -87 707 -61 q 649 -143 664 -114 q 633 -199 633 -172 q 711 -260 633 -260 q 744 -258 726 -260 q 785 -249 763 -256 q 792 -286 792 -269 q 793 -321 793 -303 q 741 -332 771 -328 q 682 -336 711 -336 q 627 -330 653 -336 q 581 -310 601 -324 q 549 -275 561 -297 q 538 -221 538 -253 q 552 -156 538 -189 q 588 -94 567 -124 q 631 -40 608 -64 q 669 0 654 -15 l 635 261 l 276 261 l 164 0 q 140 -2 153 -1 q 111 -3 126 -3 q 83 -2 97 -3 q 60 0 68 -1 l 506 999 m 622 350 l 550 894 l 314 350 l 622 350 z "},"ą":{"ha":753,"x_min":125,"x_max":758,"o":"m 688 297 q 663 163 674 218 q 653 58 653 108 q 654 27 653 39 q 660 0 656 15 q 617 -38 642 -15 q 572 -87 593 -61 q 535 -143 550 -114 q 519 -199 519 -172 q 597 -260 519 -260 q 631 -258 613 -260 q 671 -249 649 -256 q 679 -321 681 -283 q 627 -332 657 -328 q 568 -336 597 -336 q 513 -330 539 -336 q 467 -310 488 -324 q 435 -275 447 -297 q 424 -221 424 -253 q 436 -158 424 -189 q 468 -98 449 -126 q 513 -44 488 -69 q 565 0 539 -19 q 561 69 561 35 q 563 93 561 79 q 567 123 564 107 q 573 154 569 139 q 579 182 576 169 q 542 119 567 153 q 483 54 518 85 q 406 3 449 24 q 311 -17 363 -17 q 172 45 219 -17 q 125 218 125 107 q 155 403 125 313 q 243 566 185 494 q 388 681 301 638 q 589 725 475 725 q 681 717 632 725 q 758 699 729 710 l 688 297 m 657 635 q 561 644 619 644 q 428 613 490 644 q 321 526 367 582 q 249 396 275 471 q 222 233 222 321 q 251 109 222 154 q 336 64 281 64 q 434 97 388 64 q 518 186 481 131 q 583 314 556 242 q 625 464 610 386 l 657 635 z "},"Ć":{"ha":806,"x_min":168,"x_max":910,"o":"m 783 36 q 665 -2 735 13 q 526 -17 596 -17 q 264 83 360 -17 q 168 372 168 183 q 199 606 168 490 q 296 812 231 721 q 461 959 361 903 q 700 1015 561 1015 q 833 1003 779 1015 q 910 982 886 990 q 898 940 904 957 q 878 900 892 924 q 802 921 843 913 q 697 929 761 929 q 506 883 586 929 q 373 761 425 838 q 296 585 321 685 q 271 379 271 486 q 343 149 271 228 q 550 69 415 69 q 665 82 611 69 q 758 115 718 94 q 783 36 779 83 m 722 1235 q 789 1239 756 1239 q 826 1238 807 1239 q 861 1235 846 1238 l 656 1081 q 589 1076 628 1076 q 542 1081 564 1076 l 722 1235 z "},"ć":{"ha":636,"x_min":135,"x_max":696,"o":"m 588 90 q 599 53 594 75 q 603 15 603 32 q 559 1 583 7 q 510 -8 535 -4 q 463 -15 485 -12 q 425 -17 440 -17 q 205 58 275 -17 q 135 264 135 132 q 163 432 135 349 q 243 580 190 515 q 373 685 296 644 q 550 725 450 725 q 633 716 594 725 q 696 699 672 707 q 687 656 694 679 q 669 618 679 632 q 609 636 644 628 q 536 644 574 644 q 401 610 458 644 q 307 522 344 575 q 251 403 269 468 q 232 275 232 338 q 284 115 232 167 q 436 64 336 64 q 515 72 475 64 q 588 90 554 79 m 558 1004 q 590 1007 574 1007 q 621 1007 606 1007 q 654 1006 638 1007 q 686 1004 671 1006 l 531 824 q 475 819 506 819 q 428 824 453 819 l 558 1004 z "},"Ĉ":{"ha":806,"x_min":168,"x_max":910,"o":"m 783 36 q 665 -2 735 13 q 526 -17 596 -17 q 264 83 360 -17 q 168 372 168 183 q 199 606 168 490 q 296 812 231 721 q 461 959 361 903 q 700 1015 561 1015 q 833 1003 779 1015 q 910 982 886 990 q 898 940 904 957 q 878 900 892 924 q 802 921 843 913 q 697 929 761 929 q 506 883 586 929 q 373 761 425 838 q 296 585 321 685 q 271 379 271 486 q 343 149 271 228 q 550 69 415 69 q 665 82 611 69 q 758 115 718 94 q 783 36 779 83 m 650 1235 q 678 1238 663 1238 q 707 1239 694 1239 q 758 1235 733 1239 l 878 1081 q 826 1076 853 1076 q 776 1081 806 1076 l 700 1175 l 583 1079 q 550 1076 567 1076 q 522 1076 533 1076 q 494 1077 511 1076 q 465 1081 476 1078 l 650 1235 z "},"ĉ":{"ha":636,"x_min":135,"x_max":725,"o":"m 588 90 q 599 53 594 75 q 603 15 603 32 q 559 1 583 7 q 510 -8 535 -4 q 463 -15 485 -12 q 425 -17 440 -17 q 205 58 275 -17 q 135 264 135 132 q 163 432 135 349 q 243 580 190 515 q 373 685 296 644 q 550 725 450 725 q 633 716 594 725 q 696 699 672 707 q 687 656 694 679 q 669 618 679 632 q 609 636 644 628 q 536 644 574 644 q 401 610 458 644 q 307 522 344 575 q 251 403 269 468 q 232 275 232 338 q 284 115 232 167 q 436 64 336 64 q 515 72 475 64 q 588 90 554 79 m 501 1003 q 529 1006 514 1006 q 558 1007 544 1007 q 591 1006 571 1007 q 624 1003 611 1006 l 725 824 q 679 819 704 819 q 628 824 653 819 l 558 947 l 442 824 q 410 820 426 821 q 382 819 393 819 q 353 820 371 819 q 325 824 336 821 l 501 1003 z "},"Ċ":{"ha":806,"x_min":168,"x_max":910,"o":"m 783 36 q 665 -2 735 13 q 526 -17 596 -17 q 264 83 360 -17 q 168 372 168 183 q 199 606 168 490 q 296 812 231 721 q 461 959 361 903 q 700 1015 561 1015 q 833 1003 779 1015 q 910 982 886 990 q 898 940 904 957 q 878 900 892 924 q 802 921 843 913 q 697 929 761 929 q 506 883 586 929 q 373 761 425 838 q 296 585 321 685 q 271 379 271 486 q 343 149 271 228 q 550 69 415 69 q 665 82 611 69 q 758 115 718 94 q 783 36 779 83 m 646 1200 q 680 1202 661 1201 q 711 1203 699 1203 q 741 1202 724 1203 q 771 1200 758 1201 q 764 1137 769 1168 q 750 1076 758 1106 q 717 1076 735 1076 q 686 1075 699 1075 q 656 1076 674 1075 q 626 1076 639 1076 q 633 1140 628 1108 q 646 1200 639 1171 z "},"ċ":{"ha":636,"x_min":135,"x_max":696,"o":"m 588 90 q 599 53 594 75 q 603 15 603 32 q 559 1 583 7 q 510 -8 535 -4 q 463 -15 485 -12 q 425 -17 440 -17 q 205 58 275 -17 q 135 264 135 132 q 163 432 135 349 q 243 580 190 515 q 373 685 296 644 q 550 725 450 725 q 633 716 594 725 q 696 699 672 707 q 687 656 694 679 q 669 618 679 632 q 609 636 644 628 q 536 644 574 644 q 401 610 458 644 q 307 522 344 575 q 251 403 269 468 q 232 275 232 338 q 284 115 232 167 q 436 64 336 64 q 515 72 475 64 q 588 90 554 79 m 504 971 q 538 973 519 972 q 569 974 557 974 q 599 973 582 974 q 629 971 617 972 q 622 908 628 939 q 608 847 617 876 q 575 847 593 847 q 544 846 557 846 q 515 847 532 846 q 485 847 497 847 q 492 910 486 879 q 504 971 497 942 z "},"Č":{"ha":806,"x_min":168,"x_max":932,"o":"m 783 36 q 665 -2 735 13 q 526 -17 596 -17 q 264 83 360 -17 q 168 372 168 183 q 199 606 168 490 q 296 812 231 721 q 461 959 361 903 q 700 1015 561 1015 q 833 1003 779 1015 q 910 982 886 990 q 898 940 904 957 q 878 900 892 924 q 802 921 843 913 q 697 929 761 929 q 506 883 586 929 q 373 761 425 838 q 296 585 321 685 q 271 379 271 486 q 343 149 271 228 q 550 69 415 69 q 665 82 611 69 q 758 115 718 94 q 783 36 779 83 m 529 1235 q 581 1239 554 1239 q 606 1238 590 1239 q 636 1235 621 1238 l 700 1142 l 811 1235 q 847 1238 829 1238 q 876 1239 865 1239 q 904 1238 888 1239 q 932 1235 921 1238 l 747 1081 q 720 1077 735 1078 q 693 1076 706 1076 q 667 1077 682 1076 q 639 1081 651 1078 l 529 1235 z "},"č":{"ha":636,"x_min":135,"x_max":776,"o":"m 588 90 q 599 53 594 75 q 603 15 603 32 q 559 1 583 7 q 510 -8 535 -4 q 463 -15 485 -12 q 425 -17 440 -17 q 205 58 275 -17 q 135 264 135 132 q 163 432 135 349 q 243 580 190 515 q 373 685 296 644 q 550 725 450 725 q 633 716 594 725 q 696 699 672 707 q 687 656 694 679 q 669 618 679 632 q 609 636 644 628 q 536 644 574 644 q 401 610 458 644 q 307 522 344 575 q 251 403 269 468 q 232 275 232 338 q 284 115 232 167 q 436 64 336 64 q 515 72 475 64 q 588 90 554 79 m 371 1003 q 415 1007 392 1007 q 444 1006 426 1007 q 474 1003 461 1006 l 547 878 l 668 1003 q 702 1006 683 1006 q 732 1007 721 1007 q 776 1003 756 1007 l 604 824 q 572 820 592 821 q 539 819 553 819 q 510 820 526 819 q 481 824 494 821 l 371 1003 z "},"Ď":{"ha":947,"x_min":143,"x_max":954,"o":"m 318 999 q 365 1004 338 1001 q 420 1009 392 1007 q 475 1013 449 1011 q 519 1014 501 1014 q 728 983 644 1014 q 862 898 811 953 q 933 768 913 843 q 954 606 954 693 q 924 377 954 489 q 825 178 893 265 q 649 37 757 90 q 388 -17 542 -17 q 316 -15 353 -17 q 247 -12 279 -14 q 187 -6 214 -10 q 143 0 160 -3 l 318 999 m 254 83 q 282 81 264 82 q 321 78 300 79 q 363 76 342 76 q 401 75 385 75 q 596 114 511 75 q 738 222 681 153 q 824 384 794 290 q 854 586 854 478 q 838 730 854 667 q 783 837 822 793 q 679 904 744 881 q 517 928 614 928 q 458 925 490 928 q 401 918 425 922 l 254 83 m 438 1235 q 489 1239 463 1239 q 514 1238 499 1239 q 544 1235 529 1238 l 608 1142 l 719 1235 q 756 1238 738 1238 q 785 1239 774 1239 q 813 1238 796 1239 q 840 1235 829 1238 l 656 1081 q 628 1077 643 1078 q 601 1076 614 1076 q 575 1077 590 1076 q 547 1081 560 1078 l 438 1235 z "},"ď":{"ha":822,"x_min":128,"x_max":1018,"o":"m 689 297 q 665 163 675 218 q 654 58 654 108 q 655 27 654 39 q 658 0 656 15 q 635 -2 650 -1 q 611 -3 621 -3 q 588 -2 603 -3 q 567 0 574 -1 q 563 22 564 11 q 563 53 563 33 q 564 78 563 63 q 568 113 565 94 q 574 149 571 131 q 582 182 578 167 q 545 119 569 153 q 486 54 521 85 q 408 3 451 24 q 314 -17 365 -17 q 175 45 222 -17 q 128 218 128 107 q 158 403 128 313 q 246 566 188 494 q 391 681 304 638 q 592 725 478 725 q 632 723 610 725 q 671 718 654 721 q 695 857 685 797 q 706 967 706 917 q 706 996 706 986 q 704 1021 706 1006 q 728 1023 713 1022 q 754 1024 744 1024 q 776 1024 763 1024 q 797 1022 790 1024 q 799 995 799 1007 q 799 972 799 983 q 797 931 799 956 q 790 878 794 906 q 782 824 786 851 q 774 774 778 796 l 689 297 m 660 635 q 564 644 622 644 q 431 613 493 644 q 324 526 369 582 q 251 396 278 471 q 225 233 225 321 q 254 109 225 154 q 339 64 283 64 q 437 97 390 64 q 521 186 483 131 q 585 314 558 242 q 628 464 613 386 l 660 635 m 921 1021 q 940 1023 929 1022 q 972 1024 951 1024 q 997 1023 986 1024 q 1018 1021 1007 1022 l 960 740 q 917 736 936 736 q 872 740 897 736 l 921 1021 z "},"Đ":{"ha":964,"x_min":140,"x_max":974,"o":"m 249 490 l 140 490 q 153 567 140 529 l 261 567 l 338 999 q 384 1004 357 1001 q 440 1009 411 1007 q 494 1013 468 1011 q 539 1014 521 1014 q 747 983 664 1014 q 881 898 831 953 q 953 768 932 843 q 974 606 974 693 q 941 377 974 489 q 840 178 908 265 q 664 37 771 90 q 407 -17 557 -17 q 335 -15 372 -17 q 266 -12 299 -14 q 206 -6 233 -10 q 163 0 179 -3 l 249 490 m 274 83 q 301 81 283 82 q 340 78 319 79 q 383 76 361 76 q 421 75 404 75 q 615 114 531 75 q 757 222 700 153 q 844 384 814 290 q 874 586 874 478 q 858 730 874 667 q 806 837 843 793 q 703 904 768 881 q 542 928 639 928 q 480 925 515 928 q 421 918 444 922 l 358 567 l 638 567 q 635 528 638 547 q 625 490 632 508 l 344 490 l 274 83 z "},"đ":{"ha":746,"x_min":128,"x_max":879,"o":"m 686 807 l 486 807 q 499 883 486 846 l 699 883 q 703 928 701 907 q 706 967 706 949 q 706 996 706 986 q 704 1021 706 1006 q 728 1023 713 1022 q 754 1024 744 1024 q 776 1024 763 1024 q 797 1022 790 1024 q 799 995 799 1007 q 799 972 799 983 q 796 933 799 956 q 790 883 793 910 l 879 883 q 876 844 879 864 q 867 807 874 825 l 779 807 l 689 297 q 665 163 675 218 q 654 58 654 108 q 655 27 654 39 q 658 0 656 15 q 635 -2 650 -1 q 611 -3 621 -3 q 588 -2 603 -3 q 567 0 574 -1 q 563 22 564 11 q 563 53 563 33 q 564 78 563 63 q 568 113 565 94 q 574 149 571 131 q 582 182 578 167 q 545 119 569 153 q 486 54 521 85 q 408 3 451 24 q 314 -17 365 -17 q 175 45 222 -17 q 128 218 128 107 q 157 399 128 313 q 243 550 186 485 q 386 654 300 615 q 586 693 472 693 q 626 691 604 693 q 665 686 649 689 l 686 807 m 654 603 q 558 613 617 613 q 426 586 488 613 q 321 510 365 560 q 251 391 276 461 q 225 233 225 321 q 254 109 225 154 q 339 64 283 64 q 437 97 390 64 q 521 186 483 131 q 585 314 558 242 q 628 464 613 386 l 654 603 z "},"Ē":{"ha":721,"x_min":143,"x_max":832,"o":"m 318 999 l 832 999 q 817 911 832 954 l 400 911 l 340 574 l 675 574 q 672 530 675 553 q 660 486 668 507 l 325 486 l 256 88 l 685 88 q 680 42 683 61 q 668 0 676 22 l 143 0 l 318 999 m 807 1186 q 804 1143 807 1167 q 794 1101 801 1119 l 381 1101 q 383 1144 381 1121 q 393 1186 386 1167 l 807 1186 z "},"ē":{"ha":681,"x_min":132,"x_max":722,"o":"m 229 278 q 278 121 229 178 q 432 64 326 64 q 488 68 458 64 q 543 78 517 72 q 593 92 569 85 q 633 104 617 99 q 644 67 640 89 q 647 29 647 46 q 599 13 628 21 q 539 -2 571 4 q 474 -12 507 -8 q 411 -17 440 -17 q 278 6 332 -17 q 192 66 225 28 q 146 155 160 104 q 132 263 132 206 q 161 430 132 347 q 242 578 190 513 q 367 684 294 643 q 528 725 440 725 q 666 680 619 725 q 713 571 713 635 q 683 468 713 511 q 603 395 654 425 q 481 346 551 365 q 331 314 411 326 l 229 297 l 229 278 m 319 388 q 538 450 460 410 q 617 563 617 490 q 590 623 617 600 q 513 646 564 646 q 419 623 463 646 q 341 563 376 600 q 280 476 306 525 q 242 375 254 426 l 319 388 m 722 951 q 719 908 722 932 q 710 867 717 885 l 329 867 q 332 909 329 886 q 342 951 335 932 l 722 951 z "},"Ĕ":{"ha":721,"x_min":143,"x_max":832,"o":"m 318 999 l 832 999 q 817 911 832 954 l 400 911 l 340 574 l 675 574 q 672 530 675 553 q 660 486 668 507 l 325 486 l 256 88 l 685 88 q 680 42 683 61 q 668 0 676 22 l 143 0 l 318 999 m 388 1235 q 431 1239 410 1239 q 471 1235 450 1239 q 478 1201 472 1217 q 494 1174 483 1185 q 525 1156 506 1163 q 575 1149 544 1149 q 626 1154 606 1149 q 662 1170 647 1160 q 686 1197 676 1181 q 704 1235 696 1213 q 750 1239 726 1239 q 792 1235 771 1239 q 756 1153 779 1185 q 701 1105 732 1122 q 638 1081 671 1088 q 574 1075 604 1075 q 508 1082 542 1075 q 448 1106 475 1089 q 404 1155 421 1124 q 388 1235 388 1186 z "},"ĕ":{"ha":681,"x_min":132,"x_max":760,"o":"m 229 278 q 278 121 229 178 q 432 64 326 64 q 488 68 458 64 q 543 78 517 72 q 593 92 569 85 q 633 104 617 99 q 644 67 640 89 q 647 29 647 46 q 599 13 628 21 q 539 -2 571 4 q 474 -12 507 -8 q 411 -17 440 -17 q 278 6 332 -17 q 192 66 225 28 q 146 155 160 104 q 132 263 132 206 q 161 430 132 347 q 242 578 190 513 q 367 684 294 643 q 528 725 440 725 q 666 680 619 725 q 713 571 713 635 q 683 468 713 511 q 603 395 654 425 q 481 346 551 365 q 331 314 411 326 l 229 297 l 229 278 m 319 388 q 538 450 460 410 q 617 563 617 490 q 590 623 617 600 q 513 646 564 646 q 419 623 463 646 q 341 563 376 600 q 280 476 306 525 q 242 375 254 426 l 319 388 m 356 1003 q 401 1007 374 1007 q 420 1006 413 1007 q 439 1003 428 1006 q 444 963 439 982 q 460 928 449 943 q 492 903 472 913 q 542 894 511 894 q 595 903 574 894 q 631 928 617 913 q 654 963 646 943 q 669 1003 663 982 q 713 1007 690 1007 q 760 1003 740 1007 q 724 913 747 949 q 670 857 700 878 q 605 828 640 836 q 533 819 569 819 q 469 827 501 819 q 411 856 438 835 q 369 912 385 876 q 356 1003 354 947 z "},"Ė":{"ha":721,"x_min":143,"x_max":832,"o":"m 318 999 l 832 999 q 817 911 832 954 l 400 911 l 340 574 l 675 574 q 672 530 675 553 q 660 486 668 507 l 325 486 l 256 88 l 685 88 q 680 42 683 61 q 668 0 676 22 l 143 0 l 318 999 m 547 1200 q 581 1202 563 1201 q 613 1203 600 1203 q 642 1202 625 1203 q 672 1200 660 1201 q 665 1137 671 1168 q 651 1076 660 1106 q 618 1076 636 1076 q 588 1075 600 1075 q 558 1076 575 1075 q 528 1076 540 1076 q 535 1140 529 1108 q 547 1200 540 1171 z "},"ė":{"ha":681,"x_min":132,"x_max":713,"o":"m 229 278 q 278 121 229 178 q 432 64 326 64 q 488 68 458 64 q 543 78 517 72 q 593 92 569 85 q 633 104 617 99 q 644 67 640 89 q 647 29 647 46 q 599 13 628 21 q 539 -2 571 4 q 474 -12 507 -8 q 411 -17 440 -17 q 278 6 332 -17 q 192 66 225 28 q 146 155 160 104 q 132 263 132 206 q 161 430 132 347 q 242 578 190 513 q 367 684 294 643 q 528 725 440 725 q 666 680 619 725 q 713 571 713 635 q 683 468 713 511 q 603 395 654 425 q 481 346 551 365 q 331 314 411 326 l 229 297 l 229 278 m 319 388 q 538 450 460 410 q 617 563 617 490 q 590 623 617 600 q 513 646 564 646 q 419 623 463 646 q 341 563 376 600 q 280 476 306 525 q 242 375 254 426 l 319 388 m 464 971 q 498 973 479 972 q 529 974 517 974 q 559 973 542 974 q 589 971 576 972 q 582 908 588 939 q 568 847 576 876 q 535 847 553 847 q 504 846 517 846 q 474 847 492 846 q 444 847 457 847 q 451 910 446 879 q 464 971 457 942 z "},"Ę":{"ha":721,"x_min":143,"x_max":832,"o":"m 318 999 l 832 999 q 817 911 832 954 l 400 911 l 340 574 l 675 574 q 672 530 675 553 q 660 486 668 507 l 325 486 l 256 88 l 685 88 q 680 42 683 61 q 668 0 676 22 l 588 0 q 545 -38 569 -15 q 499 -87 521 -61 q 463 -143 478 -114 q 447 -199 447 -172 q 525 -260 447 -260 q 558 -258 540 -260 q 599 -249 576 -256 q 607 -321 608 -283 q 555 -332 585 -328 q 496 -336 525 -336 q 441 -330 467 -336 q 395 -310 415 -324 q 363 -275 375 -297 q 351 -221 351 -253 q 364 -158 351 -189 q 397 -98 376 -126 q 442 -44 417 -69 q 496 0 468 -19 l 143 0 l 318 999 z "},"ę":{"ha":681,"x_min":132,"x_max":713,"o":"m 229 278 q 278 121 229 178 q 432 64 326 64 q 488 68 458 64 q 543 78 517 72 q 593 92 569 85 q 633 104 617 99 q 644 67 640 89 q 647 29 647 46 q 604 11 629 21 q 551 -12 579 1 q 506 -44 531 -24 q 459 -89 481 -64 q 423 -143 438 -114 q 408 -199 408 -172 q 486 -260 408 -260 q 519 -258 501 -260 q 560 -249 538 -256 q 568 -321 569 -283 q 516 -332 546 -328 q 457 -336 486 -336 q 402 -330 428 -336 q 356 -310 376 -324 q 324 -275 336 -297 q 313 -221 313 -253 q 350 -109 313 -162 q 436 -15 388 -56 q 424 -17 429 -17 q 411 -17 418 -17 q 278 6 332 -17 q 192 66 225 28 q 146 155 160 104 q 132 263 132 206 q 161 430 132 347 q 242 578 190 513 q 367 684 294 643 q 528 725 440 725 q 666 680 619 725 q 713 571 713 635 q 683 468 713 511 q 603 395 654 425 q 481 346 551 365 q 331 314 411 326 l 229 297 l 229 278 m 319 388 q 538 450 460 410 q 617 563 617 490 q 590 623 617 600 q 513 646 564 646 q 419 623 463 646 q 341 563 376 600 q 280 476 306 525 q 242 375 254 426 l 319 388 z "},"Ě":{"ha":721,"x_min":143,"x_max":832,"o":"m 318 999 l 832 999 q 817 911 832 954 l 400 911 l 340 574 l 675 574 q 672 530 675 553 q 660 486 668 507 l 325 486 l 256 88 l 685 88 q 680 42 683 61 q 668 0 676 22 l 143 0 l 318 999 m 418 1235 q 469 1239 443 1239 q 494 1238 479 1239 q 525 1235 510 1238 l 589 1142 l 700 1235 q 736 1238 718 1238 q 765 1239 754 1239 q 793 1238 776 1239 q 821 1235 810 1238 l 636 1081 q 609 1077 624 1078 q 582 1076 594 1076 q 556 1077 571 1076 q 528 1081 540 1078 l 418 1235 z "},"ě":{"ha":681,"x_min":132,"x_max":771,"o":"m 229 278 q 278 121 229 178 q 432 64 326 64 q 488 68 458 64 q 543 78 517 72 q 593 92 569 85 q 633 104 617 99 q 644 67 640 89 q 647 29 647 46 q 599 13 628 21 q 539 -2 571 4 q 474 -12 507 -8 q 411 -17 440 -17 q 278 6 332 -17 q 192 66 225 28 q 146 155 160 104 q 132 263 132 206 q 161 430 132 347 q 242 578 190 513 q 367 684 294 643 q 528 725 440 725 q 666 680 619 725 q 713 571 713 635 q 683 468 713 511 q 603 395 654 425 q 481 346 551 365 q 331 314 411 326 l 229 297 l 229 278 m 319 388 q 538 450 460 410 q 617 563 617 490 q 590 623 617 600 q 513 646 564 646 q 419 623 463 646 q 341 563 376 600 q 280 476 306 525 q 242 375 254 426 l 319 388 m 365 1003 q 410 1007 386 1007 q 438 1006 421 1007 q 468 1003 456 1006 l 542 878 l 663 1003 q 697 1006 678 1006 q 726 1007 715 1007 q 771 1003 750 1007 l 599 824 q 567 820 586 821 q 533 819 547 819 q 505 820 521 819 q 475 824 489 821 l 365 1003 z "},"Ĝ":{"ha":911,"x_min":168,"x_max":910,"o":"m 789 515 q 813 517 799 517 q 839 518 826 518 q 865 517 853 518 q 886 515 876 517 l 801 39 q 744 17 776 26 q 676 -1 713 7 q 602 -12 640 -8 q 526 -17 564 -17 q 377 10 443 -17 q 265 88 311 38 q 193 211 218 139 q 168 374 168 283 q 198 611 168 496 q 292 816 228 726 q 458 960 357 906 q 703 1015 560 1015 q 831 1003 776 1015 q 910 982 886 990 q 898 940 904 957 q 878 899 892 922 q 802 919 843 911 q 697 928 761 928 q 506 882 586 928 q 373 760 425 836 q 296 585 321 685 q 271 379 271 486 q 343 149 271 228 q 550 69 415 69 q 637 76 594 69 q 715 99 679 83 l 789 515 m 658 1235 q 687 1238 671 1238 q 715 1239 703 1239 q 767 1235 742 1239 l 886 1081 q 835 1076 861 1076 q 785 1081 814 1076 l 708 1175 l 592 1079 q 558 1076 575 1076 q 531 1076 542 1076 q 502 1077 519 1076 q 474 1081 485 1078 l 658 1235 z "},"ĝ":{"ha":743,"x_min":57,"x_max":758,"o":"m 579 182 q 542 119 567 153 q 483 54 518 85 q 406 3 449 24 q 311 -17 363 -17 q 172 45 219 -17 q 125 218 125 107 q 155 403 125 313 q 243 566 185 494 q 388 681 301 638 q 589 725 475 725 q 681 717 632 725 q 758 699 729 710 l 633 0 q 588 -147 618 -83 q 506 -253 557 -210 q 384 -317 456 -296 q 217 -339 313 -339 q 138 -331 185 -339 q 57 -308 92 -324 q 65 -267 57 -289 q 81 -231 72 -244 q 148 -248 111 -240 q 229 -256 185 -256 q 363 -238 308 -256 q 453 -187 417 -221 q 510 -103 489 -153 q 544 14 531 -53 l 579 182 m 657 635 q 561 644 619 644 q 428 613 490 644 q 321 526 367 582 q 249 396 275 471 q 222 233 222 321 q 252 109 222 154 q 336 64 282 64 q 434 97 388 64 q 518 186 481 131 q 583 314 556 242 q 625 464 610 386 l 657 635 m 517 1003 q 544 1006 529 1006 q 574 1007 560 1007 q 606 1006 586 1007 q 639 1003 626 1006 l 740 824 q 694 819 719 819 q 643 824 668 819 l 574 947 l 457 824 q 425 820 442 821 q 397 819 408 819 q 369 820 386 819 q 340 824 351 821 l 517 1003 z "},"Ğ":{"ha":911,"x_min":168,"x_max":919,"o":"m 789 515 q 813 517 799 517 q 839 518 826 518 q 865 517 853 518 q 886 515 876 517 l 801 39 q 744 17 776 26 q 676 -1 713 7 q 602 -12 640 -8 q 526 -17 564 -17 q 377 10 443 -17 q 265 88 311 38 q 193 211 218 139 q 168 374 168 283 q 198 611 168 496 q 292 816 228 726 q 458 960 357 906 q 703 1015 560 1015 q 831 1003 776 1015 q 910 982 886 990 q 898 940 904 957 q 878 899 892 922 q 802 919 843 911 q 697 928 761 928 q 506 882 586 928 q 373 760 425 836 q 296 585 321 685 q 271 379 271 486 q 343 149 271 228 q 550 69 415 69 q 637 76 594 69 q 715 99 679 83 l 789 515 m 515 1235 q 558 1239 538 1239 q 599 1235 578 1239 q 606 1201 600 1217 q 622 1174 611 1185 q 653 1156 633 1163 q 703 1149 672 1149 q 754 1154 733 1149 q 790 1170 775 1160 q 814 1197 804 1181 q 832 1235 824 1213 q 878 1239 854 1239 q 919 1235 899 1239 q 883 1153 907 1185 q 829 1105 860 1122 q 765 1081 799 1088 q 701 1075 732 1075 q 636 1082 669 1075 q 576 1106 603 1089 q 532 1155 549 1124 q 515 1235 515 1186 z "},"ğ":{"ha":743,"x_min":60,"x_max":782,"o":"m 582 182 q 545 119 569 153 q 486 54 521 85 q 408 3 451 24 q 314 -17 365 -17 q 175 45 222 -17 q 128 218 128 107 q 158 403 128 313 q 246 566 188 494 q 391 681 304 638 q 592 725 478 725 q 683 717 635 725 q 761 699 732 710 l 636 0 q 590 -147 621 -83 q 509 -253 560 -210 q 387 -317 458 -296 q 219 -339 315 -339 q 141 -331 188 -339 q 60 -308 94 -324 q 67 -267 60 -289 q 83 -231 75 -244 q 151 -248 114 -240 q 232 -256 188 -256 q 365 -238 311 -256 q 456 -187 419 -221 q 513 -103 492 -153 q 547 14 533 -53 l 582 182 m 660 635 q 564 644 622 644 q 431 613 493 644 q 324 526 369 582 q 251 396 278 471 q 225 233 225 321 q 255 109 225 154 q 339 64 285 64 q 437 97 390 64 q 521 186 483 131 q 585 314 558 242 q 628 464 613 386 l 660 635 m 378 1003 q 424 1007 396 1007 q 442 1006 435 1007 q 461 1003 450 1006 q 466 963 461 982 q 483 928 471 943 q 514 903 494 913 q 564 894 533 894 q 617 903 596 894 q 653 928 639 913 q 676 963 668 943 q 692 1003 685 982 q 735 1007 713 1007 q 782 1003 763 1007 q 746 913 769 949 q 692 857 722 878 q 627 828 663 836 q 556 819 592 819 q 492 827 524 819 q 433 856 460 835 q 392 912 407 876 q 378 1003 376 947 z "},"Ġ":{"ha":911,"x_min":168,"x_max":910,"o":"m 789 515 q 813 517 799 517 q 839 518 826 518 q 865 517 853 518 q 886 515 876 517 l 801 39 q 744 17 776 26 q 676 -1 713 7 q 602 -12 640 -8 q 526 -17 564 -17 q 377 10 443 -17 q 265 88 311 38 q 193 211 218 139 q 168 374 168 283 q 198 611 168 496 q 292 816 228 726 q 458 960 357 906 q 703 1015 560 1015 q 831 1003 776 1015 q 910 982 886 990 q 898 940 904 957 q 878 899 892 922 q 802 919 843 911 q 697 928 761 928 q 506 882 586 928 q 373 760 425 836 q 296 585 321 685 q 271 379 271 486 q 343 149 271 228 q 550 69 415 69 q 637 76 594 69 q 715 99 679 83 l 789 515 m 653 1200 q 687 1202 668 1201 q 718 1203 706 1203 q 748 1202 731 1203 q 778 1200 765 1201 q 771 1137 776 1168 q 757 1076 765 1106 q 724 1076 742 1076 q 693 1075 706 1075 q 663 1076 681 1075 q 633 1076 646 1076 q 640 1140 635 1108 q 653 1200 646 1171 z "},"ġ":{"ha":743,"x_min":57,"x_max":758,"o":"m 579 182 q 542 119 567 153 q 483 54 518 85 q 406 3 449 24 q 311 -17 363 -17 q 172 45 219 -17 q 125 218 125 107 q 155 403 125 313 q 243 566 185 494 q 388 681 301 638 q 589 725 475 725 q 681 717 632 725 q 758 699 729 710 l 633 0 q 588 -147 618 -83 q 506 -253 557 -210 q 384 -317 456 -296 q 217 -339 313 -339 q 138 -331 185 -339 q 57 -308 92 -324 q 65 -267 57 -289 q 81 -231 72 -244 q 148 -248 111 -240 q 229 -256 185 -256 q 363 -238 308 -256 q 453 -187 417 -221 q 510 -103 489 -153 q 544 14 531 -53 l 579 182 m 657 635 q 561 644 619 644 q 428 613 490 644 q 321 526 367 582 q 249 396 275 471 q 222 233 222 321 q 252 109 222 154 q 336 64 282 64 q 434 97 388 64 q 518 186 481 131 q 583 314 556 242 q 625 464 610 386 l 657 635 m 526 971 q 560 973 542 972 q 592 974 579 974 q 622 973 604 974 q 651 971 639 972 q 644 908 650 939 q 631 847 639 876 q 597 847 615 847 q 567 846 579 846 q 537 847 554 846 q 507 847 519 847 q 514 910 508 879 q 526 971 519 942 z "},"Ģ":{"ha":911,"x_min":168,"x_max":910,"o":"m 789 515 q 813 517 799 517 q 839 518 826 518 q 865 517 853 518 q 886 515 876 517 l 801 39 q 744 17 776 26 q 676 -1 713 7 q 602 -12 640 -8 q 526 -17 564 -17 q 377 10 443 -17 q 265 88 311 38 q 193 211 218 139 q 168 374 168 283 q 198 611 168 496 q 292 816 228 726 q 458 960 357 906 q 703 1015 560 1015 q 831 1003 776 1015 q 910 982 886 990 q 898 940 904 957 q 878 899 892 922 q 802 919 843 911 q 697 928 761 928 q 506 882 586 928 q 373 760 425 836 q 296 585 321 685 q 271 379 271 486 q 343 149 271 228 q 550 69 415 69 q 637 76 594 69 q 715 99 679 83 l 789 515 m 454 -89 q 479 -85 465 -86 q 506 -85 493 -85 q 534 -85 521 -85 q 563 -89 547 -86 l 439 -333 q 392 -337 415 -337 q 347 -333 369 -337 l 454 -89 z "},"ģ":{"ha":743,"x_min":57,"x_max":758,"o":"m 579 182 q 542 119 567 153 q 483 54 518 85 q 406 3 449 24 q 311 -17 363 -17 q 172 45 219 -17 q 125 218 125 107 q 155 403 125 313 q 243 566 185 494 q 388 681 301 638 q 589 725 475 725 q 681 717 632 725 q 758 699 729 710 l 633 0 q 588 -147 618 -83 q 506 -253 557 -210 q 384 -317 456 -296 q 217 -339 313 -339 q 138 -331 185 -339 q 57 -308 92 -324 q 65 -267 57 -289 q 81 -231 72 -244 q 148 -248 111 -240 q 229 -256 185 -256 q 363 -238 308 -256 q 453 -187 417 -221 q 510 -103 489 -153 q 544 14 531 -53 l 579 182 m 657 635 q 561 644 619 644 q 428 613 490 644 q 321 526 367 582 q 249 396 275 471 q 222 233 222 321 q 252 109 222 154 q 336 64 282 64 q 434 97 388 64 q 518 186 481 131 q 583 314 556 242 q 625 464 610 386 l 657 635 m 583 1006 q 606 1008 596 1007 q 631 1008 617 1008 q 656 1008 643 1008 q 683 1006 669 1007 l 579 801 q 531 797 551 797 q 468 801 503 797 l 583 1006 z "},"Ĥ":{"ha":924,"x_min":172,"x_max":983,"o":"m 347 999 q 368 1001 356 1000 q 396 1001 381 1001 q 421 1001 407 1001 q 443 999 435 1000 l 368 574 l 813 574 l 888 999 q 908 1001 896 1000 q 936 1001 921 1001 q 961 1001 947 1001 q 983 999 975 1000 l 808 0 q 786 -2 800 -1 q 758 -3 772 -3 q 731 -2 743 -3 q 713 0 719 -1 l 797 486 l 353 486 l 268 0 q 246 -2 260 -1 q 218 -3 232 -3 q 191 -2 203 -3 q 172 0 179 -1 l 347 999 m 628 1235 q 656 1238 640 1238 q 685 1239 672 1239 q 736 1235 711 1239 l 856 1081 q 804 1076 831 1076 q 754 1081 783 1076 l 678 1175 l 561 1079 q 528 1076 544 1076 q 500 1076 511 1076 q 472 1077 489 1076 q 443 1081 454 1078 l 628 1235 z "},"ĥ":{"ha":771,"x_min":122,"x_max":750,"o":"m 249 724 q 272 860 263 803 q 282 967 282 917 q 282 996 282 986 q 281 1021 282 1006 q 305 1023 289 1022 q 331 1024 321 1024 q 353 1024 339 1024 q 374 1022 367 1024 q 375 995 375 1007 q 375 972 375 983 q 372 931 375 956 q 366 878 369 906 q 358 822 363 850 q 349 771 353 793 l 315 589 q 360 640 335 615 q 418 684 386 665 q 487 714 450 703 q 567 725 524 725 q 701 679 653 725 q 750 544 750 633 q 747 497 750 524 q 740 447 744 471 l 663 0 q 640 -2 654 -1 q 615 -3 625 -3 q 592 -2 607 -3 q 571 0 578 -1 l 644 419 q 651 470 649 444 q 654 515 654 496 q 621 610 654 581 q 529 640 588 640 q 448 624 488 640 q 374 571 408 607 q 313 476 339 535 q 272 333 286 417 l 214 0 q 191 -2 206 -1 q 167 -3 176 -3 q 144 -2 158 -3 q 122 0 129 -1 l 249 724 m 340 1235 q 369 1238 353 1238 q 397 1239 385 1239 q 449 1235 424 1239 l 568 1081 q 517 1076 543 1076 q 467 1081 496 1076 l 390 1175 l 274 1079 q 240 1076 257 1076 q 213 1076 224 1076 q 184 1077 201 1076 q 156 1081 167 1078 l 340 1235 z "},"Ħ":{"ha":956,"x_min":160,"x_max":1042,"o":"m 294 772 l 193 772 q 206 849 193 811 l 308 849 l 335 999 q 356 1001 343 1000 q 383 1001 368 1001 q 408 1001 394 1001 q 431 999 422 1000 l 404 849 l 849 849 l 875 999 q 896 1001 883 1000 q 924 1001 908 1001 q 949 1001 935 1001 q 971 999 963 1000 l 944 849 l 1042 849 q 1039 810 1042 829 q 1029 772 1036 790 l 931 772 l 796 0 q 774 -2 788 -1 q 746 -3 760 -3 q 719 -2 731 -3 q 700 0 707 -1 l 785 486 l 340 486 l 256 0 q 233 -2 247 -1 q 206 -3 219 -3 q 178 -2 190 -3 q 160 0 167 -1 l 294 772 m 800 574 l 835 772 l 390 772 l 356 574 l 800 574 z "},"ħ":{"ha":769,"x_min":122,"x_max":742,"o":"m 249 724 q 256 768 253 747 q 264 808 260 789 l 185 808 q 197 885 185 847 l 275 885 q 280 927 278 907 q 282 967 282 947 q 282 996 282 986 q 281 1021 282 1006 q 305 1023 289 1022 q 331 1024 321 1024 q 353 1024 339 1024 q 374 1022 367 1024 q 375 995 375 1007 q 375 972 375 983 q 372 933 375 956 q 367 885 369 910 l 578 885 q 575 846 578 865 q 565 808 572 826 l 356 808 l 307 546 q 352 597 326 572 q 410 641 378 622 q 478 671 442 660 q 558 682 515 682 q 693 636 644 682 q 742 501 742 590 q 739 454 742 481 q 732 404 736 428 l 663 0 q 640 -2 654 -1 q 615 -3 625 -3 q 592 -2 607 -3 q 571 0 578 -1 l 636 376 q 643 427 640 401 q 646 472 646 453 q 613 567 646 538 q 521 597 579 597 q 440 581 479 597 q 365 528 400 564 q 304 433 331 492 q 264 290 278 374 l 214 0 q 191 -2 206 -1 q 167 -3 176 -3 q 144 -2 158 -3 q 122 0 129 -1 l 249 724 z "},"Ĩ":{"ha":383,"x_min":144,"x_max":600,"o":"m 319 999 q 343 1001 329 1000 q 368 1001 357 1001 q 394 1001 383 1001 q 415 999 406 1000 l 240 0 q 217 -2 229 -1 q 190 -3 206 -3 q 164 -2 176 -3 q 144 0 151 -1 l 319 999 m 194 1119 q 174 1146 183 1131 q 161 1176 165 1161 q 216 1219 185 1200 q 288 1239 247 1239 q 342 1231 318 1239 q 389 1214 367 1224 q 434 1197 411 1204 q 485 1189 457 1189 q 525 1197 508 1189 q 568 1226 542 1204 q 586 1200 575 1217 q 600 1168 597 1183 q 544 1126 576 1146 q 472 1107 513 1107 q 418 1115 442 1107 q 372 1132 394 1122 q 328 1149 350 1142 q 279 1157 306 1157 q 236 1147 254 1157 q 194 1119 218 1138 z "},"ĩ":{"ha":368,"x_min":100,"x_max":539,"o":"m 264 631 l 178 631 q 181 669 178 650 q 190 708 185 689 l 368 708 l 244 0 q 221 -2 236 -1 q 196 -3 206 -3 q 174 -2 188 -3 q 153 0 160 -1 l 264 631 m 133 851 q 113 878 122 863 q 100 908 104 893 q 155 951 124 932 q 226 971 186 971 q 281 963 257 971 q 328 946 306 956 q 373 928 350 936 q 424 921 396 921 q 464 928 447 921 q 507 958 481 936 q 525 932 514 949 q 539 900 536 915 q 483 858 515 878 q 411 839 451 839 q 357 847 381 839 q 311 864 333 854 q 267 881 289 874 q 218 889 244 889 q 175 879 193 889 q 133 851 157 869 z "},"Ī":{"ha":383,"x_min":144,"x_max":590,"o":"m 319 999 q 343 1001 329 1000 q 368 1001 357 1001 q 394 1001 383 1001 q 415 999 406 1000 l 240 0 q 217 -2 229 -1 q 190 -3 206 -3 q 164 -2 176 -3 q 144 0 151 -1 l 319 999 m 590 1186 q 588 1143 590 1167 q 578 1101 585 1119 l 164 1101 q 167 1144 164 1121 q 176 1186 169 1167 l 590 1186 z "},"ī":{"ha":368,"x_min":121,"x_max":514,"o":"m 264 631 l 178 631 q 181 669 178 650 q 190 708 185 689 l 368 708 l 244 0 q 221 -2 236 -1 q 196 -3 206 -3 q 174 -2 188 -3 q 153 0 160 -1 l 264 631 m 514 951 q 511 908 514 932 q 501 867 508 885 l 121 867 q 124 909 121 886 q 133 951 126 932 l 514 951 z "},"Ĭ":{"ha":383,"x_min":144,"x_max":592,"o":"m 319 999 q 343 1001 329 1000 q 368 1001 357 1001 q 394 1001 383 1001 q 415 999 406 1000 l 240 0 q 217 -2 229 -1 q 190 -3 206 -3 q 164 -2 176 -3 q 144 0 151 -1 l 319 999 m 188 1235 q 231 1239 210 1239 q 271 1235 250 1239 q 278 1201 272 1217 q 294 1174 283 1185 q 325 1156 306 1163 q 375 1149 344 1149 q 426 1154 406 1149 q 462 1170 447 1160 q 486 1197 476 1181 q 504 1235 496 1213 q 550 1239 526 1239 q 592 1235 571 1239 q 556 1153 579 1185 q 501 1105 532 1122 q 438 1081 471 1088 q 374 1075 404 1075 q 308 1082 342 1075 q 248 1106 275 1089 q 204 1155 221 1124 q 188 1235 188 1186 z "},"ĭ":{"ha":368,"x_min":139,"x_max":544,"o":"m 264 631 l 178 631 q 181 669 178 650 q 190 708 185 689 l 368 708 l 244 0 q 221 -2 236 -1 q 196 -3 206 -3 q 174 -2 188 -3 q 153 0 160 -1 l 264 631 m 140 1003 q 186 1007 158 1007 q 205 1006 197 1007 q 224 1003 213 1006 q 228 963 224 982 q 245 928 233 943 q 276 903 257 913 q 326 894 296 894 q 380 903 358 894 q 416 928 401 913 q 439 963 431 943 q 454 1003 447 982 q 497 1007 475 1007 q 544 1003 525 1007 q 508 913 532 949 q 455 857 485 878 q 390 828 425 836 q 318 819 354 819 q 254 827 286 819 q 196 856 222 835 q 154 912 169 876 q 140 1003 139 947 z "},"Į":{"ha":383,"x_min":0,"x_max":415,"o":"m 319 999 q 343 1001 329 1000 q 368 1001 357 1001 q 394 1001 383 1001 q 415 999 406 1000 l 240 0 q 194 -38 219 -15 q 148 -87 169 -61 q 111 -143 126 -114 q 96 -199 96 -172 q 174 -260 96 -260 q 207 -258 189 -260 q 247 -249 225 -256 q 255 -286 254 -269 q 256 -321 256 -303 q 203 -332 233 -328 q 144 -336 174 -336 q 90 -330 115 -336 q 44 -310 64 -324 q 12 -275 24 -297 q 0 -221 0 -253 q 13 -158 0 -189 q 45 -98 25 -126 q 91 -44 65 -69 q 144 0 117 -19 l 319 999 z "},"į":{"ha":368,"x_min":8,"x_max":414,"o":"m 264 631 l 178 631 q 181 669 178 650 q 190 708 185 689 l 368 708 l 244 0 q 202 -38 226 -15 q 156 -87 178 -61 q 119 -143 135 -114 q 104 -199 104 -172 q 182 -260 104 -260 q 215 -258 197 -260 q 256 -249 233 -256 q 264 -321 265 -283 q 212 -332 242 -328 q 153 -336 182 -336 q 98 -330 124 -336 q 52 -310 72 -324 q 20 -275 32 -297 q 8 -221 8 -253 q 21 -158 8 -189 q 53 -98 33 -126 q 99 -44 74 -69 q 153 0 125 -19 l 264 631 m 289 971 q 323 973 304 972 q 354 974 342 974 q 384 973 367 974 q 414 971 401 972 q 407 908 413 939 q 393 847 401 876 q 360 847 378 847 q 329 846 342 846 q 299 847 317 846 q 269 847 282 847 q 276 910 271 879 q 289 971 282 942 z "},"İ":{"ha":383,"x_min":144,"x_max":463,"o":"m 319 999 q 343 1001 329 1000 q 368 1001 357 1001 q 394 1001 383 1001 q 415 999 406 1000 l 240 0 q 217 -2 229 -1 q 190 -3 206 -3 q 164 -2 176 -3 q 144 0 151 -1 l 319 999 m 338 1200 q 372 1202 353 1201 q 403 1203 390 1203 q 433 1202 415 1203 q 463 1200 450 1201 q 456 1137 461 1168 q 442 1076 450 1106 q 408 1076 426 1076 q 378 1075 390 1075 q 348 1076 365 1075 q 318 1076 331 1076 q 325 1140 319 1108 q 338 1200 331 1171 z "},"ı":{"ha":368,"x_min":153,"x_max":368,"o":"m 264 631 l 178 631 q 181 669 178 650 q 190 708 185 689 l 368 708 l 244 0 q 221 -2 236 -1 q 196 -3 206 -3 q 174 -2 188 -3 q 153 0 160 -1 l 264 631 z "},"Ĳ":{"ha":840,"x_min":129,"x_max":896,"o":"m 304 999 q 328 1001 314 1000 q 353 1001 342 1001 q 379 1001 368 1001 q 400 999 390 1000 l 225 0 q 202 -2 214 -1 q 175 -3 190 -3 q 149 -2 161 -3 q 129 0 136 -1 l 304 999 m 786 914 l 613 914 q 617 958 614 938 q 626 999 619 979 l 896 999 l 756 199 q 721 96 744 138 q 664 29 697 54 q 587 -6 631 4 q 493 -17 543 -17 q 424 -12 451 -17 q 374 3 397 -7 q 383 50 376 29 q 400 89 390 71 q 440 77 415 83 q 493 71 465 71 q 552 76 525 71 q 601 95 579 81 q 638 138 622 110 q 661 211 653 165 l 786 914 z "},"ĳ":{"ha":738,"x_min":151,"x_max":764,"o":"m 263 631 l 176 631 q 180 669 176 650 q 189 708 183 689 l 367 708 l 243 0 q 219 -2 235 -1 q 194 -3 204 -3 q 172 -2 186 -3 q 151 0 158 -1 l 263 631 m 260 882 q 263 913 261 894 q 268 943 265 931 q 274 971 271 954 q 281 999 278 988 q 311 1001 293 1000 q 342 1001 329 1001 q 369 1001 353 1001 q 397 999 386 1000 q 394 971 396 988 q 390 943 393 954 q 383 913 388 931 q 376 882 379 894 q 349 880 365 881 q 321 879 332 879 q 290 880 308 879 q 260 882 272 881 m 629 631 l 543 631 q 547 669 543 650 q 556 708 550 689 l 733 708 l 590 -103 q 517 -278 569 -218 q 360 -339 465 -339 q 246 -321 289 -339 q 256 -282 249 -306 q 272 -244 264 -258 q 314 -255 289 -251 q 358 -258 339 -258 q 448 -226 411 -258 q 499 -115 485 -194 l 629 631 m 626 882 q 630 913 628 894 q 635 943 632 931 q 641 971 638 954 q 647 999 644 988 q 678 1001 660 1000 q 708 1001 696 1001 q 736 1001 719 1001 q 764 999 753 1000 q 761 971 763 988 q 757 943 760 954 q 750 913 754 931 q 743 882 746 894 q 715 880 732 881 q 688 879 699 879 q 657 880 675 879 q 626 882 639 881 z "},"Ĵ":{"ha":524,"x_min":40,"x_max":640,"o":"m 453 914 l 279 914 q 283 958 281 938 q 293 999 286 979 l 563 999 l 422 199 q 388 96 411 138 q 331 29 364 54 q 253 -6 297 4 q 160 -17 210 -17 q 91 -12 118 -17 q 40 3 64 -7 q 50 50 43 29 q 67 89 57 71 q 107 77 82 83 q 160 71 132 71 q 219 76 192 71 q 267 95 246 81 q 304 138 289 110 q 328 211 319 165 l 453 914 m 413 1235 q 441 1238 425 1238 q 469 1239 457 1239 q 521 1235 496 1239 l 640 1081 q 589 1076 615 1076 q 539 1081 568 1076 l 463 1175 l 346 1079 q 313 1076 329 1076 q 285 1076 296 1076 q 256 1077 274 1076 q 228 1081 239 1078 l 413 1235 z "},"ĵ":{"ha":365,"x_min":-118,"x_max":490,"o":"m 265 631 l 179 631 q 183 669 179 650 q 192 708 186 689 l 369 708 l 226 -103 q 153 -278 206 -218 q -4 -339 101 -339 q -118 -321 -75 -339 q -108 -282 -115 -306 q -92 -244 -100 -258 q -50 -255 -75 -251 q -6 -258 -25 -258 q 84 -226 47 -258 q 135 -115 121 -194 l 265 631 m 267 1003 q 294 1006 279 1006 q 324 1007 310 1007 q 356 1006 336 1007 q 389 1003 376 1006 l 490 824 q 444 819 469 819 q 393 824 418 819 l 324 947 l 207 824 q 175 820 192 821 q 147 819 158 819 q 119 820 136 819 q 90 824 101 821 l 267 1003 z "},"Ķ":{"ha":792,"x_min":144,"x_max":913,"o":"m 319 999 q 343 1001 329 1000 q 368 1001 357 1001 q 394 1001 383 1001 q 415 999 406 1000 l 240 0 q 217 -2 229 -1 q 190 -3 206 -3 q 164 -2 176 -3 q 144 0 151 -1 l 319 999 m 392 511 l 803 999 q 826 1001 814 1000 q 851 1001 838 1001 q 881 1001 865 1001 q 913 999 897 1000 l 504 514 l 781 0 q 751 -2 765 -1 q 721 -3 736 -3 q 694 -2 706 -3 q 671 0 682 -1 l 392 511 m 394 -89 q 419 -85 406 -86 q 446 -85 433 -85 q 474 -85 461 -85 q 503 -89 488 -86 l 379 -333 q 332 -337 356 -337 q 288 -333 310 -337 l 394 -89 z "},"ķ":{"ha":661,"x_min":122,"x_max":700,"o":"m 340 365 l 558 625 q 585 667 575 646 q 600 708 596 689 q 647 713 625 713 q 700 708 675 713 q 679 656 694 681 q 638 600 664 632 l 442 371 l 638 0 q 588 -4 610 -4 q 533 0 560 -4 l 340 365 m 250 724 q 274 860 264 803 q 283 967 283 917 q 283 996 283 986 q 282 1021 283 1006 q 306 1023 290 1022 q 332 1024 322 1024 q 354 1024 340 1024 q 375 1022 368 1024 q 376 995 376 1007 q 376 972 376 983 q 374 931 376 956 q 367 878 371 906 q 359 822 364 850 q 350 771 354 793 l 214 0 q 190 -2 206 -1 q 167 -3 175 -3 q 143 -2 157 -3 q 122 0 129 -1 l 250 724 m 319 -89 q 344 -85 331 -86 q 371 -85 358 -85 q 399 -85 386 -85 q 428 -89 413 -86 l 304 -333 q 257 -337 281 -337 q 213 -333 235 -337 l 319 -89 z "},"ĸ":{"ha":675,"x_min":122,"x_max":700,"o":"m 340 365 l 558 625 q 585 667 575 646 q 600 708 596 689 q 647 713 625 713 q 700 708 675 713 q 679 656 694 681 q 638 600 664 632 l 442 371 l 638 0 q 588 -4 610 -4 q 533 0 560 -4 l 340 365 m 247 708 q 294 713 264 713 q 338 708 317 713 l 214 0 q 190 -2 206 -1 q 165 -3 175 -3 q 143 -2 157 -3 q 122 0 129 -1 l 247 708 z "},"Ĺ":{"ha":681,"x_min":143,"x_max":661,"o":"m 318 999 q 340 1001 326 1000 q 368 1001 354 1001 q 394 1001 383 1001 q 415 999 406 1000 l 256 88 l 661 88 q 656 42 660 64 q 644 0 653 21 l 143 0 l 318 999 m 443 1235 q 510 1239 476 1239 q 547 1238 528 1239 q 582 1235 567 1238 l 376 1081 q 310 1076 349 1076 q 263 1081 285 1076 l 443 1235 z "},"ĺ":{"ha":385,"x_min":143,"x_max":532,"o":"m 250 724 q 274 860 264 803 q 283 967 283 917 q 283 996 283 986 q 282 1021 283 1006 q 306 1023 290 1022 q 332 1024 322 1024 q 354 1024 340 1024 q 375 1022 368 1024 q 376 995 376 1007 q 376 972 376 983 q 374 931 376 956 q 367 878 371 906 q 359 822 364 850 q 350 771 354 793 l 242 164 q 238 128 238 143 q 244 93 238 106 q 260 74 250 81 q 281 67 269 68 q 303 65 292 65 q 337 68 319 65 q 364 74 354 71 q 372 38 369 58 q 372 1 374 18 q 324 -9 351 -6 q 275 -12 296 -12 q 226 -8 250 -12 q 184 10 203 -3 q 154 44 165 22 q 143 100 143 67 q 147 143 143 118 l 250 724 m 393 1235 q 460 1239 426 1239 q 497 1238 478 1239 q 532 1235 517 1238 l 326 1081 q 260 1076 299 1076 q 213 1081 235 1076 l 393 1235 z "},"Ļ":{"ha":681,"x_min":143,"x_max":661,"o":"m 318 999 q 340 1001 326 1000 q 368 1001 354 1001 q 394 1001 383 1001 q 415 999 406 1000 l 256 88 l 661 88 q 656 42 660 64 q 644 0 653 21 l 143 0 l 318 999 m 339 -89 q 364 -85 350 -86 q 390 -85 378 -85 q 419 -85 406 -85 q 447 -89 432 -86 l 324 -333 q 276 -337 300 -337 q 232 -333 254 -337 l 339 -89 z "},"ļ":{"ha":385,"x_min":82,"x_max":376,"o":"m 250 724 q 274 860 264 803 q 283 967 283 917 q 283 996 283 986 q 282 1021 283 1006 q 306 1023 290 1022 q 332 1024 322 1024 q 354 1024 340 1024 q 375 1022 368 1024 q 376 995 376 1007 q 376 972 376 983 q 374 931 376 956 q 367 878 371 906 q 359 822 364 850 q 350 771 354 793 l 242 164 q 238 128 238 143 q 244 93 238 106 q 260 74 250 81 q 281 67 269 68 q 303 65 292 65 q 337 68 319 65 q 364 74 354 71 q 372 38 369 58 q 372 1 374 18 q 324 -9 351 -6 q 275 -12 296 -12 q 226 -8 250 -12 q 184 10 203 -3 q 154 44 165 22 q 143 100 143 67 q 147 143 143 118 l 250 724 m 189 -89 q 214 -85 200 -86 q 240 -85 228 -85 q 269 -85 256 -85 q 297 -89 282 -86 l 174 -333 q 126 -337 150 -337 q 82 -333 104 -337 l 189 -89 z "},"Ľ":{"ha":681,"x_min":143,"x_max":693,"o":"m 318 999 q 340 1001 326 1000 q 368 1001 354 1001 q 394 1001 383 1001 q 415 999 406 1000 l 256 88 l 661 88 q 656 42 660 64 q 644 0 653 21 l 143 0 l 318 999 m 596 1000 q 615 1002 604 1001 q 647 1003 626 1003 q 672 1002 661 1003 q 693 1000 682 1001 l 635 719 q 592 715 611 715 q 547 719 572 715 l 596 1000 z "},"ľ":{"ha":403,"x_min":143,"x_max":593,"o":"m 250 724 q 274 860 264 803 q 283 967 283 917 q 283 996 283 986 q 282 1021 283 1006 q 306 1023 290 1022 q 332 1024 322 1024 q 354 1024 340 1024 q 375 1022 368 1024 q 376 995 376 1007 q 376 972 376 983 q 374 931 376 956 q 367 878 371 906 q 359 822 364 850 q 350 771 354 793 l 242 164 q 238 128 238 143 q 244 93 238 106 q 260 74 250 81 q 281 67 269 68 q 303 65 292 65 q 337 68 319 65 q 364 74 354 71 q 372 38 369 58 q 372 1 374 18 q 324 -9 351 -6 q 275 -12 296 -12 q 226 -8 250 -12 q 184 10 203 -3 q 154 44 165 22 q 143 100 143 67 q 147 143 143 118 l 250 724 m 496 1021 q 515 1023 504 1022 q 547 1024 526 1024 q 572 1023 561 1024 q 593 1021 582 1022 l 535 740 q 492 736 511 736 q 447 740 472 736 l 496 1021 z "},"Ŀ":{"ha":681,"x_min":143,"x_max":674,"o":"m 318 999 q 340 1001 326 1000 q 368 1001 354 1001 q 394 1001 383 1001 q 415 999 406 1000 l 256 88 l 661 88 q 656 42 660 64 q 644 0 653 21 l 143 0 l 318 999 m 549 550 q 583 552 564 551 q 614 553 601 553 q 644 552 626 553 q 674 550 661 551 q 667 487 672 518 q 653 426 661 456 q 619 426 638 426 q 589 425 601 425 q 559 426 576 425 q 529 426 542 426 q 536 490 531 458 q 549 550 542 521 z "},"ŀ":{"ha":385,"x_min":143,"x_max":511,"o":"m 250 724 q 274 860 264 803 q 283 967 283 917 q 283 996 283 986 q 282 1021 283 1006 q 306 1023 290 1022 q 332 1024 322 1024 q 354 1024 340 1024 q 375 1022 368 1024 q 376 995 376 1007 q 376 972 376 983 q 374 931 376 956 q 367 878 371 906 q 359 822 364 850 q 350 771 354 793 l 242 164 q 238 128 238 143 q 244 93 238 106 q 260 74 250 81 q 281 67 269 68 q 303 65 292 65 q 337 68 319 65 q 364 74 354 71 q 372 38 369 58 q 372 1 374 18 q 324 -9 351 -6 q 275 -12 296 -12 q 226 -8 250 -12 q 184 10 203 -3 q 154 44 165 22 q 143 100 143 67 q 147 143 143 118 l 250 724 m 386 554 q 420 556 401 556 q 451 557 439 557 q 481 556 464 557 q 511 554 499 556 q 504 491 510 522 q 490 431 499 460 q 457 430 475 431 q 426 429 439 429 q 397 430 414 429 q 367 431 379 431 q 374 494 368 463 q 386 554 379 525 z "},"Ł":{"ha":679,"x_min":82,"x_max":661,"o":"m 218 424 l 85 367 q 86 415 82 393 q 101 461 90 436 l 235 519 l 318 999 q 340 1001 326 1000 q 368 1001 354 1001 q 394 1001 383 1001 q 415 999 406 1000 l 336 553 l 558 650 q 547 554 564 606 l 319 456 l 256 88 l 661 88 q 656 42 660 64 q 644 0 653 21 l 143 0 l 218 424 z "},"ł":{"ha":385,"x_min":104,"x_max":433,"o":"m 207 475 l 107 414 q 106 463 104 436 q 119 513 108 489 l 225 578 l 250 724 q 274 860 264 803 q 283 967 283 917 q 283 996 283 986 q 282 1021 283 1006 q 306 1023 290 1022 q 332 1024 322 1024 q 354 1024 340 1024 q 375 1022 368 1024 q 376 995 376 1007 q 376 972 376 983 q 374 931 376 956 q 367 878 371 906 q 359 822 364 850 q 350 771 354 793 l 324 622 l 431 689 q 430 638 433 664 q 418 588 426 613 l 304 518 l 242 164 q 238 128 238 143 q 244 93 238 106 q 260 74 250 81 q 281 67 269 68 q 303 65 292 65 q 337 68 319 65 q 364 74 354 71 q 372 38 369 58 q 372 1 374 18 q 324 -9 351 -6 q 275 -12 296 -12 q 226 -8 250 -12 q 184 10 203 -3 q 154 44 165 22 q 143 100 143 67 q 147 143 143 118 l 207 475 z "},"Ń":{"ha":933,"x_min":143,"x_max":965,"o":"m 318 999 q 344 1001 328 1000 q 372 1001 361 1001 q 397 1001 385 1001 q 418 999 410 1000 l 726 158 l 872 999 q 894 1001 881 1000 q 919 1001 907 1001 q 944 1001 931 1001 q 965 999 957 1000 l 792 0 q 768 -2 783 -1 q 739 -3 753 -3 q 713 -2 728 -3 q 690 0 699 -1 l 382 836 l 238 0 q 215 -2 226 -1 q 189 -3 204 -3 q 162 -2 174 -3 q 143 0 150 -1 l 318 999 m 750 1235 q 817 1239 783 1239 q 854 1238 835 1239 q 889 1235 874 1238 l 683 1081 q 617 1076 656 1076 q 569 1081 592 1076 l 750 1235 z "},"ń":{"ha":789,"x_min":140,"x_max":768,"o":"m 213 414 q 237 548 226 493 q 247 653 247 603 q 247 684 247 672 q 243 711 246 696 q 266 713 251 713 q 290 714 281 714 q 313 713 299 714 q 335 711 328 713 q 338 687 338 700 q 339 654 339 674 q 333 585 339 618 q 321 526 328 551 q 358 590 333 556 q 418 654 383 624 q 497 705 453 685 q 592 725 540 725 q 722 679 675 725 q 768 544 768 633 q 765 497 768 524 q 758 447 763 471 l 681 0 q 658 -2 672 -1 q 633 -3 643 -3 q 610 -2 625 -3 q 589 0 596 -1 l 663 419 q 669 471 667 444 q 672 517 672 497 q 640 612 672 583 q 558 640 608 640 q 463 608 508 640 q 381 520 418 575 q 316 394 343 465 q 275 244 289 322 l 232 0 q 209 -2 224 -1 q 185 -3 194 -3 q 162 -2 176 -3 q 140 0 147 -1 l 213 414 m 619 1004 q 651 1007 635 1007 q 682 1007 667 1007 q 715 1006 699 1007 q 747 1004 732 1006 l 592 824 q 536 819 567 819 q 489 824 514 819 l 619 1004 z "},"Ņ":{"ha":933,"x_min":143,"x_max":965,"o":"m 318 999 q 344 1001 328 1000 q 372 1001 361 1001 q 397 1001 385 1001 q 418 999 410 1000 l 726 158 l 872 999 q 894 1001 881 1000 q 919 1001 907 1001 q 944 1001 931 1001 q 965 999 957 1000 l 792 0 q 768 -2 783 -1 q 739 -3 753 -3 q 713 -2 728 -3 q 690 0 699 -1 l 382 836 l 238 0 q 215 -2 226 -1 q 189 -3 204 -3 q 162 -2 174 -3 q 143 0 150 -1 l 318 999 m 436 -89 q 461 -85 447 -86 q 488 -85 475 -85 q 516 -85 503 -85 q 544 -89 529 -86 l 421 -333 q 374 -337 397 -337 q 329 -333 351 -337 l 436 -89 z "},"ņ":{"ha":789,"x_min":140,"x_max":768,"o":"m 213 414 q 237 548 226 493 q 247 653 247 603 q 247 684 247 672 q 243 711 246 696 q 266 713 251 713 q 290 714 281 714 q 313 713 299 714 q 335 711 328 713 q 338 687 338 700 q 339 654 339 674 q 333 585 339 618 q 321 526 328 551 q 358 590 333 556 q 418 654 383 624 q 497 705 453 685 q 592 725 540 725 q 722 679 675 725 q 768 544 768 633 q 765 497 768 524 q 758 447 763 471 l 681 0 q 658 -2 672 -1 q 633 -3 643 -3 q 610 -2 625 -3 q 589 0 596 -1 l 663 419 q 669 471 667 444 q 672 517 672 497 q 640 612 672 583 q 558 640 608 640 q 463 608 508 640 q 381 520 418 575 q 316 394 343 465 q 275 244 289 322 l 232 0 q 209 -2 224 -1 q 185 -3 194 -3 q 162 -2 176 -3 q 140 0 147 -1 l 213 414 m 368 -89 q 393 -85 379 -86 q 419 -85 407 -85 q 448 -85 435 -85 q 476 -89 461 -86 l 353 -333 q 306 -337 329 -337 q 261 -333 283 -337 l 368 -89 z "},"Ň":{"ha":933,"x_min":143,"x_max":965,"o":"m 318 999 q 344 1001 328 1000 q 372 1001 361 1001 q 397 1001 385 1001 q 418 999 410 1000 l 726 158 l 872 999 q 894 1001 881 1000 q 919 1001 907 1001 q 944 1001 931 1001 q 965 999 957 1000 l 792 0 q 768 -2 783 -1 q 739 -3 753 -3 q 713 -2 728 -3 q 690 0 699 -1 l 382 836 l 238 0 q 215 -2 226 -1 q 189 -3 204 -3 q 162 -2 174 -3 q 143 0 150 -1 l 318 999 m 504 1235 q 556 1239 529 1239 q 581 1238 565 1239 q 611 1235 596 1238 l 675 1142 l 786 1235 q 822 1238 804 1238 q 851 1239 840 1239 q 879 1238 863 1239 q 907 1235 896 1238 l 722 1081 q 695 1077 710 1078 q 668 1076 681 1076 q 642 1077 657 1076 q 614 1081 626 1078 l 504 1235 z "},"ň":{"ha":789,"x_min":140,"x_max":811,"o":"m 213 414 q 237 548 226 493 q 247 653 247 603 q 247 684 247 672 q 243 711 246 696 q 266 713 251 713 q 290 714 281 714 q 313 713 299 714 q 335 711 328 713 q 338 687 338 700 q 339 654 339 674 q 333 585 339 618 q 321 526 328 551 q 358 590 333 556 q 418 654 383 624 q 497 705 453 685 q 592 725 540 725 q 722 679 675 725 q 768 544 768 633 q 765 497 768 524 q 758 447 763 471 l 681 0 q 658 -2 672 -1 q 633 -3 643 -3 q 610 -2 625 -3 q 589 0 596 -1 l 663 419 q 669 471 667 444 q 672 517 672 497 q 640 612 672 583 q 558 640 608 640 q 463 608 508 640 q 381 520 418 575 q 316 394 343 465 q 275 244 289 322 l 232 0 q 209 -2 224 -1 q 185 -3 194 -3 q 162 -2 176 -3 q 140 0 147 -1 l 213 414 m 406 1003 q 450 1007 426 1007 q 478 1006 461 1007 q 508 1003 496 1006 l 582 878 l 703 1003 q 737 1006 718 1006 q 767 1007 756 1007 q 811 1003 790 1007 l 639 824 q 607 820 626 821 q 574 819 588 819 q 545 820 561 819 q 515 824 529 821 l 406 1003 z "},"ŉ":{"ha":789,"x_min":140,"x_max":768,"o":"m 213 414 q 237 548 226 493 q 247 653 247 603 q 247 684 247 672 q 243 711 246 696 q 266 713 251 713 q 290 714 281 714 q 313 713 299 714 q 335 711 328 713 q 338 687 338 700 q 339 654 339 674 q 333 585 339 618 q 321 526 328 551 q 358 590 333 556 q 418 654 383 624 q 497 705 453 685 q 592 725 540 725 q 722 679 675 725 q 768 544 768 633 q 765 497 768 524 q 758 447 763 471 l 681 0 q 658 -2 672 -1 q 633 -3 643 -3 q 610 -2 625 -3 q 589 0 596 -1 l 663 419 q 669 471 667 444 q 672 517 672 497 q 640 612 672 583 q 558 640 608 640 q 463 608 508 640 q 381 520 418 575 q 316 394 343 465 q 275 244 289 322 l 232 0 q 209 -2 224 -1 q 185 -3 194 -3 q 162 -2 176 -3 q 140 0 147 -1 l 213 414 m 288 1021 q 304 1022 290 1021 q 336 1024 318 1024 q 369 1022 353 1024 q 392 1019 385 1021 l 274 788 q 251 785 260 785 q 232 785 242 785 q 210 785 221 785 q 189 788 200 786 l 288 1021 z "},"Ŋ":{"ha":935,"x_min":143,"x_max":965,"o":"m 318 999 q 344 1001 328 1000 q 372 1001 361 1001 q 397 1001 385 1001 q 418 999 410 1000 l 726 158 l 872 999 q 894 1001 881 1000 q 919 1001 907 1001 q 944 1001 931 1001 q 965 999 957 1000 l 771 -124 q 736 -226 760 -185 q 679 -293 713 -268 q 602 -328 646 -318 q 508 -339 558 -339 q 440 -334 467 -339 q 389 -319 413 -329 q 399 -272 392 -293 q 415 -233 406 -251 q 456 -245 431 -239 q 508 -251 481 -251 q 567 -247 540 -251 q 616 -227 594 -242 q 653 -185 638 -212 q 676 -111 668 -157 l 694 0 l 382 836 l 238 0 q 215 -2 226 -1 q 189 -3 204 -3 q 162 -2 174 -3 q 143 0 150 -1 l 318 999 z "},"ŋ":{"ha":788,"x_min":140,"x_max":768,"o":"m 213 414 q 237 548 226 493 q 247 653 247 603 q 247 684 247 672 q 243 711 246 696 q 266 713 251 713 q 290 714 281 714 q 313 713 299 714 q 335 711 328 713 q 338 687 338 700 q 339 654 339 674 q 333 585 339 618 q 321 526 328 551 q 358 590 333 556 q 418 654 383 624 q 497 705 453 685 q 592 725 540 725 q 722 679 675 725 q 768 544 768 633 q 765 497 768 524 q 758 447 763 471 l 661 -103 q 588 -278 640 -218 q 431 -339 536 -339 q 317 -321 360 -339 q 327 -282 319 -306 q 343 -244 335 -258 q 385 -255 360 -251 q 429 -258 410 -258 q 519 -226 482 -258 q 569 -115 556 -194 l 663 419 q 669 471 667 444 q 672 517 672 497 q 640 612 672 583 q 558 640 608 640 q 463 608 508 640 q 381 520 418 575 q 316 394 343 465 q 275 244 289 322 l 232 0 q 209 -2 224 -1 q 185 -3 194 -3 q 162 -2 176 -3 q 140 0 147 -1 l 213 414 z "},"Ō":{"ha":978,"x_min":168,"x_max":985,"o":"m 485 -17 q 347 10 406 -17 q 248 86 288 38 q 188 201 208 135 q 168 346 168 268 q 204 606 168 483 q 306 819 240 728 q 463 963 371 910 q 667 1015 554 1015 q 807 987 747 1015 q 906 909 867 958 q 965 794 946 860 q 985 653 985 728 q 949 388 985 511 q 847 176 913 265 q 688 35 781 86 q 485 -17 596 -17 m 500 71 q 652 116 582 71 q 774 238 722 161 q 856 419 826 315 q 885 643 885 524 q 872 758 885 706 q 830 847 858 810 q 758 906 801 885 q 651 928 714 928 q 496 883 567 928 q 374 762 425 839 q 296 581 324 685 q 268 356 268 476 q 324 148 268 225 q 500 71 379 71 m 899 1186 q 896 1143 899 1167 q 886 1101 893 1119 l 472 1101 q 475 1144 472 1121 q 485 1186 478 1167 l 899 1186 z "},"ō":{"ha":774,"x_min":135,"x_max":774,"o":"m 392 64 q 520 101 467 64 q 608 196 574 139 q 660 322 643 253 q 676 454 676 392 q 634 595 676 546 q 517 644 592 644 q 388 607 442 644 q 300 513 335 569 q 249 386 265 456 q 232 254 232 317 q 274 113 232 163 q 392 64 317 64 m 382 -17 q 199 52 264 -17 q 135 253 135 121 q 158 408 135 325 q 228 561 181 490 q 351 678 276 632 q 526 725 425 725 q 709 656 644 725 q 774 456 774 588 q 751 301 774 383 q 680 147 728 218 q 558 30 632 76 q 382 -17 483 -17 m 768 951 q 765 908 768 932 q 756 867 763 885 l 375 867 q 378 909 375 886 q 388 951 381 932 l 768 951 z "},"Ŏ":{"ha":978,"x_min":168,"x_max":985,"o":"m 485 -17 q 347 10 406 -17 q 248 86 288 38 q 188 201 208 135 q 168 346 168 268 q 204 606 168 483 q 306 819 240 728 q 463 963 371 910 q 667 1015 554 1015 q 807 987 747 1015 q 906 909 867 958 q 965 794 946 860 q 985 653 985 728 q 949 388 985 511 q 847 176 913 265 q 688 35 781 86 q 485 -17 596 -17 m 500 71 q 652 116 582 71 q 774 238 722 161 q 856 419 826 315 q 885 643 885 524 q 872 758 885 706 q 830 847 858 810 q 758 906 801 885 q 651 928 714 928 q 496 883 567 928 q 374 762 425 839 q 296 581 324 685 q 268 356 268 476 q 324 148 268 225 q 500 71 379 71 m 500 1235 q 543 1239 522 1239 q 583 1235 563 1239 q 590 1201 585 1217 q 607 1174 596 1185 q 638 1156 618 1163 q 688 1149 657 1149 q 739 1154 718 1149 q 774 1170 760 1160 q 799 1197 789 1181 q 817 1235 808 1213 q 863 1239 839 1239 q 904 1235 883 1239 q 868 1153 892 1185 q 814 1105 844 1122 q 750 1081 783 1088 q 686 1075 717 1075 q 621 1082 654 1075 q 560 1106 588 1089 q 517 1155 533 1124 q 500 1235 500 1186 z "},"ŏ":{"ha":774,"x_min":135,"x_max":779,"o":"m 392 64 q 520 101 467 64 q 608 196 574 139 q 660 322 643 253 q 676 454 676 392 q 634 595 676 546 q 517 644 592 644 q 388 607 442 644 q 300 513 335 569 q 249 386 265 456 q 232 254 232 317 q 274 113 232 163 q 392 64 317 64 m 382 -17 q 199 52 264 -17 q 135 253 135 121 q 158 408 135 325 q 228 561 181 490 q 351 678 276 632 q 526 725 425 725 q 709 656 644 725 q 774 456 774 588 q 751 301 774 383 q 680 147 728 218 q 558 30 632 76 q 382 -17 483 -17 m 375 1003 q 421 1007 393 1007 q 440 1006 432 1007 q 458 1003 447 1006 q 463 963 458 982 q 480 928 468 943 q 511 903 492 913 q 561 894 531 894 q 615 903 593 894 q 651 928 636 913 q 674 963 665 943 q 689 1003 682 982 q 732 1007 710 1007 q 779 1003 760 1007 q 743 913 767 949 q 690 857 719 878 q 624 828 660 836 q 553 819 589 819 q 489 827 521 819 q 431 856 457 835 q 389 912 404 876 q 375 1003 374 947 z "},"Ő":{"ha":978,"x_min":168,"x_max":985,"o":"m 485 -17 q 347 10 406 -17 q 248 86 288 38 q 188 201 208 135 q 168 346 168 268 q 204 606 168 483 q 306 819 240 728 q 463 963 371 910 q 667 1015 554 1015 q 807 987 747 1015 q 906 909 867 958 q 965 794 946 860 q 985 653 985 728 q 949 388 985 511 q 847 176 913 265 q 688 35 781 86 q 485 -17 596 -17 m 500 71 q 652 116 582 71 q 774 238 722 161 q 856 419 826 315 q 885 643 885 524 q 872 758 885 706 q 830 847 858 810 q 758 906 801 885 q 651 928 714 928 q 496 883 567 928 q 374 762 425 839 q 296 581 324 685 q 268 356 268 476 q 324 148 268 225 q 500 71 379 71 m 613 1238 q 644 1240 628 1240 q 676 1240 661 1240 q 710 1240 693 1240 q 742 1238 726 1239 l 576 1079 q 519 1075 551 1075 q 471 1079 496 1075 l 613 1238 m 847 1238 q 879 1240 863 1240 q 911 1240 896 1240 q 944 1240 928 1240 q 976 1238 961 1239 l 811 1079 q 754 1075 786 1075 q 706 1079 731 1075 l 847 1238 z "},"ő":{"ha":774,"x_min":135,"x_max":843,"o":"m 392 64 q 520 101 467 64 q 608 196 574 139 q 660 322 643 253 q 676 454 676 392 q 634 595 676 546 q 517 644 592 644 q 388 607 442 644 q 300 513 335 569 q 249 386 265 456 q 232 254 232 317 q 274 113 232 163 q 392 64 317 64 m 382 -17 q 199 52 264 -17 q 135 253 135 121 q 158 408 135 325 q 228 561 181 490 q 351 678 276 632 q 526 725 425 725 q 709 656 644 725 q 774 456 774 588 q 751 301 774 383 q 680 147 728 218 q 558 30 632 76 q 382 -17 483 -17 m 715 1004 q 747 1007 731 1007 q 778 1007 763 1007 q 811 1006 794 1007 q 843 1004 828 1006 l 688 824 q 632 819 663 819 q 585 824 610 819 l 715 1004 m 496 1004 q 527 1007 511 1007 q 558 1007 543 1007 q 592 1006 575 1007 q 624 1004 608 1006 l 468 824 q 413 819 443 819 q 365 824 390 819 l 496 1004 z "},"Œ":{"ha":1254,"x_min":168,"x_max":1365,"o":"m 1217 88 q 1215 67 1215 79 q 1211 44 1214 56 q 1207 22 1210 35 q 1201 0 1204 8 l 664 0 q 587 -12 628 -7 q 500 -17 546 -17 q 351 10 414 -17 q 248 86 289 38 q 188 201 207 135 q 168 346 168 268 q 202 606 168 483 q 300 819 236 728 q 456 963 364 910 q 667 1015 549 1015 q 765 1010 717 1015 q 851 999 813 1006 l 1365 999 q 1365 978 1365 992 q 1361 954 1364 965 l 1350 911 l 933 911 l 874 574 l 1208 574 q 1208 553 1208 565 q 1204 531 1207 542 q 1199 508 1201 521 q 1193 486 1196 494 l 858 486 l 789 88 l 1217 88 m 836 911 q 762 928 801 922 q 660 935 722 935 q 499 890 571 935 q 375 767 426 844 q 296 588 324 690 q 268 369 268 485 q 282 242 268 299 q 326 147 296 186 q 403 86 356 107 q 518 65 450 65 q 625 72 585 65 q 690 85 665 78 l 836 911 z "},"œ":{"ha":1196,"x_min":129,"x_max":1228,"o":"m 744 278 q 793 121 744 178 q 947 64 842 64 q 1003 68 974 64 q 1058 78 1032 72 q 1108 92 1085 85 q 1149 104 1132 99 q 1159 67 1156 89 q 1163 29 1163 46 q 1115 13 1143 21 q 1054 -2 1086 4 q 989 -12 1022 -8 q 926 -17 956 -17 q 822 -3 865 -17 q 748 33 778 10 q 699 89 718 57 q 672 160 681 121 q 555 34 628 85 q 376 -17 482 -17 q 194 52 258 -17 q 129 253 129 121 q 152 408 129 325 q 223 561 175 490 q 345 678 271 632 q 521 725 419 725 q 606 710 568 725 q 672 671 644 696 q 718 613 700 646 q 743 542 736 579 q 872 674 794 622 q 1049 725 950 725 q 1182 680 1136 725 q 1228 571 1228 635 q 1199 468 1228 511 q 1118 395 1169 425 q 997 346 1067 365 q 846 314 926 326 l 744 297 l 744 278 m 386 64 q 515 101 461 64 q 603 196 568 139 q 654 322 638 253 q 671 454 671 392 q 628 595 671 546 q 511 644 586 644 q 383 607 436 644 q 294 513 329 569 q 243 386 260 456 q 226 254 226 317 q 269 113 226 163 q 386 64 311 64 m 836 382 q 1054 444 976 404 q 1132 557 1132 485 q 1106 620 1132 594 q 1028 646 1079 646 q 933 622 978 646 q 853 560 889 599 q 792 472 818 522 q 754 368 767 422 l 836 382 z "},"Ŕ":{"ha":785,"x_min":143,"x_max":807,"o":"m 319 1003 q 508 1015 419 1015 q 619 1003 565 1015 q 715 962 674 990 q 782 888 757 933 q 807 776 807 843 q 783 648 807 703 q 720 552 758 593 q 635 483 682 511 q 544 433 589 454 l 751 0 q 722 -3 736 -3 q 694 -3 708 -3 q 666 -3 679 -3 q 642 0 653 -3 l 418 467 l 474 490 q 546 524 506 504 q 621 576 586 544 q 679 651 656 607 q 703 758 703 696 q 506 933 703 933 q 456 932 478 933 q 403 926 435 931 l 240 0 q 215 -2 229 -1 q 189 -3 201 -3 q 163 -2 175 -3 q 143 0 151 -1 l 319 1003 m 619 1235 q 686 1239 653 1239 q 724 1238 704 1239 q 758 1235 743 1238 l 553 1081 q 486 1076 525 1076 q 439 1081 461 1076 l 619 1235 z "},"ŕ":{"ha":478,"x_min":122,"x_max":650,"o":"m 194 414 q 219 548 208 493 q 229 653 229 603 q 228 684 229 672 q 225 711 228 696 q 248 713 233 713 q 272 714 263 714 q 295 713 281 714 q 317 711 310 713 q 320 689 319 700 q 321 658 321 678 q 319 622 321 639 q 315 590 318 606 q 359 637 336 615 q 409 675 382 658 q 468 701 436 692 q 540 711 500 711 q 563 710 550 711 q 582 707 575 710 q 578 665 582 688 q 560 619 574 643 q 544 623 557 621 q 521 625 532 625 q 445 610 483 625 q 374 563 407 596 q 315 478 340 531 q 275 350 289 425 l 214 0 q 191 -2 206 -1 q 167 -3 176 -3 q 144 -2 158 -3 q 122 0 129 -1 l 194 414 m 522 1004 q 553 1007 538 1007 q 585 1007 569 1007 q 618 1006 601 1007 q 650 1004 635 1006 l 494 824 q 439 819 469 819 q 392 824 417 819 l 522 1004 z "},"Ŗ":{"ha":785,"x_min":143,"x_max":807,"o":"m 319 1003 q 508 1015 419 1015 q 619 1003 565 1015 q 715 962 674 990 q 782 888 757 933 q 807 776 807 843 q 783 648 807 703 q 720 552 758 593 q 635 483 682 511 q 544 433 589 454 l 751 0 q 722 -3 736 -3 q 694 -3 708 -3 q 666 -3 679 -3 q 642 0 653 -3 l 418 467 l 474 490 q 546 524 506 504 q 621 576 586 544 q 679 651 656 607 q 703 758 703 696 q 506 933 703 933 q 456 932 478 933 q 403 926 435 931 l 240 0 q 215 -2 229 -1 q 189 -3 201 -3 q 163 -2 175 -3 q 143 0 151 -1 l 319 1003 m 389 -89 q 414 -85 400 -86 q 440 -85 428 -85 q 469 -85 456 -85 q 497 -89 482 -86 l 374 -333 q 326 -337 350 -337 q 282 -333 304 -337 l 389 -89 z "},"ŗ":{"ha":478,"x_min":-11,"x_max":582,"o":"m 194 414 q 219 548 208 493 q 229 653 229 603 q 228 684 229 672 q 225 711 228 696 q 248 713 233 713 q 272 714 263 714 q 295 713 281 714 q 317 711 310 713 q 320 689 319 700 q 321 658 321 678 q 319 622 321 639 q 315 590 318 606 q 359 637 336 615 q 409 675 382 658 q 468 701 436 692 q 540 711 500 711 q 563 710 550 711 q 582 707 575 710 q 578 665 582 688 q 560 619 574 643 q 544 623 557 621 q 521 625 532 625 q 445 610 483 625 q 374 563 407 596 q 315 478 340 531 q 275 350 289 425 l 214 0 q 191 -2 206 -1 q 167 -3 176 -3 q 144 -2 158 -3 q 122 0 129 -1 l 194 414 m 96 -89 q 121 -85 107 -86 q 147 -85 135 -85 q 176 -85 163 -85 q 204 -89 189 -86 l 81 -333 q 33 -337 57 -337 q -11 -333 11 -337 l 96 -89 z "},"Ř":{"ha":785,"x_min":143,"x_max":807,"o":"m 319 1003 q 508 1015 419 1015 q 619 1003 565 1015 q 715 962 674 990 q 782 888 757 933 q 807 776 807 843 q 783 648 807 703 q 720 552 758 593 q 635 483 682 511 q 544 433 589 454 l 751 0 q 722 -3 736 -3 q 694 -3 708 -3 q 666 -3 679 -3 q 642 0 653 -3 l 418 467 l 474 490 q 546 524 506 504 q 621 576 586 544 q 679 651 656 607 q 703 758 703 696 q 506 933 703 933 q 456 932 478 933 q 403 926 435 931 l 240 0 q 215 -2 229 -1 q 189 -3 201 -3 q 163 -2 175 -3 q 143 0 151 -1 l 319 1003 m 390 1235 q 442 1239 415 1239 q 467 1238 451 1239 q 497 1235 482 1238 l 561 1142 l 672 1235 q 708 1238 690 1238 q 738 1239 726 1239 q 765 1238 749 1239 q 793 1235 782 1238 l 608 1081 q 581 1077 596 1078 q 554 1076 567 1076 q 528 1077 543 1076 q 500 1081 513 1078 l 390 1235 z "},"ř":{"ha":478,"x_min":122,"x_max":688,"o":"m 194 414 q 219 548 208 493 q 229 653 229 603 q 228 684 229 672 q 225 711 228 696 q 248 713 233 713 q 272 714 263 714 q 295 713 281 714 q 317 711 310 713 q 320 689 319 700 q 321 658 321 678 q 319 622 321 639 q 315 590 318 606 q 359 637 336 615 q 409 675 382 658 q 468 701 436 692 q 540 711 500 711 q 563 710 550 711 q 582 707 575 710 q 578 665 582 688 q 560 619 574 643 q 544 623 557 621 q 521 625 532 625 q 445 610 483 625 q 374 563 407 596 q 315 478 340 531 q 275 350 289 425 l 214 0 q 191 -2 206 -1 q 167 -3 176 -3 q 144 -2 158 -3 q 122 0 129 -1 l 194 414 m 282 1003 q 326 1007 303 1007 q 355 1006 338 1007 q 385 1003 372 1006 l 458 878 l 579 1003 q 613 1006 594 1006 q 643 1007 632 1007 q 688 1003 667 1007 l 515 824 q 483 820 503 821 q 450 819 464 819 q 422 820 438 819 q 392 824 406 821 l 282 1003 z "},"Ś":{"ha":739,"x_min":78,"x_max":797,"o":"m 115 111 q 212 83 165 94 q 324 72 258 72 q 533 133 464 72 q 603 293 603 194 q 596 348 603 322 q 572 397 589 374 q 524 442 554 421 q 450 488 494 464 q 363 537 401 513 q 296 592 324 561 q 253 660 268 622 q 239 749 239 697 q 263 856 239 807 q 332 940 288 904 q 439 995 376 975 q 579 1015 501 1015 q 706 1003 653 1015 q 797 976 760 992 q 784 931 793 954 q 764 890 775 907 q 683 919 732 907 q 586 932 635 932 q 406 889 469 932 q 342 763 342 846 q 349 707 342 732 q 375 660 357 682 q 422 617 393 638 q 490 576 450 597 q 585 520 544 547 q 653 463 626 493 q 694 394 681 432 q 708 310 708 357 q 678 169 708 231 q 597 67 649 108 q 474 4 544 25 q 322 -17 403 -17 q 177 -5 235 -17 q 78 22 119 7 q 93 67 83 43 q 115 111 103 92 m 621 1235 q 688 1239 654 1239 q 725 1238 706 1239 q 760 1235 744 1238 l 554 1081 q 488 1076 526 1076 q 440 1081 463 1076 l 621 1235 z "},"ś":{"ha":590,"x_min":67,"x_max":618,"o":"m 304 347 q 259 367 283 356 q 214 399 235 379 q 179 449 193 419 q 165 521 165 478 q 238 669 165 614 q 438 725 310 725 q 551 710 503 725 q 618 685 599 696 q 603 646 611 664 q 583 608 594 628 q 522 631 564 618 q 426 644 479 644 q 263 531 263 644 q 287 465 263 489 q 374 415 311 440 l 388 410 q 446 385 415 399 q 502 351 476 372 q 544 301 528 331 q 561 226 561 271 q 538 115 561 161 q 474 40 514 69 q 380 -3 433 11 q 265 -17 326 -17 q 148 -6 201 -17 q 67 18 94 4 q 94 100 74 65 q 130 87 108 93 q 176 76 151 81 q 224 69 200 72 q 268 67 247 67 q 410 97 360 67 q 461 204 461 128 q 431 285 461 260 q 347 331 401 310 l 304 347 m 472 1004 q 503 1007 488 1007 q 535 1007 519 1007 q 568 1006 551 1007 q 600 1004 585 1006 l 444 824 q 389 819 419 819 q 342 824 367 819 l 472 1004 z "},"Ŝ":{"ha":739,"x_min":78,"x_max":797,"o":"m 115 111 q 212 83 165 94 q 324 72 258 72 q 533 133 464 72 q 603 293 603 194 q 596 348 603 322 q 572 397 589 374 q 524 442 554 421 q 450 488 494 464 q 363 537 401 513 q 296 592 324 561 q 253 660 268 622 q 239 749 239 697 q 263 856 239 807 q 332 940 288 904 q 439 995 376 975 q 579 1015 501 1015 q 706 1003 653 1015 q 797 976 760 992 q 784 931 793 954 q 764 890 775 907 q 683 919 732 907 q 586 932 635 932 q 406 889 469 932 q 342 763 342 846 q 349 707 342 732 q 375 660 357 682 q 422 617 393 638 q 490 576 450 597 q 585 520 544 547 q 653 463 626 493 q 694 394 681 432 q 708 310 708 357 q 678 169 708 231 q 597 67 649 108 q 474 4 544 25 q 322 -17 403 -17 q 177 -5 235 -17 q 78 22 119 7 q 93 67 83 43 q 115 111 103 92 m 533 1235 q 562 1238 546 1238 q 590 1239 578 1239 q 642 1235 617 1239 l 761 1081 q 710 1076 736 1076 q 660 1081 689 1076 l 583 1175 l 467 1079 q 433 1076 450 1076 q 406 1076 417 1076 q 377 1077 394 1076 q 349 1081 360 1078 l 533 1235 z "},"ŝ":{"ha":590,"x_min":67,"x_max":631,"o":"m 304 347 q 259 367 283 356 q 214 399 235 379 q 179 449 193 419 q 165 521 165 478 q 238 669 165 614 q 438 725 310 725 q 551 710 503 725 q 618 685 599 696 q 603 646 611 664 q 583 608 594 628 q 522 631 564 618 q 426 644 479 644 q 263 531 263 644 q 287 465 263 489 q 374 415 311 440 l 388 410 q 446 385 415 399 q 502 351 476 372 q 544 301 528 331 q 561 226 561 271 q 538 115 561 161 q 474 40 514 69 q 380 -3 433 11 q 265 -17 326 -17 q 148 -6 201 -17 q 67 18 94 4 q 94 100 74 65 q 130 87 108 93 q 176 76 151 81 q 224 69 200 72 q 268 67 247 67 q 410 97 360 67 q 461 204 461 128 q 431 285 461 260 q 347 331 401 310 l 304 347 m 407 1003 q 435 1006 419 1006 q 464 1007 450 1007 q 497 1006 476 1007 q 529 1003 517 1006 l 631 824 q 585 819 610 819 q 533 824 558 819 l 464 947 l 347 824 q 315 820 332 821 q 288 819 299 819 q 259 820 276 819 q 231 824 242 821 l 407 1003 z "},"Ş":{"ha":740,"x_min":79,"x_max":781,"o":"m 324 -17 q 178 -5 236 -17 q 79 22 121 7 q 94 67 85 43 q 117 111 104 92 q 213 83 167 94 q 325 72 260 72 q 535 133 465 72 q 604 293 604 194 q 597 348 604 322 q 571 397 589 374 q 523 442 553 421 q 449 488 493 464 q 360 537 400 513 q 290 592 319 561 q 245 660 261 622 q 229 751 229 699 q 252 857 229 808 q 318 941 275 906 q 423 996 361 976 q 563 1015 485 1015 q 690 1003 636 1015 q 781 976 743 992 q 767 931 776 954 q 747 890 758 907 q 667 919 715 907 q 569 932 618 932 q 392 889 453 932 q 332 763 332 846 q 369 660 332 701 q 489 576 407 619 q 585 520 543 547 q 654 463 626 493 q 696 394 682 432 q 710 310 710 357 q 687 185 710 240 q 623 90 664 131 q 526 25 582 50 q 406 -10 471 0 l 363 -85 q 374 -83 369 -83 q 388 -83 379 -83 q 479 -115 449 -83 q 510 -189 510 -147 q 494 -258 510 -231 q 453 -303 479 -286 q 393 -327 426 -319 q 324 -335 360 -335 q 247 -326 279 -335 q 197 -308 214 -317 q 207 -273 200 -293 q 224 -240 214 -253 q 269 -254 242 -247 q 319 -261 297 -261 q 353 -260 336 -261 q 385 -252 371 -258 q 409 -233 400 -246 q 418 -199 418 -221 q 394 -158 418 -171 q 329 -144 371 -144 q 292 -147 310 -144 q 257 -153 274 -150 l 251 -147 l 324 -17 z "},"ş":{"ha":590,"x_min":67,"x_max":618,"o":"m 246 -17 q 140 -4 188 -14 q 67 18 93 6 q 94 100 74 65 q 130 87 108 93 q 176 76 151 81 q 224 69 200 72 q 268 67 247 67 q 410 97 360 67 q 461 204 461 128 q 431 285 461 260 q 347 331 401 310 l 304 347 q 259 367 283 356 q 214 399 235 379 q 179 449 193 419 q 165 521 165 478 q 238 669 165 614 q 438 725 310 725 q 551 710 503 725 q 618 685 599 696 q 603 646 611 664 q 583 608 594 628 q 522 631 564 618 q 426 644 479 644 q 263 531 263 644 q 287 465 263 489 q 374 415 311 440 l 388 410 q 446 385 415 399 q 502 351 476 372 q 544 301 528 331 q 561 226 561 271 q 543 128 561 169 q 494 57 525 86 q 419 10 463 28 q 326 -12 376 -7 l 285 -85 q 297 -83 292 -83 q 310 -83 301 -83 q 401 -115 371 -83 q 432 -189 432 -147 q 417 -258 432 -231 q 375 -303 401 -286 q 315 -327 349 -319 q 246 -335 282 -335 q 169 -326 201 -335 q 119 -308 136 -317 q 129 -273 122 -293 q 146 -240 136 -253 q 192 -254 164 -247 q 242 -261 219 -261 q 276 -260 258 -261 q 308 -252 293 -258 q 331 -233 322 -246 q 340 -199 340 -221 q 317 -158 340 -171 q 251 -144 293 -144 q 214 -147 232 -144 q 179 -153 196 -150 l 174 -147 l 246 -17 z "},"Š":{"ha":739,"x_min":78,"x_max":819,"o":"m 115 111 q 212 83 165 94 q 324 72 258 72 q 533 133 464 72 q 603 293 603 194 q 596 348 603 322 q 572 397 589 374 q 524 442 554 421 q 450 488 494 464 q 363 537 401 513 q 296 592 324 561 q 253 660 268 622 q 239 749 239 697 q 263 856 239 807 q 332 940 288 904 q 439 995 376 975 q 579 1015 501 1015 q 706 1003 653 1015 q 797 976 760 992 q 784 931 793 954 q 764 890 775 907 q 683 919 732 907 q 586 932 635 932 q 406 889 469 932 q 342 763 342 846 q 349 707 342 732 q 375 660 357 682 q 422 617 393 638 q 490 576 450 597 q 585 520 544 547 q 653 463 626 493 q 694 394 681 432 q 708 310 708 357 q 678 169 708 231 q 597 67 649 108 q 474 4 544 25 q 322 -17 403 -17 q 177 -5 235 -17 q 78 22 119 7 q 93 67 83 43 q 115 111 103 92 m 417 1235 q 468 1239 442 1239 q 493 1238 478 1239 q 524 1235 508 1238 l 588 1142 l 699 1235 q 735 1238 717 1238 q 764 1239 753 1239 q 792 1238 775 1239 q 819 1235 808 1238 l 635 1081 q 608 1077 622 1078 q 581 1076 593 1076 q 554 1077 569 1076 q 526 1081 539 1078 l 417 1235 z "},"š":{"ha":590,"x_min":67,"x_max":675,"o":"m 304 347 q 259 367 283 356 q 214 399 235 379 q 179 449 193 419 q 165 521 165 478 q 238 669 165 614 q 438 725 310 725 q 551 710 503 725 q 618 685 599 696 q 603 646 611 664 q 583 608 594 628 q 522 631 564 618 q 426 644 479 644 q 263 531 263 644 q 287 465 263 489 q 374 415 311 440 l 388 410 q 446 385 415 399 q 502 351 476 372 q 544 301 528 331 q 561 226 561 271 q 538 115 561 161 q 474 40 514 69 q 380 -3 433 11 q 265 -17 326 -17 q 148 -6 201 -17 q 67 18 94 4 q 94 100 74 65 q 130 87 108 93 q 176 76 151 81 q 224 69 200 72 q 268 67 247 67 q 410 97 360 67 q 461 204 461 128 q 431 285 461 260 q 347 331 401 310 l 304 347 m 269 1003 q 314 1007 290 1007 q 342 1006 325 1007 q 372 1003 360 1006 l 446 878 l 567 1003 q 601 1006 582 1006 q 631 1007 619 1007 q 675 1003 654 1007 l 503 824 q 471 820 490 821 q 438 819 451 819 q 409 820 425 819 q 379 824 393 821 l 269 1003 z "},"Ţ":{"ha":679,"x_min":151,"x_max":814,"o":"m 447 913 l 192 913 q 207 999 192 956 l 814 999 q 799 913 814 956 l 543 913 l 383 0 q 360 -2 374 -1 q 335 -3 347 -3 q 308 -2 321 -3 q 288 0 294 -1 l 447 913 m 258 -89 q 283 -85 269 -86 q 310 -85 297 -85 q 338 -85 325 -85 q 367 -89 351 -86 l 243 -333 q 196 -337 219 -337 q 151 -333 174 -337 l 258 -89 z "},"ţ":{"ha":454,"x_min":113,"x_max":540,"o":"m 254 631 l 139 631 q 141 669 139 650 q 151 708 143 688 l 267 708 q 278 785 274 744 q 283 879 283 826 l 283 894 q 332 906 306 901 q 374 910 358 910 q 375 883 375 894 q 375 860 375 871 q 369 791 375 833 q 357 708 364 749 l 540 708 q 538 670 540 689 q 528 631 536 651 l 346 631 l 264 169 q 261 151 261 160 q 261 135 261 142 q 286 77 261 89 q 342 65 311 65 q 428 79 388 65 q 431 42 431 61 q 431 0 432 24 q 311 -15 378 -15 q 206 15 246 -15 q 167 117 167 46 q 171 165 167 138 l 254 631 m 219 -89 q 244 -85 231 -86 q 271 -85 258 -85 q 299 -85 286 -85 q 328 -89 313 -86 l 204 -333 q 157 -337 181 -337 q 113 -333 135 -337 l 219 -89 z "},"Ť":{"ha":679,"x_min":192,"x_max":814,"o":"m 447 913 l 192 913 q 207 999 192 956 l 814 999 q 799 913 814 956 l 543 913 l 383 0 q 360 -2 374 -1 q 335 -3 347 -3 q 308 -2 321 -3 q 288 0 294 -1 l 447 913 m 360 1235 q 411 1239 385 1239 q 436 1238 421 1239 q 467 1235 451 1238 l 531 1142 l 642 1235 q 678 1238 660 1238 q 707 1239 696 1239 q 735 1238 718 1239 q 763 1235 751 1238 l 578 1081 q 551 1077 565 1078 q 524 1076 536 1076 q 497 1077 513 1076 q 469 1081 482 1078 l 360 1235 z "},"ť":{"ha":454,"x_min":139,"x_max":608,"o":"m 254 631 l 139 631 q 141 669 139 650 q 151 708 143 688 l 267 708 q 278 785 274 744 q 283 879 283 826 l 283 894 q 332 906 306 901 q 374 910 358 910 q 375 883 375 894 q 375 860 375 871 q 369 791 375 833 q 357 708 364 749 l 540 708 q 538 670 540 689 q 528 631 536 651 l 346 631 l 264 169 q 261 151 261 160 q 261 135 261 142 q 286 77 261 89 q 342 65 311 65 q 428 79 388 65 q 431 42 431 61 q 431 0 432 24 q 311 -15 378 -15 q 206 15 246 -15 q 167 117 167 46 q 171 165 167 138 l 254 631 m 511 1056 q 531 1058 519 1057 q 563 1058 542 1058 q 587 1058 576 1058 q 608 1056 597 1057 l 550 775 q 507 771 526 771 q 463 775 488 771 l 511 1056 z "},"Ŧ":{"ha":679,"x_min":192,"x_max":814,"o":"m 374 493 l 224 493 q 236 569 224 532 l 386 569 l 447 913 l 192 913 q 207 999 192 956 l 814 999 q 799 913 814 956 l 543 913 l 482 569 l 644 569 q 642 531 644 550 q 632 493 639 511 l 469 493 l 383 0 q 360 -2 374 -1 q 335 -3 347 -3 q 308 -2 321 -3 q 288 0 294 -1 l 374 493 z "},"ŧ":{"ha":454,"x_min":92,"x_max":540,"o":"m 206 364 l 92 364 q 104 440 92 403 l 219 440 l 254 631 l 139 631 q 141 669 139 650 q 151 708 143 688 l 267 708 q 278 785 274 744 q 283 879 283 826 l 283 894 q 332 906 306 901 q 374 910 358 910 q 375 883 375 894 q 375 860 375 871 q 369 791 375 833 q 357 708 364 749 l 540 708 q 538 670 540 689 q 528 631 536 651 l 346 631 l 311 440 l 494 440 q 492 401 494 421 q 482 364 489 382 l 299 364 l 264 169 q 261 151 261 160 q 261 135 261 142 q 286 77 261 89 q 342 65 311 65 q 428 79 388 65 q 431 42 431 61 q 431 0 432 24 q 311 -15 378 -15 q 206 15 246 -15 q 167 117 167 46 q 171 165 167 138 l 206 364 z "},"Ũ":{"ha":917,"x_min":183,"x_max":960,"o":"m 307 999 q 331 1001 317 1000 q 358 1001 346 1001 q 383 1001 372 1001 q 404 999 394 1000 l 299 396 q 288 317 292 354 q 283 249 283 279 q 326 114 283 153 q 471 75 369 75 q 587 97 539 75 q 668 159 635 118 q 722 260 701 200 q 757 396 743 319 l 863 999 q 885 1001 872 1000 q 913 1001 897 1001 q 937 1001 924 1001 q 960 999 950 1000 l 849 368 q 802 203 832 275 q 725 83 772 132 q 611 8 678 33 q 454 -17 544 -17 q 183 250 183 -17 q 188 314 183 281 q 199 383 192 347 l 307 999 m 469 1119 q 449 1146 458 1131 q 436 1176 440 1161 q 491 1219 460 1200 q 563 1239 522 1239 q 617 1231 593 1239 q 664 1214 642 1224 q 709 1197 686 1204 q 760 1189 732 1189 q 800 1197 783 1189 q 843 1226 817 1204 q 861 1200 850 1217 q 875 1168 872 1183 q 819 1126 851 1146 q 747 1107 788 1107 q 693 1115 717 1107 q 647 1132 669 1122 q 603 1149 625 1142 q 554 1157 581 1157 q 511 1147 529 1157 q 469 1119 493 1138 z "},"ũ":{"ha":771,"x_min":149,"x_max":776,"o":"m 236 708 q 259 710 244 710 q 283 711 274 711 q 306 710 292 711 q 328 708 321 710 l 254 289 q 247 238 250 264 q 244 192 244 211 q 276 97 244 125 q 358 68 308 68 q 453 101 408 68 q 536 188 499 133 q 601 315 574 243 q 642 464 628 386 l 685 708 q 708 710 693 710 q 732 711 722 711 q 755 710 740 711 q 776 708 769 710 l 704 294 q 680 160 690 215 q 669 56 669 106 q 670 24 669 36 q 674 -3 671 13 q 651 -5 665 -4 q 626 -6 636 -6 q 603 -5 618 -6 q 582 -3 589 -4 q 578 54 578 19 q 583 124 578 90 q 596 182 589 157 q 558 119 583 153 q 499 54 533 85 q 420 3 464 24 q 325 -17 376 -17 q 195 29 242 -17 q 149 164 149 75 q 151 211 149 185 q 158 261 154 238 l 236 708 m 333 851 q 313 878 322 863 q 300 908 304 893 q 355 951 324 932 q 426 971 386 971 q 481 963 457 971 q 528 946 506 956 q 573 928 550 936 q 624 921 596 921 q 664 928 647 921 q 707 958 681 936 q 725 932 714 949 q 739 900 736 915 q 683 858 715 878 q 611 839 651 839 q 557 847 581 839 q 511 864 533 854 q 467 881 489 874 q 418 889 444 889 q 375 879 393 889 q 333 851 357 869 z "},"Ū":{"ha":917,"x_min":183,"x_max":960,"o":"m 307 999 q 331 1001 317 1000 q 358 1001 346 1001 q 383 1001 372 1001 q 404 999 394 1000 l 299 396 q 288 317 292 354 q 283 249 283 279 q 326 114 283 153 q 471 75 369 75 q 587 97 539 75 q 668 159 635 118 q 722 260 701 200 q 757 396 743 319 l 863 999 q 885 1001 872 1000 q 913 1001 897 1001 q 937 1001 924 1001 q 960 999 950 1000 l 849 368 q 802 203 832 275 q 725 83 772 132 q 611 8 678 33 q 454 -17 544 -17 q 183 250 183 -17 q 188 314 183 281 q 199 383 192 347 l 307 999 m 872 1186 q 869 1143 872 1167 q 860 1101 867 1119 l 446 1101 q 449 1144 446 1121 q 458 1186 451 1167 l 872 1186 z "},"ū":{"ha":771,"x_min":149,"x_max":776,"o":"m 236 708 q 259 710 244 710 q 283 711 274 711 q 306 710 292 711 q 328 708 321 710 l 254 289 q 247 238 250 264 q 244 192 244 211 q 276 97 244 125 q 358 68 308 68 q 453 101 408 68 q 536 188 499 133 q 601 315 574 243 q 642 464 628 386 l 685 708 q 708 710 693 710 q 732 711 722 711 q 755 710 740 711 q 776 708 769 710 l 704 294 q 680 160 690 215 q 669 56 669 106 q 670 24 669 36 q 674 -3 671 13 q 651 -5 665 -4 q 626 -6 636 -6 q 603 -5 618 -6 q 582 -3 589 -4 q 578 54 578 19 q 583 124 578 90 q 596 182 589 157 q 558 119 583 153 q 499 54 533 85 q 420 3 464 24 q 325 -17 376 -17 q 195 29 242 -17 q 149 164 149 75 q 151 211 149 185 q 158 261 154 238 l 236 708 m 728 951 q 725 908 728 932 q 715 867 722 885 l 335 867 q 338 909 335 886 q 347 951 340 932 l 728 951 z "},"Ŭ":{"ha":917,"x_min":183,"x_max":960,"o":"m 307 999 q 331 1001 317 1000 q 358 1001 346 1001 q 383 1001 372 1001 q 404 999 394 1000 l 299 396 q 288 317 292 354 q 283 249 283 279 q 326 114 283 153 q 471 75 369 75 q 587 97 539 75 q 668 159 635 118 q 722 260 701 200 q 757 396 743 319 l 863 999 q 885 1001 872 1000 q 913 1001 897 1001 q 937 1001 924 1001 q 960 999 950 1000 l 849 368 q 802 203 832 275 q 725 83 772 132 q 611 8 678 33 q 454 -17 544 -17 q 183 250 183 -17 q 188 314 183 281 q 199 383 192 347 l 307 999 m 461 1235 q 504 1239 483 1239 q 544 1235 524 1239 q 551 1201 546 1217 q 568 1174 557 1185 q 599 1156 579 1163 q 649 1149 618 1149 q 700 1154 679 1149 q 735 1170 721 1160 q 760 1197 750 1181 q 778 1235 769 1213 q 824 1239 800 1239 q 865 1235 844 1239 q 829 1153 853 1185 q 775 1105 806 1122 q 711 1081 744 1088 q 647 1075 678 1075 q 582 1082 615 1075 q 522 1106 549 1089 q 478 1155 494 1124 q 461 1235 461 1186 z "},"ŭ":{"ha":771,"x_min":149,"x_max":776,"o":"m 236 708 q 259 710 244 710 q 283 711 274 711 q 306 710 292 711 q 328 708 321 710 l 254 289 q 247 238 250 264 q 244 192 244 211 q 276 97 244 125 q 358 68 308 68 q 453 101 408 68 q 536 188 499 133 q 601 315 574 243 q 642 464 628 386 l 685 708 q 708 710 693 710 q 732 711 722 711 q 755 710 740 711 q 776 708 769 710 l 704 294 q 680 160 690 215 q 669 56 669 106 q 670 24 669 36 q 674 -3 671 13 q 651 -5 665 -4 q 626 -6 636 -6 q 603 -5 618 -6 q 582 -3 589 -4 q 578 54 578 19 q 583 124 578 90 q 596 182 589 157 q 558 119 583 153 q 499 54 533 85 q 420 3 464 24 q 325 -17 376 -17 q 195 29 242 -17 q 149 164 149 75 q 151 211 149 185 q 158 261 154 238 l 236 708 m 354 1003 q 400 1007 372 1007 q 419 1006 411 1007 q 438 1003 426 1006 q 442 963 438 982 q 459 928 447 943 q 490 903 471 913 q 540 894 510 894 q 594 903 572 894 q 630 928 615 913 q 653 963 644 943 q 668 1003 661 982 q 711 1007 689 1007 q 758 1003 739 1007 q 722 913 746 949 q 669 857 699 878 q 603 828 639 836 q 532 819 568 819 q 468 827 500 819 q 410 856 436 835 q 368 912 383 876 q 354 1003 353 947 z "},"Ů":{"ha":917,"x_min":183,"x_max":960,"o":"m 307 999 q 331 1001 317 1000 q 358 1001 346 1001 q 383 1001 372 1001 q 404 999 394 1000 l 299 396 q 288 317 292 354 q 283 249 283 279 q 326 114 283 153 q 471 75 369 75 q 587 97 539 75 q 668 159 635 118 q 722 260 701 200 q 757 396 743 319 l 863 999 q 885 1001 872 1000 q 913 1001 897 1001 q 937 1001 924 1001 q 960 999 950 1000 l 849 368 q 802 203 832 275 q 725 83 772 132 q 611 8 678 33 q 454 -17 544 -17 q 183 250 183 -17 q 188 314 183 281 q 199 383 192 347 l 307 999 m 665 1078 q 727 1107 706 1078 q 749 1181 749 1136 q 733 1240 749 1215 q 682 1264 718 1264 q 618 1235 640 1264 q 596 1161 596 1206 q 612 1101 596 1125 q 665 1078 628 1078 m 521 1153 q 533 1222 521 1190 q 567 1276 546 1253 q 619 1313 589 1300 q 685 1326 649 1326 q 790 1286 754 1326 q 825 1188 825 1246 q 813 1120 825 1151 q 778 1065 800 1089 q 726 1028 757 1042 q 660 1015 696 1015 q 556 1055 592 1015 q 521 1153 521 1094 z "},"ů":{"ha":771,"x_min":149,"x_max":776,"o":"m 236 708 q 259 710 244 710 q 283 711 274 711 q 306 710 292 711 q 328 708 321 710 l 254 289 q 247 238 250 264 q 244 192 244 211 q 276 97 244 125 q 358 68 308 68 q 453 101 408 68 q 536 188 499 133 q 601 315 574 243 q 642 464 628 386 l 685 708 q 708 710 693 710 q 732 711 722 711 q 755 710 740 711 q 776 708 769 710 l 704 294 q 680 160 690 215 q 669 56 669 106 q 670 24 669 36 q 674 -3 671 13 q 651 -5 665 -4 q 626 -6 636 -6 q 603 -5 618 -6 q 582 -3 589 -4 q 578 54 578 19 q 583 124 578 90 q 596 182 589 157 q 558 119 583 153 q 499 54 533 85 q 420 3 464 24 q 325 -17 376 -17 q 195 29 242 -17 q 149 164 149 75 q 151 211 149 185 q 158 261 154 238 l 236 708 m 546 881 q 599 906 581 881 q 618 971 618 932 q 606 1022 618 1000 q 561 1043 593 1043 q 506 1017 525 1043 q 486 953 486 990 q 500 901 486 921 q 546 881 514 881 m 414 944 q 456 1058 414 1013 q 564 1104 499 1104 q 659 1067 626 1104 q 692 976 692 1029 q 649 865 692 910 q 540 819 607 819 q 446 856 478 819 q 414 944 414 892 z "},"Ű":{"ha":917,"x_min":183,"x_max":972,"o":"m 307 999 q 331 1001 317 1000 q 358 1001 346 1001 q 383 1001 372 1001 q 404 999 394 1000 l 299 396 q 288 317 292 354 q 283 249 283 279 q 326 114 283 153 q 471 75 369 75 q 587 97 539 75 q 668 159 635 118 q 722 260 701 200 q 757 396 743 319 l 863 999 q 885 1001 872 1000 q 913 1001 897 1001 q 937 1001 924 1001 q 960 999 950 1000 l 849 368 q 802 203 832 275 q 725 83 772 132 q 611 8 678 33 q 454 -17 544 -17 q 183 250 183 -17 q 188 314 183 281 q 199 383 192 347 l 307 999 m 608 1238 q 640 1240 624 1240 q 672 1240 657 1240 q 706 1240 689 1240 q 738 1238 722 1239 l 572 1079 q 515 1075 547 1075 q 467 1079 492 1075 l 608 1238 m 843 1238 q 875 1240 858 1240 q 907 1240 892 1240 q 940 1240 924 1240 q 972 1238 957 1239 l 807 1079 q 750 1075 782 1075 q 701 1079 726 1075 l 843 1238 z "},"ű":{"ha":771,"x_min":149,"x_max":808,"o":"m 236 708 q 259 710 244 710 q 283 711 274 711 q 306 710 292 711 q 328 708 321 710 l 254 289 q 247 238 250 264 q 244 192 244 211 q 276 97 244 125 q 358 68 308 68 q 453 101 408 68 q 536 188 499 133 q 601 315 574 243 q 642 464 628 386 l 685 708 q 708 710 693 710 q 732 711 722 711 q 755 710 740 711 q 776 708 769 710 l 704 294 q 680 160 690 215 q 669 56 669 106 q 670 24 669 36 q 674 -3 671 13 q 651 -5 665 -4 q 626 -6 636 -6 q 603 -5 618 -6 q 582 -3 589 -4 q 578 54 578 19 q 583 124 578 90 q 596 182 589 157 q 558 119 583 153 q 499 54 533 85 q 420 3 464 24 q 325 -17 376 -17 q 195 29 242 -17 q 149 164 149 75 q 151 211 149 185 q 158 261 154 238 l 236 708 m 681 1004 q 712 1007 696 1007 q 743 1007 728 1007 q 776 1006 760 1007 q 808 1004 793 1006 l 653 824 q 597 819 628 819 q 550 824 575 819 l 681 1004 m 461 1004 q 492 1007 476 1007 q 524 1007 508 1007 q 557 1006 540 1007 q 589 1004 574 1006 l 433 824 q 378 819 408 819 q 331 824 356 819 l 461 1004 z "},"Ų":{"ha":917,"x_min":183,"x_max":960,"o":"m 454 -17 q 183 250 183 -17 q 188 314 183 281 q 199 383 192 347 l 307 999 q 331 1001 317 1000 q 358 1001 346 1001 q 383 1001 372 1001 q 404 999 394 1000 l 299 396 q 288 317 292 354 q 283 249 283 279 q 326 114 283 153 q 471 75 369 75 q 587 97 539 75 q 668 159 635 118 q 722 260 701 200 q 757 396 743 319 l 863 999 q 885 1001 872 1000 q 913 1001 897 1001 q 937 1001 924 1001 q 960 999 950 1000 l 849 368 q 813 233 835 292 q 760 131 792 175 q 685 51 728 86 q 589 -11 643 17 q 542 -43 568 -22 q 492 -90 515 -64 q 453 -144 469 -115 q 438 -199 438 -172 q 515 -260 438 -260 q 549 -258 531 -260 q 589 -249 567 -256 q 597 -286 596 -269 q 597 -321 597 -303 q 545 -332 575 -328 q 486 -336 515 -336 q 431 -330 457 -336 q 385 -310 406 -324 q 353 -275 365 -297 q 342 -221 342 -253 q 378 -110 342 -162 q 464 -17 415 -57 l 454 -17 z "},"ų":{"ha":771,"x_min":149,"x_max":776,"o":"m 236 708 q 259 710 244 710 q 283 711 274 711 q 306 710 292 711 q 328 708 321 710 l 254 289 q 247 238 250 264 q 244 192 244 211 q 276 97 244 125 q 358 68 308 68 q 453 101 408 68 q 536 188 499 133 q 601 315 574 243 q 642 464 628 386 l 685 708 q 708 710 693 710 q 732 711 722 711 q 755 710 740 711 q 776 708 769 710 l 704 294 q 680 160 690 215 q 669 56 669 106 q 671 19 669 32 q 674 -3 672 7 q 631 -41 654 -18 q 586 -90 607 -64 q 551 -144 565 -115 q 536 -199 536 -172 q 614 -260 536 -260 q 647 -258 629 -260 q 688 -249 665 -256 q 696 -283 693 -265 q 696 -321 699 -301 q 644 -332 674 -328 q 585 -336 614 -336 q 530 -330 556 -336 q 484 -310 504 -324 q 452 -275 464 -297 q 440 -221 440 -253 q 452 -159 440 -190 q 484 -99 464 -128 q 529 -46 504 -71 q 582 -1 554 -21 q 578 54 578 19 q 583 124 578 90 q 596 182 589 157 q 558 119 583 153 q 499 54 533 85 q 420 3 464 24 q 325 -17 376 -17 q 195 29 242 -17 q 149 164 149 75 q 151 211 149 185 q 158 261 154 238 l 236 708 z "},"Ŵ":{"ha":1240,"x_min":239,"x_max":1343,"o":"m 239 999 q 261 1001 247 1000 q 289 1001 275 1001 q 317 1001 303 1001 q 340 999 332 1000 l 369 119 l 728 999 q 758 1001 736 1000 q 792 1001 779 1001 q 820 1001 803 1001 q 847 999 838 1000 l 915 119 l 1239 999 q 1263 1001 1250 1000 q 1290 1001 1275 1001 q 1319 1001 1304 1001 q 1343 999 1335 1000 l 956 0 q 925 -2 944 -1 q 893 -3 906 -3 q 859 -2 878 -3 q 832 0 840 -1 l 764 858 l 410 0 q 381 -2 400 -1 q 347 -3 361 -3 q 312 -2 333 -3 q 283 0 290 -1 l 239 999 m 753 1235 q 781 1238 765 1238 q 810 1239 797 1239 q 861 1235 836 1239 l 981 1081 q 929 1076 956 1076 q 879 1081 908 1076 l 803 1175 l 686 1079 q 653 1076 669 1076 q 625 1076 636 1076 q 597 1077 614 1076 q 568 1081 579 1078 l 753 1235 z "},"ŵ":{"ha":1017,"x_min":161,"x_max":1078,"o":"m 161 708 q 208 713 186 713 q 261 708 236 713 l 342 114 l 576 708 q 599 712 586 711 q 622 713 613 713 q 664 708 644 713 l 754 114 l 958 617 q 975 669 971 647 q 979 703 979 692 l 979 708 q 1001 712 992 711 q 1024 713 1011 713 q 1078 708 1053 713 l 1078 703 q 1069 660 1078 683 q 1043 597 1061 638 l 783 0 q 735 -4 760 -4 q 710 -3 724 -4 q 688 0 697 -3 l 596 554 l 374 0 q 324 -4 350 -4 q 299 -3 313 -4 q 276 0 286 -3 l 161 708 m 596 1003 q 624 1006 608 1006 q 653 1007 639 1007 q 685 1006 665 1007 q 718 1003 706 1006 l 819 824 q 774 819 799 819 q 722 824 747 819 l 653 947 l 536 824 q 504 820 521 821 q 476 819 488 819 q 448 820 465 819 q 419 824 431 821 l 596 1003 z "}}}
